<?xml version="1.0" encoding="UTF-8" standalone="no"?>
<!-- Created with Inkscape (http://www.inkscape.org/) -->

<svg
   width="150.26459mm"
   height="130.26459mm"
   viewBox="0 0 150.26459 130.26459"
   version="1.1"
   id="svg472"
   inkscape:version="1.1.2 (b8e25be833, 2022-02-05)"
   sodipodi:docname="baseBottom.svg"
   xmlns:inkscape="http://www.inkscape.org/namespaces/inkscape"
   xmlns:sodipodi="http://sodipodi.sourceforge.net/DTD/sodipodi-0.dtd"
   xmlns="http://www.w3.org/2000/svg"
   xmlns:svg="http://www.w3.org/2000/svg">
  <sodipodi:namedview
     id="namedview474"
     pagecolor="#ffffff"
     bordercolor="#666666"
     borderopacity="1.0"
     inkscape:pageshadow="2"
     inkscape:pageopacity="0.0"
     inkscape:pagecheckerboard="0"
     inkscape:document-units="mm"
     showgrid="false"
     fit-margin-top="0"
     fit-margin-left="0"
     fit-margin-right="0"
     fit-margin-bottom="0"
     inkscape:zoom="0.74029882"
     inkscape:cx="165.47372"
     inkscape:cy="217.47975"
     inkscape:window-width="1920"
     inkscape:window-height="1017"
     inkscape:window-x="-8"
     inkscape:window-y="-8"
     inkscape:window-maximized="1"
     inkscape:current-layer="layer1" />
  <defs
     id="defs469">
    <marker
       id="DistanceX"
       orient="auto"
       refX="0"
       refY="0"
       style="overflow:visible">
      <path
         d="M 3,-3 -3,3 M 0,-5 V 5"
         style="stroke:#000000;stroke-width:0.5"
         id="path478" />
    </marker>
    <pattern
       id="Hatch"
       patternUnits="userSpaceOnUse"
       width="8"
       height="8"
       x="0"
       y="0">
      <path
         d="M8 4 l-4,4"
         stroke="#000000"
         stroke-width="0.25"
         linecap="square"
         id="path481" />
      <path
         d="M6 2 l-4,4"
         stroke="#000000"
         stroke-width="0.25"
         linecap="square"
         id="path483" />
      <path
         d="M4 0 l-4,4"
         stroke="#000000"
         stroke-width="0.25"
         linecap="square"
         id="path485" />
    </pattern>
    <symbol
       id="*MODEL_SPACE" />
    <symbol
       id="*PAPER_SPACE" />
  </defs>
  <g
     inkscape:label="Layer 1"
     inkscape:groupmode="layer"
     id="layer1"
     transform="translate(22.95179,-52.095139)">
    <g
       inkscape:label="0"
       id="g502"
       transform="matrix(0,0.26458333,-0.26458333,0,349.18051,135.22743)"
       style="stroke:#ff0000">
      <path
         d="m -274.01575,1375.748 a 9.44882,9.44882 0 1 0 -18.89764,0 9.44882,9.44882 0 1 0 18.89764,0 z"
         style="fill:none;stroke:#ff0000"
         id="path492" />
      <path
         d="m -274.01575,869.29134 a 9.44882,9.44882 0 1 0 -18.89764,0 9.44882,9.44882 0 1 0 18.89764,0 z"
         style="fill:none;stroke:#ff0000"
         id="path494" />
      <path
         d="m 156.85039,1375.748 a 9.44882,9.44882 0 1 0 -18.89764,0 9.44882,9.44882 0 1 0 18.89764,0 z"
         style="fill:none;stroke:#ff0000"
         id="path496" />
      <path
         d="m 156.85039,869.29134 a 9.44882,9.44882 0 1 0 -18.89764,0 9.44882,9.44882 0 1 0 18.89764,0 z"
         style="fill:none;stroke:#ff0000"
         id="path498" />
      <path
         d="m 158.74016,839.05512 a 18.897638,18.897638 0 0 1 18.89763,18.89764 v 529.13384 a 18.897638,18.897638 0 0 1 -18.89763,18.8977 h -453.54331 a 18.897638,18.897638 0 0 1 -18.89764,-18.8977 V 857.95276 a 18.897638,18.897638 0 0 1 18.89764,-18.89764 z"
         style="fill:none;stroke:#ff0000"
         id="path500" />
    </g>
  </g>
</svg>
