0
SECTION
2
HEADER
9
$INSUNITS
70
4
9
$ACADVER
1
AC1014
9
$HANDSEED
5
FFFF
0
ENDSEC
0
SECTION
2
TABLES
0
TABLE
2
VPORT
5
8
100
AcDbSymbolTable
0
ENDTAB
0
TABLE
2
LTYPE
5
5
100
AcDbSymbolTable
0
LTYPE
5
14
100
AcDbSymbolTableRecord
100
AcDbLinetypeTableRecord
2
BYBLOCK
70
0
0
LTYPE
5
15
100
AcDbSymbolTableRecord
100
AcDbLinetypeTableRecord
2
BYLAYER
70
0
0
ENDTAB
0
TABLE
2
LAYER
5
2
100
AcDbSymbolTable
70
2
0
LAYER
5
50
100
AcDbSymbolTableRecord
100
AcDbLayerTableRecord
2
0
70
0
6
CONTINUOUS
0
ENDTAB
0
TABLE
2
STYLE
5
3
100
AcDbSymbolTable
70
1
0
STYLE
5
11
100
AcDbSymbolTableRecord
100
AcDbTextStyleTableRecord
2
STANDARD
70
0
0
ENDTAB
0
TABLE
2
VIEW
5
6
100
AcDbSymbolTable
70
0
0
ENDTAB
0
TABLE
2
UCS
5
7
100
AcDbSymbolTable
70
0
0
ENDTAB
0
TABLE
2
APPID
5
9
100
AcDbSymbolTable
70
2
0
APPID
5
12
100
AcDbSymbolTableRecord
100
AcDbRegAppTableRecord
2
ACAD
70
0
0
ENDTAB
0
TABLE
2
DIMSTYLE
5
A
100
AcDbSymbolTable
70
1
0
ENDTAB
0
TABLE
2
BLOCK_RECORD
5
1
100
AcDbSymbolTable
70
1
0
BLOCK_RECORD
5
1F
100
AcDbSymbolTableRecord
100
AcDbBlockTableRecord
2
*MODEL_SPACE
0
BLOCK_RECORD
5
1B
100
AcDbSymbolTableRecord
100
AcDbBlockTableRecord
2
*PAPER_SPACE
0
ENDTAB
0
ENDSEC
0
SECTION
2
BLOCKS
0
BLOCK
5
20
100
AcDbEntity
100
AcDbBlockBegin
2
*MODEL_SPACE
0
ENDBLK
5
21
100
AcDbEntity
100
AcDbBlockEnd
0
BLOCK
5
1C
100
AcDbEntity
100
AcDbBlockBegin
2
*PAPER_SPACE
0
ENDBLK
5
1D
100
AcDbEntity
100
AcDbBlockEnd
0
ENDSEC
0
SECTION
2
ENTITIES
0
LWPOLYLINE
5
100
100
AcDbEntity
8
0
100
AcDbPolyline
90
4
70
1
43
0.0
10
-26.000000447034843
20
-52.499998826533556
10
-31.999999284744263
20
-52.499998826533556
10
-31.999999284744263
20
-55.500002782791853
10
-26.000000447034843
20
-55.500002782791853
0
CIRCLE
5
101
100
AcDbEntity
8
0
100
AcDbCircle
10
31.350908796304886
20
-6.2754852874265898
30
0
40
5
210
0
220
-0
230
1
0
CIRCLE
5
102
100
AcDbEntity
8
0
100
AcDbCircle
10
-62.600000098347664
20
28.499999362975359
30
0
40
2.5
210
0
220
-0
230
1
0
CIRCLE
5
103
100
AcDbEntity
8
0
100
AcDbCircle
10
-62.600000098347664
20
-6.500000637024641
30
0
40
2.5
210
0
220
-0
230
1
0
CIRCLE
5
104
100
AcDbEntity
8
0
100
AcDbCircle
10
4.3999999016523361
20
28.499999362975359
30
0
40
2.4999999999999996
210
0
220
-0
230
1
0
CIRCLE
5
105
100
AcDbEntity
8
0
100
AcDbCircle
10
4.3999999016523361
20
-6.500000637024641
30
0
40
2.4999999999999996
210
0
220
-0
230
1
0
CIRCLE
5
106
100
AcDbEntity
8
0
100
AcDbCircle
10
-75.000000417232528
20
-67
30
0
40
2.5
210
0
220
-0
230
1
0
CIRCLE
5
107
100
AcDbEntity
8
0
100
AcDbCircle
10
-75.000000417232528
20
67
30
0
40
2.5
210
0
220
-0
230
1
0
CIRCLE
5
108
100
AcDbEntity
8
0
100
AcDbCircle
10
38.999999582767479
20
-67
30
0
40
2.5
210
0
220
-0
230
1
0
CIRCLE
5
109
100
AcDbEntity
8
0
100
AcDbCircle
10
38.999999582767479
20
67
30
0
40
2.5
210
0
220
-0
230
1
0
LWPOLYLINE
5
110
100
AcDbEntity
8
0
100
AcDbPolyline
90
8
70
1
43
0.0
10
41.999999582767487
20
75
42
-0.41421356237309503
10
46.999999582767487
20
70
10
46.999999582767487
20
-70
42
-0.41421356237309503
10
41.999999582767487
20
-75
10
-78.000000417232513
20
-75
42
-0.41421356237309398
10
-83.000000417232513
20
-70
10
-83.000000417232513
20
70
42
-0.41421356237309398
10
-78.000000417232513
20
75
0
LWPOLYLINE
5
111
100
AcDbEntity
8
0
100
AcDbPolyline
90
4
70
1
43
0.0
10
2.9292229413986348
20
11.016612565830474
10
5.929222941398633
20
11.016612565830474
10
5.929222941398633
20
17.016612565830474
10
2.9292229413986348
20
17.016612565830474
0
LWPOLYLINE
5
112
100
AcDbEntity
8
0
100
AcDbPolyline
90
4
70
1
43
0.0
10
5.929222941398633
20
-18.935231484080223
10
2.9292229413986348
20
-18.935231484080223
10
2.9292229413986348
20
-24.935231484080226
10
5.929222941398633
20
-24.935231484080226
0
LWPOLYLINE
5
113
100
AcDbEntity
8
0
100
AcDbPolyline
90
4
70
1
43
0.0
10
-64.070777058601365
20
-24.935231484080226
10
-61.070777058601365
20
-24.935231484080226
10
-61.070777058601365
20
-18.935231484080223
10
-64.070777058601365
20
-18.935231484080223
0
LWPOLYLINE
5
114
100
AcDbEntity
8
0
100
AcDbPolyline
90
4
70
1
43
0.0
10
-64.070777058601365
20
11.016612565830474
10
-61.070777058601365
20
11.016612565830474
10
-61.070777058601365
20
17.016612565830474
10
-64.070777058601365
20
17.016612565830474
0
CIRCLE
5
115
100
AcDbEntity
8
0
100
AcDbCircle
10
25
20
50
30
0
40
11
210
0
220
0
230
1
0
CIRCLE
5
116
100
AcDbEntity
8
0
100
AcDbCircle
10
11.499999582767479
20
67
30
0
40
2.5
210
0
220
0
230
1
0
CIRCLE
5
117
100
AcDbEntity
8
0
100
AcDbCircle
10
-47.500000417232528
20
67
30
0
40
2.5
210
0
220
0
230
1
0
ENDSEC
0
SECTION
2
OBJECTS
0
DICTIONARY
5
C
100
AcDbDictionary
3
ACAD_GROUP
350
D
3
ACAD_MLINESTYLE
350
17
0
DICTIONARY
5
D
100
AcDbDictionary
0
DICTIONARY
5
1A
330
C
100
AcDbDictionary
0
DICTIONARY
5
17
100
AcDbDictionary
0
ENDSEC
0
EOF
