<?xml version="1.0" encoding="UTF-8" standalone="no"?>
<!-- Created with Inkscape (http://www.inkscape.org/) -->

<svg
   width="150.26459mm"
   height="130.26459mm"
   viewBox="0 0 150.26459 130.26459"
   version="1.1"
   id="svg5"
   inkscape:version="1.1.2 (b8e25be833, 2022-02-05)"
   sodipodi:docname="baseTop.svg"
   xmlns:inkscape="http://www.inkscape.org/namespaces/inkscape"
   xmlns:sodipodi="http://sodipodi.sourceforge.net/DTD/sodipodi-0.dtd"
   xmlns="http://www.w3.org/2000/svg"
   xmlns:svg="http://www.w3.org/2000/svg">
  <sodipodi:namedview
     id="namedview7"
     pagecolor="#ffffff"
     bordercolor="#666666"
     borderopacity="1.0"
     inkscape:pageshadow="2"
     inkscape:pageopacity="0.0"
     inkscape:pagecheckerboard="0"
     inkscape:document-units="mm"
     showgrid="false"
     fit-margin-top="0"
     fit-margin-left="0"
     fit-margin-right="0"
     fit-margin-bottom="0"
     inkscape:zoom="0.74029882"
     inkscape:cx="226.25998"
     inkscape:cy="267.45956"
     inkscape:window-width="1920"
     inkscape:window-height="1017"
     inkscape:window-x="-8"
     inkscape:window-y="-8"
     inkscape:window-maximized="1"
     inkscape:current-layer="layer1" />
  <defs
     id="defs2">
    <marker
       id="DistanceX"
       orient="auto"
       refX="0"
       refY="0"
       style="overflow:visible">
      <path
         d="M 3,-3 -3,3 M 0,-5 V 5"
         style="stroke:#000000;stroke-width:0.5"
         id="path11" />
    </marker>
    <pattern
       id="Hatch"
       patternUnits="userSpaceOnUse"
       width="8"
       height="8"
       x="0"
       y="0">
      <path
         d="M8 4 l-4,4"
         stroke="#000000"
         stroke-width="0.25"
         linecap="square"
         id="path14" />
      <path
         d="M6 2 l-4,4"
         stroke="#000000"
         stroke-width="0.25"
         linecap="square"
         id="path16" />
      <path
         d="M4 0 l-4,4"
         stroke="#000000"
         stroke-width="0.25"
         linecap="square"
         id="path18" />
    </pattern>
    <symbol
       id="*MODEL_SPACE" />
    <symbol
       id="*PAPER_SPACE" />
  </defs>
  <g
     inkscape:label="Layer 1"
     inkscape:groupmode="layer"
     id="layer1"
     transform="translate(-211.14568,-84.618609)">
    <g
       inkscape:label="0"
       id="g61"
       transform="matrix(0,0.26458333,-0.26458333,0,583.27798,167.7509)"
       style="stroke:#ff0000">
      <path
         d="m -98.267718,1320.9449 h -22.677162 v 11.3386 h 22.677162 z"
         style="fill:none;stroke:#ff0000"
         id="path25" />
      <path
         d="m 137.38926,1146.2381 a 18.897638,18.897638 0 1 0 -37.795274,0 18.897638,18.897638 0 1 0 37.795274,0 z"
         style="fill:none;stroke:#ff0000"
         id="path27" />
      <path
         d="m -227.14961,1014.8032 a 9.448819,9.448819 0 1 0 -18.89763,0 9.448819,9.448819 0 1 0 18.89763,0 z"
         style="fill:none;stroke:#ff0000"
         id="path29" />
      <path
         d="m -227.14961,1147.0866 a 9.448819,9.448819 0 1 0 -18.89763,0 9.448819,9.448819 0 1 0 18.89763,0 z"
         style="fill:none;stroke:#ff0000"
         id="path31" />
      <path
         d="m 26.07874,1014.8032 a 9.448819,9.448819 0 1 0 -18.897638,0 9.448819,9.448819 0 1 0 18.897638,0 z"
         style="fill:none;stroke:#ff0000"
         id="path33" />
      <path
         d="m 26.07874,1147.0866 a 9.448819,9.448819 0 1 0 -18.897638,0 9.448819,9.448819 0 1 0 18.897638,0 z"
         style="fill:none;stroke:#ff0000"
         id="path35" />
      <path
         d="m -274.01575,1375.748 a 9.44882,9.44882 0 1 0 -18.89764,0 9.44882,9.44882 0 1 0 18.89764,0 z"
         style="fill:none;stroke:#ff0000"
         id="path37" />
      <path
         d="m -274.01575,869.29134 a 9.44882,9.44882 0 1 0 -18.89764,0 9.44882,9.44882 0 1 0 18.89764,0 z"
         style="fill:none;stroke:#ff0000"
         id="path39" />
      <path
         d="m 156.85039,1375.748 a 9.44882,9.44882 0 1 0 -18.89764,0 9.44882,9.44882 0 1 0 18.89764,0 z"
         style="fill:none;stroke:#ff0000"
         id="path41" />
      <path
         d="m 156.85039,869.29134 a 9.44882,9.44882 0 1 0 -18.89764,0 9.44882,9.44882 0 1 0 18.89764,0 z"
         style="fill:none;stroke:#ff0000"
         id="path43" />
      <path
         d="m 158.74016,839.05512 a 18.897638,18.897638 0 0 1 18.89763,18.89764 v 529.13384 a 18.897638,18.897638 0 0 1 -18.89763,18.8977 h -453.54331 a 18.897638,18.897638 0 0 1 -18.89764,-18.8977 V 857.95276 a 18.897638,18.897638 0 0 1 18.89764,-18.89764 z"
         style="fill:none;stroke:#ff0000"
         id="path45" />
      <path
         d="m 11.071079,1080.8821 h 11.338583 v -22.6772 H 11.071079 Z"
         style="fill:none;stroke:#ff0000"
         id="path47" />
      <path
         d="M 22.409662,1194.0859 H 11.071079 v 22.6772 h 11.338583 z"
         style="fill:none;stroke:#ff0000"
         id="path49" />
      <path
         d="m -242.15727,1216.7631 h 11.33859 v -22.6772 h -11.33859 z"
         style="fill:none;stroke:#ff0000"
         id="path51" />
      <path
         d="m -242.15727,1080.8821 h 11.33859 v -22.6772 h -11.33859 z"
         style="fill:none;stroke:#ff0000"
         id="path53" />
      <path
         d="m 136.06299,933.54331 a 41.574803,41.574803 0 1 0 -83.149604,0 41.574803,41.574803 0 1 0 83.149604,0 z"
         style="fill:none;stroke:#ff0000"
         id="path55" />
      <path
         d="m 52.913384,869.29134 a 9.448819,9.448819 0 1 0 -18.897638,0 9.448819,9.448819 0 1 0 18.897638,0 z"
         style="fill:none;stroke:#ff0000"
         id="path57" />
      <path
         d="m -170.07874,869.29134 a 9.44882,9.44882 0 1 0 -18.89764,0 9.44882,9.44882 0 1 0 18.89764,0 z"
         style="fill:none;stroke:#ff0000"
         id="path59" />
    </g>
  </g>
</svg>
