<?xml version="1.0" encoding="UTF-8" standalone="no"?>
<!-- Created with Inkscape (http://www.inkscape.org/) -->

<svg
   width="54mm"
   height="106mm"
   viewBox="0 0 54 106"
   version="1.1"
   id="svg5"
   inkscape:version="1.1.2 (b8e25be833, 2022-02-05)"
   sodipodi:docname="cardTemplate.svg"
   xmlns:inkscape="http://www.inkscape.org/namespaces/inkscape"
   xmlns:sodipodi="http://sodipodi.sourceforge.net/DTD/sodipodi-0.dtd"
   xmlns="http://www.w3.org/2000/svg"
   xmlns:svg="http://www.w3.org/2000/svg">
  <sodipodi:namedview
     id="namedview7"
     pagecolor="#ffffff"
     bordercolor="#666666"
     borderopacity="1.0"
     inkscape:pageshadow="2"
     inkscape:pageopacity="0.0"
     inkscape:pagecheckerboard="0"
     inkscape:document-units="mm"
     showgrid="false"
     fit-margin-top="0"
     fit-margin-left="0"
     fit-margin-right="0"
     fit-margin-bottom="0"
     inkscape:zoom="2"
     inkscape:cx="152.25"
     inkscape:cy="220"
     inkscape:window-width="1920"
     inkscape:window-height="1017"
     inkscape:window-x="-8"
     inkscape:window-y="-8"
     inkscape:window-maximized="1"
     inkscape:current-layer="layer1"
     height="86.15mm" />
  <defs
     id="defs2" />
  <g
     inkscape:label="Layer 1"
     inkscape:groupmode="layer"
     id="layer1"
     transform="translate(-41.026086,-62.470124)">
    <path
       id="rect31-6-8"
       style="fill:#ff0000;fill-opacity:0;stroke:#ff0000;stroke-width:0.62795"
       d="M 8.4746094 0.31445312 C 3.9532307 0.31445312 0.31445312 4.7823696 0.31445312 10.332031 L 0.31445312 94.763672 L 14.841797 94.763672 L 14.841797 194.37109 L 7.578125 194.37109 L 7.578125 206.25977 L 14.841797 206.25977 L 14.841797 305.86523 L 0.31445312 305.86523 L 0.31445312 390.29883 C 0.31445312 395.84849 3.9532307 400.31641 8.4746094 400.31641 L 195.61914 400.31641 C 200.14052 400.31641 203.78125 395.84849 203.78125 390.29883 L 203.78125 305.86523 L 189.25195 305.86523 L 189.25195 206.25977 L 196.51562 206.25977 L 196.51562 194.36914 L 189.25195 194.36914 L 189.25195 94.763672 L 203.78125 94.763672 L 203.78125 10.332031 C 203.78125 4.7823696 200.14052 0.31445312 195.61914 0.31445312 L 8.4746094 0.31445312 z "
       transform="matrix(0.26458333,0,0,0.26458333,41.026086,62.470124)" />
    <path
       style="fill:none;stroke:#ff0000;stroke-width:0.126893;stroke-linecap:butt;stroke-linejoin:miter;stroke-miterlimit:4;stroke-dasharray:none;stroke-opacity:1"
       d="M 41.026086,115.53362 H 95.02563"
       id="path884" />
  </g>
</svg>
