0
SECTION
2
HEADER
9
$INSUNITS
70
4
9
$ACADVER
1
AC1014
9
$HANDSEED
5
FFFF
0
ENDSEC
0
SECTION
2
TABLES
0
TABLE
2
VPORT
5
8
100
AcDbSymbolTable
0
ENDTAB
0
TABLE
2
LTYPE
5
5
100
AcDbSymbolTable
0
LTYPE
5
14
100
AcDbSymbolTableRecord
100
AcDbLinetypeTableRecord
2
BYBLOCK
70
0
0
LTYPE
5
15
100
AcDbSymbolTableRecord
100
AcDbLinetypeTableRecord
2
BYLAYER
70
0
0
ENDTAB
0
TABLE
2
LAYER
5
2
100
AcDbSymbolTable
70
2
0
LAYER
5
50
100
AcDbSymbolTableRecord
100
AcDbLayerTableRecord
2
0
70
0
6
CONTINUOUS
0
ENDTAB
0
TABLE
2
STYLE
5
3
100
AcDbSymbolTable
70
1
0
STYLE
5
11
100
AcDbSymbolTableRecord
100
AcDbTextStyleTableRecord
2
STANDARD
70
0
0
ENDTAB
0
TABLE
2
VIEW
5
6
100
AcDbSymbolTable
70
0
0
ENDTAB
0
TABLE
2
UCS
5
7
100
AcDbSymbolTable
70
0
0
ENDTAB
0
TABLE
2
APPID
5
9
100
AcDbSymbolTable
70
2
0
APPID
5
12
100
AcDbSymbolTableRecord
100
AcDbRegAppTableRecord
2
ACAD
70
0
0
ENDTAB
0
TABLE
2
DIMSTYLE
5
A
100
AcDbSymbolTable
70
1
0
ENDTAB
0
TABLE
2
BLOCK_RECORD
5
1
100
AcDbSymbolTable
70
1
0
BLOCK_RECORD
5
1F
100
AcDbSymbolTableRecord
100
AcDbBlockTableRecord
2
*MODEL_SPACE
0
BLOCK_RECORD
5
1B
100
AcDbSymbolTableRecord
100
AcDbBlockTableRecord
2
*PAPER_SPACE
0
ENDTAB
0
ENDSEC
0
SECTION
2
BLOCKS
0
BLOCK
5
20
100
AcDbEntity
100
AcDbBlockBegin
2
*MODEL_SPACE
0
ENDBLK
5
21
100
AcDbEntity
100
AcDbBlockEnd
0
BLOCK
5
1C
100
AcDbEntity
100
AcDbBlockBegin
2
*PAPER_SPACE
0
ENDBLK
5
1D
100
AcDbEntity
100
AcDbBlockEnd
0
ENDSEC
0
SECTION
2
ENTITIES
0
LWPOLYLINE
5
100
100
AcDbEntity
8
0
100
AcDbPolyline
90
69
70
1
43
0.0
10
37.500000000000007
20
69.999999999999986
42
-0.41421356237309476
10
52.500000000000007
20
54.999999999999986
10
52.500000000000007
20
-65.932051121455459
10
46.000000685453415
20
-65.932051121455459
10
46.000000685453415
20
-64.500000968575492
10
42.200000685453418
20
-64.500000968575492
10
42.200000685453418
20
-65.932051121455459
10
27.500000000000007
20
-65.932051121455459
10
27.500000000000007
20
-70.932051121455459
10
42.200000685453418
20
-70.932051121455459
10
42.200000685453418
20
-72.500000968575492
10
46.000000685453415
20
-72.500000968575492
10
46.000000685453415
20
-70.932051121455459
10
52.500000000000007
20
-70.932051121455459
10
52.500000000000007
20
-90.666666666666657
10
55.500000000000007
20
-90.666666666666657
10
55.500000000000007
20
-102.66666666666669
10
52.500000000000007
20
-102.66666666666669
10
52.500000000000007
20
-120.59871778812212
10
46.000000685453415
20
-120.59871778812212
10
46.000000685453415
20
-119.16666763524218
10
42.200000685453418
20
-119.16666763524218
10
42.200000685453418
20
-120.59871778812212
10
27.500000000000007
20
-120.59871778812212
10
27.500000000000007
20
-125.59871778812212
10
42.200000685453418
20
-125.59871778812212
10
42.200000685453418
20
-127.16666763524216
10
46.000000685453415
20
-127.16666763524216
10
46.000000685453415
20
-125.59871778812212
10
52.500000000000007
20
-125.59871778812212
10
52.500000000000007
20
-130.00000000000003
10
24.935231484080226
20
-130.00000000000003
10
24.935231484080226
20
-133.00000000000003
10
18.935231484080223
20
-133.00000000000003
10
18.935231484080223
20
-130.00000000000003
10
8.9833874341695221
20
-130.00000000000003
10
8.9833874341695221
20
-126.89999720603228
10
10.500000637024641
20
-126.89999720603228
10
10.500000637024641
20
-123.09999720603227
10
8.9833874341695221
20
-123.09999720603227
10
8.9833874341695221
20
-105.00000000000001
10
3.983387434169523
20
-105.00000000000001
10
3.983387434169523
20
-123.09999720603227
10
2.500000637024633
20
-123.09999720603227
10
2.500000637024633
20
-126.89999720603228
10
3.983387434169523
20
-126.89999720603228
10
3.983387434169523
20
-130.00000000000003
10
-11.016612565830474
20
-130.00000000000003
10
-11.016612565830474
20
-133.00000000000003
10
-17.016612565830474
20
-133.00000000000003
10
-17.016612565830474
20
-130.00000000000003
10
-26.016612565830478
20
-130.00000000000003
10
-26.016612565830478
20
-126.89999720603228
10
-24.499999362975359
20
-126.89999720603228
10
-24.499999362975359
20
-123.09999720603227
10
-26.016612565830478
20
-123.09999720603227
10
-26.016612565830478
20
-105.00000000000001
10
-31.016612565830478
20
-105.00000000000001
10
-31.016612565830478
20
-123.09999720603227
10
-32.499999362975359
20
-123.09999720603227
10
-32.499999362975359
20
-126.89999720603228
10
-31.016612565830478
20
-126.89999720603228
10
-31.016612565830478
20
-130.00000000000003
10
-52.500000000000007
20
-130
10
-52.499999999999993
20
85
42
-0.41421356237309542
10
-37.500000000000007
20
100
10
-15.000000000000002
20
100
42
-0.41421356237309492
10
0
20
85
10
0
20
69.999999999999986
0
CIRCLE
5
101
100
AcDbEntity
8
0
100
AcDbCircle
10
-18.100000000000001
20
9.0000001341104507
30
0
40
2.5
210
0
220
0
230
1
0
CIRCLE
5
102
100
AcDbEntity
8
0
100
AcDbCircle
10
18.100000000000001
20
9.0000001341104507
30
0
40
2.4999999999999978
210
0
220
0
230
1
0
LWPOLYLINE
5
103
100
AcDbEntity
8
0
100
AcDbPolyline
90
4
70
1
43
0.0
10
0
20
-66.000000387430191
10
-35
20
-66.000000387430191
42
0.99999999999999989
10
-35
20
-71.000000387430191
10
-1.5308084989341916e-16
20
-71.000000387430191
42
0.99999999999999989
0
CIRCLE
5
104
100
AcDbEntity
8
0
100
AcDbCircle
10
0
20
9.0000001341104507
30
0
40
2.5
210
0
220
0
230
1
0
LWPOLYLINE
5
105
100
AcDbEntity
8
0
100
AcDbPolyline
90
4
70
1
43
0.0
10
-37.50272278316492
20
83.691026836044387
10
-37.502722783146567
20
56.217937235965522
42
0.99999999999999989
10
-32.502722783155036
20
56.217937235969572
10
-32.502722783136676
20
83.691026836041374
42
0.99999999999999989
0
ENDSEC
0
SECTION
2
OBJECTS
0
DICTIONARY
5
C
100
AcDbDictionary
3
ACAD_GROUP
350
D
3
ACAD_MLINESTYLE
350
17
0
DICTIONARY
5
D
100
AcDbDictionary
0
DICTIONARY
5
1A
330
C
100
AcDbDictionary
0
DICTIONARY
5
17
100
AcDbDictionary
0
ENDSEC
0
EOF
