<?xml version="1.0" encoding="UTF-8" standalone="no"?>
<!-- Created with Inkscape (http://www.inkscape.org/) -->

<svg
   width="233.26459mm"
   height="108.26458mm"
   viewBox="0 0 233.26459 108.26458"
   version="1.1"
   id="svg666"
   inkscape:version="1.1.2 (b8e25be833, 2022-02-05)"
   sodipodi:docname="rightTopUnit.svg"
   xmlns:inkscape="http://www.inkscape.org/namespaces/inkscape"
   xmlns:sodipodi="http://sodipodi.sourceforge.net/DTD/sodipodi-0.dtd"
   xmlns="http://www.w3.org/2000/svg"
   xmlns:svg="http://www.w3.org/2000/svg">
  <sodipodi:namedview
     id="namedview668"
     pagecolor="#ffffff"
     bordercolor="#666666"
     borderopacity="1.0"
     inkscape:pageshadow="2"
     inkscape:pageopacity="0.0"
     inkscape:pagecheckerboard="0"
     inkscape:document-units="mm"
     showgrid="false"
     fit-margin-top="0"
     fit-margin-left="0"
     fit-margin-right="0"
     fit-margin-bottom="0"
     inkscape:zoom="0.74029882"
     inkscape:cx="577.46951"
     inkscape:cy="236.39103"
     inkscape:window-width="1920"
     inkscape:window-height="1017"
     inkscape:window-x="-8"
     inkscape:window-y="-8"
     inkscape:window-maximized="1"
     inkscape:current-layer="layer1" />
  <defs
     id="defs663">
    <marker
       id="DistanceX"
       orient="auto"
       refX="0"
       refY="0"
       style="overflow:visible">
      <path
         d="M 3,-3 -3,3 M 0,-5 V 5"
         style="stroke:#000000;stroke-width:0.5"
         id="path672" />
    </marker>
    <pattern
       id="Hatch"
       patternUnits="userSpaceOnUse"
       width="8"
       height="8"
       x="0"
       y="0">
      <path
         d="M8 4 l-4,4"
         stroke="#000000"
         stroke-width="0.25"
         linecap="square"
         id="path675" />
      <path
         d="M6 2 l-4,4"
         stroke="#000000"
         stroke-width="0.25"
         linecap="square"
         id="path677" />
      <path
         d="M4 0 l-4,4"
         stroke="#000000"
         stroke-width="0.25"
         linecap="square"
         id="path679" />
    </pattern>
    <symbol
       id="*MODEL_SPACE" />
    <symbol
       id="*PAPER_SPACE" />
  </defs>
  <g
     inkscape:label="Layer 1"
     inkscape:groupmode="layer"
     id="layer1"
     transform="translate(198.47706,-70.957958)">
    <g
       inkscape:label="0"
       id="g698"
       transform="matrix(0,0.26458333,-0.26458333,0,231.65524,123.59025)"
       style="stroke:#ff0000">
      <path
         d="m 141.73228,857.95276 a 56.692913,56.692913 0 0 1 56.69292,56.69291 v 457.06603 h -24.56693 v -5.4125 h -14.3622 v 5.4125 h -55.55906 v 18.8976 h 55.55906 v 5.9261 h 14.3622 v -5.9261 h 24.56693 v 74.5876 h 11.33858 v 45.3543 H 198.4252 v 67.7747 h -24.56693 v -5.4125 h -14.3622 v 5.4125 h -55.55906 v 18.8976 h 55.55906 v 5.9261 h 14.3622 v -5.9261 h 24.56693 v 16.6348 H 94.243395 v 11.3386 H 71.566229 v -11.3386 H 33.95296 v -11.7166 h 5.732082 v -14.3622 H 33.95296 v -68.4094 H 15.055323 v 68.4094 H 9.448821 v 14.3622 h 5.606502 v 11.7166 h -56.692914 v 11.3386 h -22.677165 v -11.3386 h -34.015748 v -11.7166 h 5.732081 v -14.3622 h -5.732081 v -68.4094 h -18.897636 v 68.4094 h -5.6065 v 14.3622 h 5.6065 v 11.7166 H -198.4252 V 801.25984 a 56.692913,56.692913 0 0 1 56.69292,-56.69291 h 85.039367 A 56.692913,56.692913 0 0 1 0,801.25984 v 56.69292 z"
         style="fill:none;stroke:#ff0000"
         id="path686" />
      <path
         d="m -58.96063,1088.5039 a 9.448819,9.448819 0 1 0 -18.897638,0 9.448819,9.448819 0 1 0 18.897638,0 z"
         style="fill:none;stroke:#ff0000"
         id="path688" />
      <path
         d="m 77.858268,1088.5039 a 9.448819,9.448819 0 1 0 -18.897638,0 9.448819,9.448819 0 1 0 18.897638,0 z"
         style="fill:none;stroke:#ff0000"
         id="path690" />
      <path
         d="m 0,1371.9685 h -132.28346 a 9.448819,9.448819 0 0 0 0,18.8976 H 0 a 9.448819,9.448819 0 0 0 0,-18.8976 z"
         style="fill:none;stroke:#ff0000"
         id="path692" />
      <path
         d="m 9.448819,1088.5039 a 9.448819,9.448819 0 1 0 -18.897638,0 9.448819,9.448819 0 1 0 18.897638,0 z"
         style="fill:none;stroke:#ff0000"
         id="path694" />
      <path
         d="m -141.74257,806.20714 v 103.8353 a 9.448819,9.448819 0 0 0 18.89763,0 v -103.8353 a 9.448819,9.448819 0 0 0 -18.89763,0 z"
         style="fill:none;stroke:#ff0000"
         id="path696" />
    </g>
  </g>
</svg>
