<?xml version="1.0" encoding="UTF-8" standalone="no"?>
<!-- Created with Inkscape (http://www.inkscape.org/) -->

<svg
   width="70.26458mm"
   height="70.264549mm"
   viewBox="0 0 70.26458 70.264549"
   version="1.1"
   id="svg1546"
   inkscape:version="1.1.2 (b8e25be833, 2022-02-05)"
   sodipodi:docname="rotatorRight.svg"
   xmlns:inkscape="http://www.inkscape.org/namespaces/inkscape"
   xmlns:sodipodi="http://sodipodi.sourceforge.net/DTD/sodipodi-0.dtd"
   xmlns="http://www.w3.org/2000/svg"
   xmlns:svg="http://www.w3.org/2000/svg">
  <sodipodi:namedview
     id="namedview1548"
     pagecolor="#ffffff"
     bordercolor="#666666"
     borderopacity="1.0"
     inkscape:pageshadow="2"
     inkscape:pageopacity="0.0"
     inkscape:pagecheckerboard="0"
     inkscape:document-units="mm"
     showgrid="false"
     fit-margin-top="0"
     fit-margin-left="0"
     fit-margin-right="0"
     fit-margin-bottom="0"
     inkscape:zoom="0.74029882"
     inkscape:cx="297.8527"
     inkscape:cy="27.016118"
     inkscape:window-width="1920"
     inkscape:window-height="1017"
     inkscape:window-x="-8"
     inkscape:window-y="-8"
     inkscape:window-maximized="1"
     inkscape:current-layer="layer1" />
  <defs
     id="defs1543">
    <marker
       id="DistanceX"
       orient="auto"
       refX="0"
       refY="0"
       style="overflow:visible">
      <path
         d="M 3,-3 -3,3 M 0,-5 V 5"
         style="stroke:#000000;stroke-width:0.5"
         id="path1552" />
    </marker>
    <pattern
       id="Hatch"
       patternUnits="userSpaceOnUse"
       width="8"
       height="8"
       x="0"
       y="0">
      <path
         d="M8 4 l-4,4"
         stroke="#000000"
         stroke-width="0.25"
         linecap="square"
         id="path1555" />
      <path
         d="M6 2 l-4,4"
         stroke="#000000"
         stroke-width="0.25"
         linecap="square"
         id="path1557" />
      <path
         d="M4 0 l-4,4"
         stroke="#000000"
         stroke-width="0.25"
         linecap="square"
         id="path1559" />
    </pattern>
    <symbol
       id="*MODEL_SPACE" />
    <symbol
       id="*PAPER_SPACE" />
  </defs>
  <g
     inkscape:label="Layer 1"
     inkscape:groupmode="layer"
     id="layer1"
     transform="translate(-25.983233,-141.42369)">
    <g
       inkscape:label="0"
       id="g1738"
       transform="matrix(0.26458333,0,0,0.26458333,61.115523,-111.37325)"
       style="stroke:#ff0000">
      <path
         d="m -121.27582,1068.4296 a 3.779528,3.779528 0 1 0 -7.55905,0 3.779528,3.779528 0 1 0 7.55905,0 z"
         style="fill:none;stroke:#ff0000"
         id="path1566" />
      <path
         d="m -119.33629,1058.6789 a 3.779528,3.779528 0 1 0 -7.55905,0 3.779528,3.779528 0 1 0 7.55905,0 z"
         style="fill:none;stroke:#ff0000"
         id="path1568" />
      <path
         d="m 42.905459,967.8192 a 3.779528,3.779528 0 1 0 -7.559055,0 3.779528,3.779528 0 1 0 7.559055,0 z"
         style="fill:none;stroke:#ff0000"
         id="path1570" />
      <path
         d="m 23.586348,963.18109 a 3.779528,3.779528 0 1 0 -7.559055,0 3.779528,3.779528 0 1 0 7.559055,0 z"
         style="fill:none;stroke:#ff0000"
         id="path1572" />
      <path
         d="m 116.59358,1145.7181 a 3.779528,3.779528 0 1 0 -7.55905,0 3.779528,3.779528 0 1 0 7.55905,0 z"
         style="fill:none;stroke:#ff0000"
         id="path1574" />
      <path
         d="m 106.21255,1162.6584 a 3.779529,3.779529 0 1 0 -7.559058,0 3.779529,3.779529 0 1 0 7.559058,0 z"
         style="fill:none;stroke:#ff0000"
         id="path1576" />
      <path
         d="m 124.19676,1127.3624 a 3.779528,3.779528 0 1 0 -7.55905,0 3.779528,3.779528 0 1 0 7.55905,0 z"
         style="fill:none;stroke:#ff0000"
         id="path1578" />
      <path
         d="m 52.232675,1205.2127 a 3.779528,3.779528 0 1 0 -7.559055,0 3.779528,3.779528 0 1 0 7.559055,0 z"
         style="fill:none;stroke:#ff0000"
         id="path1580" />
      <path
         d="m -104.1768,1022.0807 a 3.77953,3.77953 0 1 0 -7.55906,0 3.77953,3.77953 0 1 0 7.55906,0 z"
         style="fill:none;stroke:#ff0000"
         id="path1582" />
      <path
         d="m -70.642417,1190.6695 a 3.779528,3.779528 0 1 0 -7.559055,0 3.779528,3.779528 0 1 0 7.559055,0 z"
         style="fill:none;stroke:#ff0000"
         id="path1584" />
      <path
         d="m 23.586348,1213.2918 a 3.779528,3.779528 0 1 0 -7.559055,0 3.779528,3.779528 0 1 0 7.559055,0 z"
         style="fill:none;stroke:#ff0000"
         id="path1586" />
      <path
         d="m -78.449801,1184.5146 a 3.779528,3.779528 0 1 0 -7.559055,0 3.779528,3.779528 0 1 0 7.559055,0 z"
         style="fill:none;stroke:#ff0000"
         id="path1588" />
      <path
         d="m -44.67362,971.26019 a 3.779528,3.779528 0 1 0 -7.559055,0 3.779528,3.779528 0 1 0 7.559055,0 z"
         style="fill:none;stroke:#ff0000"
         id="path1590" />
      <path
         d="m -92.498647,1006.0071 a 3.779528,3.779528 0 1 0 -7.559053,0 3.779528,3.779528 0 1 0 7.559053,0 z"
         style="fill:none;stroke:#ff0000"
         id="path1592" />
      <path
         d="m -16.027293,963.18109 a 3.779528,3.779528 0 1 0 -7.559055,0 3.779528,3.779528 0 1 0 7.559055,0 z"
         style="fill:none;stroke:#ff0000"
         id="path1594" />
      <path
         d="m 69.935252,980.2801 a 3.779528,3.779528 0 1 0 -7.559055,0 3.779528,3.779528 0 1 0 7.559055,0 z"
         style="fill:none;stroke:#ff0000"
         id="path1596" />
      <path
         d="m -70.642417,985.80341 a 3.779528,3.779528 0 1 0 -7.559055,0 3.779528,3.779528 0 1 0 7.559055,0 z"
         style="fill:none;stroke:#ff0000"
         id="path1598" />
      <path
         d="m -62.376197,1196.1928 a 3.779528,3.779528 0 1 0 -7.559055,0 3.779528,3.779528 0 1 0 7.559055,0 z"
         style="fill:none;stroke:#ff0000"
         id="path1600" />
      <path
         d="m 86.008856,991.95826 a 3.779528,3.779528 0 1 0 -7.559055,0 3.779528,3.779528 0 1 0 7.559055,0 z"
         style="fill:none;stroke:#ff0000"
         id="path1602" />
      <path
         d="m -109.03453,1145.7181 a 3.779528,3.779528 0 1 0 -7.55905,0 3.779528,3.779528 0 1 0 7.55905,0 z"
         style="fill:none;stroke:#ff0000"
         id="path1604" />
      <path
         d="m 69.935252,1196.1928 a 3.779528,3.779528 0 1 0 -7.559055,0 3.779528,3.779528 0 1 0 7.559055,0 z"
         style="fill:none;stroke:#ff0000"
         id="path1606" />
      <path
         d="m 3.779528,1214.8506 a 3.779528,3.779528 0 1 0 -7.559056,0 3.779528,3.779528 0 1 0 7.559056,0 z"
         style="fill:none;stroke:#ff0000"
         id="path1608" />
      <path
         d="m 78.201472,1190.6695 a 3.779528,3.779528 0 1 0 -7.559055,0 3.779528,3.779528 0 1 0 7.559055,0 z"
         style="fill:none;stroke:#ff0000"
         id="path1610" />
      <path
         d="m -53.702105,1201.0505 a 3.779528,3.779528 0 1 0 -7.559055,0 3.779528,3.779528 0 1 0 7.559055,0 z"
         style="fill:none;stroke:#ff0000"
         id="path1612" />
      <path
         d="m 61.26116,975.42238 a 3.779528,3.779528 0 1 0 -7.559055,0 3.779528,3.779528 0 1 0 7.559055,0 z"
         style="fill:none;stroke:#ff0000"
         id="path1614" />
      <path
         d="m -62.376197,980.2801 a 3.779528,3.779528 0 1 0 -7.559055,0 3.779528,3.779528 0 1 0 7.559055,0 z"
         style="fill:none;stroke:#ff0000"
         id="path1616" />
      <path
         d="m 116.59358,1030.7548 a 3.779528,3.779528 0 1 0 -7.55905,0 3.779528,3.779528 0 1 0 7.55905,0 z"
         style="fill:none;stroke:#ff0000"
         id="path1618" />
      <path
         d="m -25.777965,1211.3522 a 3.779528,3.779528 0 1 0 -7.559055,0 3.779528,3.779528 0 1 0 7.559055,0 z"
         style="fill:none;stroke:#ff0000"
         id="path1620" />
      <path
         d="m 128.83487,1068.4296 a 3.779528,3.779528 0 1 0 -7.55905,0 3.779528,3.779528 0 1 0 7.55905,0 z"
         style="fill:none;stroke:#ff0000"
         id="path1622" />
      <path
         d="m -85.750214,1177.7662 a 3.779528,3.779528 0 1 0 -7.559055,0 3.779528,3.779528 0 1 0 7.559055,0 z"
         style="fill:none;stroke:#ff0000"
         id="path1624" />
      <path
         d="m -25.777965,965.12062 a 3.779528,3.779528 0 1 0 -7.559055,0 3.779528,3.779528 0 1 0 7.559055,0 z"
         style="fill:none;stroke:#ff0000"
         id="path1626" />
      <path
         d="m -44.67362,1205.2127 a 3.779528,3.779528 0 1 0 -7.559055,0 3.779528,3.779528 0 1 0 7.559055,0 z"
         style="fill:none;stroke:#ff0000"
         id="path1628" />
      <path
         d="m 61.26116,1201.0505 a 3.779528,3.779528 0 1 0 -7.559055,0 3.779528,3.779528 0 1 0 7.559055,0 z"
         style="fill:none;stroke:#ff0000"
         id="path1630" />
      <path
         d="m 93.309269,1177.7662 a 3.779528,3.779528 0 1 0 -7.559055,0 3.779528,3.779528 0 1 0 7.559055,0 z"
         style="fill:none;stroke:#ff0000"
         id="path1632" />
      <path
         d="m 130.00339,1098.1705 a 3.779528,3.779528 0 1 0 -7.55905,0 3.779528,3.779528 0 1 0 7.55905,0 z"
         style="fill:none;stroke:#ff0000"
         id="path1634" />
      <path
         d="m 120.75577,1136.6896 a 3.779528,3.779528 0 1 0 -7.55905,0 3.779528,3.779528 0 1 0 7.55905,0 z"
         style="fill:none;stroke:#ff0000"
         id="path1636" />
      <path
         d="m -113.19672,1039.7833 a 3.779528,3.779528 0 1 0 -7.55905,0 3.779528,3.779528 0 1 0 7.55905,0 z"
         style="fill:none;stroke:#ff0000"
         id="path1638" />
      <path
         d="m 3.779528,961.62226 a 3.779528,3.779528 0 1 0 -7.559056,0 3.779528,3.779528 0 1 0 7.559056,0 z"
         style="fill:none;stroke:#ff0000"
         id="path1640" />
      <path
         d="m -119.33629,1117.7939 a 3.779528,3.779528 0 1 0 -7.55905,0 3.779528,3.779528 0 1 0 7.55905,0 z"
         style="fill:none;stroke:#ff0000"
         id="path1642" />
      <path
         d="m -122.83465,1088.2364 a 3.779528,3.779528 0 1 0 -7.55905,0 3.779528,3.779528 0 1 0 7.55905,0 z"
         style="fill:none;stroke:#ff0000"
         id="path1644" />
      <path
         d="m -113.19672,1136.6896 a 3.779528,3.779528 0 1 0 -7.55905,0 3.779528,3.779528 0 1 0 7.55905,0 z"
         style="fill:none;stroke:#ff0000"
         id="path1646" />
      <path
         d="m 13.713561,962.01257 a 3.779528,3.779528 0 1 0 -7.559055,0 3.779528,3.779528 0 1 0 7.559055,0 z"
         style="fill:none;stroke:#ff0000"
         id="path1648" />
      <path
         d="m -116.63771,1127.3624 a 3.779528,3.779528 0 1 0 -7.55905,0 3.779528,3.779528 0 1 0 7.55905,0 z"
         style="fill:none;stroke:#ff0000"
         id="path1650" />
      <path
         d="m -122.44434,1078.3024 a 3.779528,3.779528 0 1 0 -7.55905,0 3.779528,3.779528 0 1 0 7.55905,0 z"
         style="fill:none;stroke:#ff0000"
         id="path1652" />
      <path
         d="m 111.73586,1154.3922 a 3.77953,3.77953 0 1 0 -7.55906,0 3.77953,3.77953 0 1 0 7.55906,0 z"
         style="fill:none;stroke:#ff0000"
         id="path1654" />
      <path
         d="m 128.83487,1108.0433 a 3.779528,3.779528 0 1 0 -7.55905,0 3.779528,3.779528 0 1 0 7.55905,0 z"
         style="fill:none;stroke:#ff0000"
         id="path1656" />
      <path
         d="m 126.89534,1058.6789 a 3.779528,3.779528 0 1 0 -7.55905,0 3.779528,3.779528 0 1 0 7.55905,0 z"
         style="fill:none;stroke:#ff0000"
         id="path1658" />
      <path
         d="m 42.905459,1208.6537 a 3.779528,3.779528 0 1 0 -7.559055,0 3.779528,3.779528 0 1 0 7.559055,0 z"
         style="fill:none;stroke:#ff0000"
         id="path1660" />
      <path
         d="m 33.33702,1211.3522 a 3.779528,3.779528 0 1 0 -7.559055,0 3.779528,3.779528 0 1 0 7.559055,0 z"
         style="fill:none;stroke:#ff0000"
         id="path1662" />
      <path
         d="m 106.21255,1013.8145 a 3.779529,3.779529 0 1 0 -7.559058,0 3.779529,3.779529 0 1 0 7.559058,0 z"
         style="fill:none;stroke:#ff0000"
         id="path1664" />
      <path
         d="m 130.3937,1088.2364 a 3.779528,3.779528 0 1 0 -7.55905,0 3.779528,3.779528 0 1 0 7.55905,0 z"
         style="fill:none;stroke:#ff0000"
         id="path1666" />
      <path
         d="m -6.154506,1214.4603 a 3.779528,3.779528 0 1 0 -7.559055,0 3.779528,3.779528 0 1 0 7.559055,0 z"
         style="fill:none;stroke:#ff0000"
         id="path1668" />
      <path
         d="m 100.0577,1006.0071 a 3.779528,3.779528 0 1 0 -7.559053,0 3.779528,3.779528 0 1 0 7.559053,0 z"
         style="fill:none;stroke:#ff0000"
         id="path1670" />
      <path
         d="m -53.702105,975.42238 a 3.779528,3.779528 0 1 0 -7.559055,0 3.779528,3.779528 0 1 0 7.559055,0 z"
         style="fill:none;stroke:#ff0000"
         id="path1672" />
      <path
         d="m -35.346404,967.8192 a 3.779528,3.779528 0 1 0 -7.559055,0 3.779528,3.779528 0 1 0 7.559055,0 z"
         style="fill:none;stroke:#ff0000"
         id="path1674" />
      <path
         d="m 52.232675,971.26019 a 3.779528,3.779528 0 1 0 -7.559055,0 3.779528,3.779528 0 1 0 7.559055,0 z"
         style="fill:none;stroke:#ff0000"
         id="path1676" />
      <path
         d="m 130.00339,1078.3024 a 3.779528,3.779528 0 1 0 -7.55905,0 3.779528,3.779528 0 1 0 7.55905,0 z"
         style="fill:none;stroke:#ff0000"
         id="path1678" />
      <path
         d="m 93.309269,998.70669 a 3.779528,3.779528 0 1 0 -7.559055,0 3.779528,3.779528 0 1 0 7.559055,0 z"
         style="fill:none;stroke:#ff0000"
         id="path1680" />
      <path
         d="m 120.75577,1039.7833 a 3.779528,3.779528 0 1 0 -7.55905,0 3.779528,3.779528 0 1 0 7.55905,0 z"
         style="fill:none;stroke:#ff0000"
         id="path1682" />
      <path
         d="m -109.03453,1030.7548 a 3.779528,3.779528 0 1 0 -7.55905,0 3.779528,3.779528 0 1 0 7.55905,0 z"
         style="fill:none;stroke:#ff0000"
         id="path1684" />
      <path
         d="m -35.346404,1208.6537 a 3.779528,3.779528 0 1 0 -7.559055,0 3.779528,3.779528 0 1 0 7.559055,0 z"
         style="fill:none;stroke:#ff0000"
         id="path1686" />
      <path
         d="m -92.498647,1170.4658 a 3.779528,3.779528 0 1 0 -7.559053,0 3.779528,3.779528 0 1 0 7.559053,0 z"
         style="fill:none;stroke:#ff0000"
         id="path1688" />
      <path
         d="m -98.653492,1162.6584 a 3.779529,3.779529 0 1 0 -7.559058,0 3.779529,3.779529 0 1 0 7.559058,0 z"
         style="fill:none;stroke:#ff0000"
         id="path1690" />
      <path
         d="m 111.73586,1022.0807 a 3.77953,3.77953 0 1 0 -7.55906,0 3.77953,3.77953 0 1 0 7.55906,0 z"
         style="fill:none;stroke:#ff0000"
         id="path1692" />
      <path
         d="m -98.653492,1013.8145 a 3.779529,3.779529 0 1 0 -7.559058,0 3.779529,3.779529 0 1 0 7.559058,0 z"
         style="fill:none;stroke:#ff0000"
         id="path1694" />
      <path
         d="m -104.1768,1154.3922 a 3.77953,3.77953 0 1 0 -7.55906,0 3.77953,3.77953 0 1 0 7.55906,0 z"
         style="fill:none;stroke:#ff0000"
         id="path1696" />
      <path
         d="m -85.750214,998.70669 a 3.779528,3.779528 0 1 0 -7.559055,0 3.779528,3.779528 0 1 0 7.559055,0 z"
         style="fill:none;stroke:#ff0000"
         id="path1698" />
      <path
         d="m -16.027293,1213.2918 a 3.779528,3.779528 0 1 0 -7.559055,0 3.779528,3.779528 0 1 0 7.559055,0 z"
         style="fill:none;stroke:#ff0000"
         id="path1700" />
      <path
         d="m 13.713561,1214.4603 a 3.779528,3.779528 0 1 0 -7.559055,0 3.779528,3.779528 0 1 0 7.559055,0 z"
         style="fill:none;stroke:#ff0000"
         id="path1702" />
      <path
         d="m -78.449801,991.95826 a 3.779528,3.779528 0 1 0 -7.559055,0 3.779528,3.779528 0 1 0 7.559055,0 z"
         style="fill:none;stroke:#ff0000"
         id="path1704" />
      <path
         d="m 124.19676,1049.1105 a 3.779528,3.779528 0 1 0 -7.55905,0 3.779528,3.779528 0 1 0 7.55905,0 z"
         style="fill:none;stroke:#ff0000"
         id="path1706" />
      <path
         d="m -6.154506,962.01257 a 3.779528,3.779528 0 1 0 -7.559055,0 3.779528,3.779528 0 1 0 7.559055,0 z"
         style="fill:none;stroke:#ff0000"
         id="path1708" />
      <path
         d="m 78.201472,985.80341 a 3.779528,3.779528 0 1 0 -7.559055,0 3.779528,3.779528 0 1 0 7.559055,0 z"
         style="fill:none;stroke:#ff0000"
         id="path1710" />
      <path
         d="m 126.89534,1117.7939 a 3.779528,3.779528 0 1 0 -7.55905,0 3.779528,3.779528 0 1 0 7.55905,0 z"
         style="fill:none;stroke:#ff0000"
         id="path1712" />
      <path
         d="m 100.0577,1170.4658 a 3.779528,3.779528 0 1 0 -7.559053,0 3.779528,3.779528 0 1 0 7.559053,0 z"
         style="fill:none;stroke:#ff0000"
         id="path1714" />
      <path
         d="m 86.008856,1184.5146 a 3.779528,3.779528 0 1 0 -7.559055,0 3.779528,3.779528 0 1 0 7.559055,0 z"
         style="fill:none;stroke:#ff0000"
         id="path1716" />
      <path
         d="m -122.44434,1098.1705 a 3.779528,3.779528 0 1 0 -7.55905,0 3.779528,3.779528 0 1 0 7.55905,0 z"
         style="fill:none;stroke:#ff0000"
         id="path1718" />
      <path
         d="m -121.27582,1108.0433 a 3.779528,3.779528 0 1 0 -7.55905,0 3.779528,3.779528 0 1 0 7.55905,0 z"
         style="fill:none;stroke:#ff0000"
         id="path1720" />
      <path
         d="m -116.63771,1049.1105 a 3.779528,3.779528 0 1 0 -7.55905,0 3.779528,3.779528 0 1 0 7.55905,0 z"
         style="fill:none;stroke:#ff0000"
         id="path1722" />
      <path
         d="m 33.33702,965.12062 a 3.779528,3.779528 0 1 0 -7.559055,0 3.779528,3.779528 0 1 0 7.559055,0 z"
         style="fill:none;stroke:#ff0000"
         id="path1724" />
      <path
         d="m 132.28346,1088.2364 a 132.28346,132.28346 0 1 0 -264.56692,0 132.28346,132.28346 0 1 0 264.56692,0 z"
         style="fill:none;stroke:#ff0000"
         id="path1726" />
      <path
         d="m -37.795275,1077.1654 v 22.6771 h 11.338583 v -22.6771 z"
         style="fill:none;stroke:#ff0000"
         id="path1728" />
      <path
         d="m 11.338583,1126.0317 v -11.3386 h -22.677166 v 11.3386 z"
         style="fill:none;stroke:#ff0000"
         id="path1730" />
      <path
         d="m -11.338583,1061.7797 h 22.677166 v -11.3385 h -22.677166 z"
         style="fill:none;stroke:#ff0000"
         id="path1732" />
      <path
         d="m 37.795276,1099.8425 v -22.6771 H 26.456693 v 22.6771 z"
         style="fill:none;stroke:#ff0000"
         id="path1734" />
      <path
         d="m 0,1071.047 -15.11811,8.7285 v 17.4569 L 0,1105.9608 l 15.11811,-8.7284 v -17.4569 z"
         style="fill:none;stroke:#ff0000"
         id="path1736" />
    </g>
  </g>
</svg>
