0
SECTION
2
HEADER
9
$INSUNITS
70
4
9
$ACADVER
1
AC1014
9
$HANDSEED
5
FFFF
0
ENDSEC
0
SECTION
2
TABLES
0
TABLE
2
VPORT
5
8
100
AcDbSymbolTable
0
ENDTAB
0
TABLE
2
LTYPE
5
5
100
AcDbSymbolTable
0
LTYPE
5
14
100
AcDbSymbolTableRecord
100
AcDbLinetypeTableRecord
2
BYBLOCK
70
0
0
LTYPE
5
15
100
AcDbSymbolTableRecord
100
AcDbLinetypeTableRecord
2
BYLAYER
70
0
0
ENDTAB
0
TABLE
2
LAYER
5
2
100
AcDbSymbolTable
70
2
0
LAYER
5
50
100
AcDbSymbolTableRecord
100
AcDbLayerTableRecord
2
0
70
0
6
CONTINUOUS
0
ENDTAB
0
TABLE
2
STYLE
5
3
100
AcDbSymbolTable
70
1
0
STYLE
5
11
100
AcDbSymbolTableRecord
100
AcDbTextStyleTableRecord
2
STANDARD
70
0
0
ENDTAB
0
TABLE
2
VIEW
5
6
100
AcDbSymbolTable
70
0
0
ENDTAB
0
TABLE
2
UCS
5
7
100
AcDbSymbolTable
70
0
0
ENDTAB
0
TABLE
2
APPID
5
9
100
AcDbSymbolTable
70
2
0
APPID
5
12
100
AcDbSymbolTableRecord
100
AcDbRegAppTableRecord
2
ACAD
70
0
0
ENDTAB
0
TABLE
2
DIMSTYLE
5
A
100
AcDbSymbolTable
70
1
0
ENDTAB
0
TABLE
2
BLOCK_RECORD
5
1
100
AcDbSymbolTable
70
1
0
BLOCK_RECORD
5
1F
100
AcDbSymbolTableRecord
100
AcDbBlockTableRecord
2
*MODEL_SPACE
0
BLOCK_RECORD
5
1B
100
AcDbSymbolTableRecord
100
AcDbBlockTableRecord
2
*PAPER_SPACE
0
ENDTAB
0
ENDSEC
0
SECTION
2
BLOCKS
0
BLOCK
5
20
100
AcDbEntity
100
AcDbBlockBegin
2
*MODEL_SPACE
0
ENDBLK
5
21
100
AcDbEntity
100
AcDbBlockEnd
0
BLOCK
5
1C
100
AcDbEntity
100
AcDbBlockBegin
2
*PAPER_SPACE
0
ENDBLK
5
1D
100
AcDbEntity
100
AcDbBlockEnd
0
ENDSEC
0
SECTION
2
ENTITIES
0
CIRCLE
5
100
100
AcDbEntity
8
0
100
AcDbCircle
10
-33.087559902980168
20
14.311331953958044
30
0
40
0.99999999999999978
210
0
220
-2.4651903288156619e-32
230
1
0
CIRCLE
5
101
100
AcDbEntity
8
0
100
AcDbCircle
10
-32.574392818718437
20
16.891197102726125
30
0
40
0.99999999999999978
210
0
220
-2.4651903288156619e-32
230
1
0
CIRCLE
5
102
100
AcDbEntity
8
0
100
AcDbCircle
10
10.352069465818595
20
40.931171067664465
30
0
40
1.0000000000000009
210
0
220
-2.4651903288156619e-32
230
1
0
CIRCLE
5
103
100
AcDbEntity
8
0
100
AcDbCircle
10
5.2405546569380856
20
42.158337200000133
30
0
40
1.0000000000000009
210
0
220
-2.4651903288156619e-32
230
1
0
CIRCLE
5
104
100
AcDbEntity
8
0
100
AcDbCircle
10
29.848719005090896
20
-6.1379046708818708
30
0
40
1.0000000000000009
210
0
220
-2.4651903288156619e-32
230
1
0
CIRCLE
5
105
100
AcDbEntity
8
0
100
AcDbCircle
10
27.102069715413052
20
-10.620028948193758
30
0
40
1.0000000000000009
210
0
220
-2.4651903288156619e-32
230
1
0
CIRCLE
5
106
100
AcDbEntity
8
0
100
AcDbCircle
10
31.860393770644503
20
-1.2812921687986285
30
0
40
0.99999999999999978
210
0
220
-2.4651903288156619e-32
230
1
0
CIRCLE
5
107
100
AcDbEntity
8
0
100
AcDbCircle
10
12.81989517526184
20
-21.879187503298535
30
0
40
1.0000000000000009
210
0
220
-2.4651903288156619e-32
230
1
0
CIRCLE
5
108
100
AcDbEntity
8
0
100
AcDbCircle
10
-28.563445931490591
20
26.574479475829737
30
0
40
1.0000000000000009
210
0
220
-2.4651903288156619e-32
230
1
0
CIRCLE
5
109
100
AcDbEntity
8
0
100
AcDbCircle
10
-19.690806245213718
20
-18.031292418393082
30
0
40
1.0000000000000009
210
0
220
-2.4651903288156619e-32
230
1
0
CIRCLE
5
110
100
AcDbEntity
8
0
100
AcDbCircle
10
5.2405546569380856
20
-24.016782605960202
30
0
40
1.0000000000000009
210
0
220
-2.4651903288156619e-32
230
1
0
CIRCLE
5
111
100
AcDbEntity
8
0
100
AcDbCircle
10
-21.756509943258418
20
-16.402822930167289
30
0
40
1.0000000000000009
210
0
220
-2.4651903288156619e-32
230
1
0
CIRCLE
5
112
100
AcDbEntity
8
0
100
AcDbCircle
10
-12.819895175261831
20
40.02074209733847
30
0
40
1.0000000000000009
210
0
220
-2.4651903288156619e-32
230
1
0
CIRCLE
5
113
100
AcDbEntity
8
0
100
AcDbCircle
10
-25.473600227187255
20
30.827287240278377
30
0
40
1.0000000000000009
210
0
220
-2.4651903288156619e-32
230
1
0
CIRCLE
5
114
100
AcDbEntity
8
0
100
AcDbCircle
10
-5.2405546569380812
20
42.158337200000133
30
0
40
1.0000000000000009
210
0
220
-2.4651903288156619e-32
230
1
0
CIRCLE
5
115
100
AcDbEntity
8
0
100
AcDbCircle
10
17.503702178809768
20
37.634223228510557
30
0
40
1.0000000000000009
210
0
220
-2.4651903288156619e-32
230
1
0
CIRCLE
5
116
100
AcDbEntity
8
0
100
AcDbCircle
10
-19.690806245213722
20
36.172847012433003
30
0
40
1.0000000000000009
210
0
220
-2.4651903288156619e-32
230
1
0
CIRCLE
5
117
100
AcDbEntity
8
0
100
AcDbCircle
10
-17.503702178809753
20
-19.49266863447065
30
0
40
1.0000000000000009
210
0
220
-2.4651903288156619e-32
230
1
0
CIRCLE
5
118
100
AcDbEntity
8
0
100
AcDbCircle
10
21.756509943258404
20
34.544377524207221
30
0
40
1.0000000000000009
210
0
220
-2.4651903288156619e-32
230
1
0
CIRCLE
5
119
100
AcDbEntity
8
0
100
AcDbCircle
10
-29.848719005090885
20
-6.1379046708818823
30
0
40
1.0000000000000009
210
0
220
-2.4651903288156619e-32
230
1
0
CIRCLE
5
120
100
AcDbEntity
8
0
100
AcDbCircle
10
17.503702178809768
20
-19.49266863447064
30
0
40
1.0000000000000009
210
0
220
-2.4651903288156619e-32
230
1
0
CIRCLE
5
121
100
AcDbEntity
8
0
100
AcDbCircle
10
7.4384943758307509e-15
20
-24.429223202168938
30
0
40
1.0000000000000009
210
0
220
-2.4651903288156619e-32
230
1
0
CIRCLE
5
122
100
AcDbEntity
8
0
100
AcDbCircle
10
19.690806245213729
20
-18.031292418393075
30
0
40
1.0000000000000009
210
0
220
-2.4651903288156619e-32
230
1
0
CIRCLE
5
123
100
AcDbEntity
8
0
100
AcDbCircle
10
-15.208681967901834
20
-20.777941708070923
30
0
40
1.0000000000000009
210
0
220
-2.4651903288156619e-32
230
1
0
CIRCLE
5
124
100
AcDbEntity
8
0
100
AcDbCircle
10
15.208681967901834
20
38.919496302110858
30
0
40
1.0000000000000009
210
0
220
-2.4651903288156619e-32
230
1
0
CIRCLE
5
125
100
AcDbEntity
8
0
100
AcDbCircle
10
-17.503702178809778
20
37.634223228510557
30
0
40
1.0000000000000009
210
0
220
-2.4651903288156619e-32
230
1
0
CIRCLE
5
126
100
AcDbEntity
8
0
100
AcDbCircle
10
29.848719005090885
20
24.279459264921805
30
0
40
1.0000000000000009
210
0
220
-2.4651903288156619e-32
230
1
0
CIRCLE
5
127
100
AcDbEntity
8
0
100
AcDbCircle
10
-7.8204198057061465
20
-23.503615521698475
30
0
40
1.0000000000000009
210
0
220
-2.4651903288156619e-32
230
1
0
CIRCLE
5
128
100
AcDbEntity
8
0
100
AcDbCircle
10
33.087559902980168
20
14.311331953958049
30
0
40
0.99999999999999978
210
0
220
-2.4651903288156619e-32
230
1
0
CIRCLE
5
129
100
AcDbEntity
8
0
100
AcDbCircle
10
-23.688077522729195
20
-14.617300225709242
30
0
40
1.0000000000000009
210
0
220
-2.4651903288156619e-32
230
1
0
CIRCLE
5
130
100
AcDbEntity
8
0
100
AcDbCircle
10
-7.820419805706166
20
41.645170115738395
30
0
40
1.0000000000000009
210
0
220
-2.4651903288156619e-32
230
1
0
CIRCLE
5
131
100
AcDbEntity
8
0
100
AcDbCircle
10
-12.819895175261831
20
-21.879187503298553
30
0
40
1.0000000000000009
210
0
220
-2.4651903288156619e-32
230
1
0
CIRCLE
5
132
100
AcDbEntity
8
0
100
AcDbCircle
10
15.208681967901843
20
-20.777941708070923
30
0
40
1.0000000000000009
210
0
220
-2.4651903288156619e-32
230
1
0
CIRCLE
5
133
100
AcDbEntity
8
0
100
AcDbCircle
10
23.688077522729198
20
-14.617300225709238
30
0
40
1.0000000000000009
210
0
220
-2.4651903288156619e-32
230
1
0
CIRCLE
5
134
100
AcDbEntity
8
0
100
AcDbCircle
10
33.396731177709846
20
6.4423975509712497
30
0
40
1
210
0
220
-0
230
1
0
CIRCLE
5
135
100
AcDbEntity
8
0
100
AcDbCircle
10
30.949964800318511
20
-3.7491178782418628
30
0
40
1.0000000000000009
210
0
220
-2.4651903288156619e-32
230
1
0
CIRCLE
5
136
100
AcDbEntity
8
0
100
AcDbCircle
10
-30.949964800318511
20
21.890672472281793
30
0
40
1.0000000000000009
210
0
220
-2.4651903288156619e-32
230
1
0
CIRCLE
5
137
100
AcDbEntity
8
0
100
AcDbCircle
10
7.4384943758307509e-15
20
42.570777796208866
30
0
40
1.0000000000000009
210
0
220
-2.4651903288156619e-32
230
1
0
CIRCLE
5
138
100
AcDbEntity
8
0
100
AcDbCircle
10
-32.574392818718437
20
1.2503574913138022
30
0
40
0.99999999999999978
210
0
220
-2.4651903288156619e-32
230
1
0
CIRCLE
5
139
100
AcDbEntity
8
0
100
AcDbCircle
10
-33.5000004991889
20
9.0707772970199603
30
0
40
1
210
0
220
-0
230
1
0
CIRCLE
5
140
100
AcDbEntity
8
0
100
AcDbCircle
10
-30.949964800318508
20
-3.7491178782418895
30
0
40
1.0000000000000009
210
0
220
-2.4651903288156619e-32
230
1
0
CIRCLE
5
141
100
AcDbEntity
8
0
100
AcDbCircle
10
2.6283797460487186
20
42.467508474729819
30
0
40
1.0000000000000009
210
0
220
-2.4651903288156619e-32
230
1
0
CIRCLE
5
142
100
AcDbEntity
8
0
100
AcDbCircle
10
-31.8603937706445
20
-1.2812921687986374
30
0
40
0.99999999999999978
210
0
220
-2.4651903288156619e-32
230
1
0
CIRCLE
5
143
100
AcDbEntity
8
0
100
AcDbCircle
10
-33.396731177709853
20
11.699157043068675
30
0
40
1.0000000000000004
210
0
220
-2.4651903288156619e-32
230
1
0
CIRCLE
5
144
100
AcDbEntity
8
0
100
AcDbCircle
10
28.563445931490591
20
-8.4329248817898073
30
0
40
1.0000000000000009
210
0
220
-2.4651903288156619e-32
230
1
0
CIRCLE
5
145
100
AcDbEntity
8
0
100
AcDbCircle
10
33.087559902980168
20
3.8302226400818835
30
0
40
0.99999999999999978
210
0
220
-2.4651903288156619e-32
230
1
0
CIRCLE
5
146
100
AcDbEntity
8
0
100
AcDbCircle
10
32.574392818718437
20
16.891197102726132
30
0
40
0.99999999999999978
210
0
220
-2.4651903288156619e-32
230
1
0
CIRCLE
5
147
100
AcDbEntity
8
0
100
AcDbCircle
10
10.352069465818595
20
-22.789616473624527
30
0
40
1.0000000000000009
210
0
220
-2.4651903288156619e-32
230
1
0
CIRCLE
5
148
100
AcDbEntity
8
0
100
AcDbCircle
10
7.8204198057061545
20
-23.503615521698475
30
0
40
1.0000000000000009
210
0
220
-2.4651903288156619e-32
230
1
0
CIRCLE
5
149
100
AcDbEntity
8
0
100
AcDbCircle
10
27.102069715413037
20
28.761583542233687
30
0
40
1.0000000000000009
210
0
220
-2.4651903288156619e-32
230
1
0
CIRCLE
5
150
100
AcDbEntity
8
0
100
AcDbCircle
10
33.5000004991889
20
9.0707772970199656
30
0
40
1
210
0
220
-0
230
1
0
CIRCLE
5
151
100
AcDbEntity
8
0
100
AcDbCircle
10
-2.6283797460487222
20
-24.32595388068988
30
0
40
1.0000000000000009
210
0
220
-2.4651903288156619e-32
230
1
0
CIRCLE
5
152
100
AcDbEntity
8
0
100
AcDbCircle
10
25.473600227187259
20
30.827287240278377
30
0
40
1.0000000000000009
210
0
220
-2.4651903288156619e-32
230
1
0
CIRCLE
5
153
100
AcDbEntity
8
0
100
AcDbCircle
10
-15.208681967901843
20
38.919496302110851
30
0
40
1.0000000000000009
210
0
220
-2.4651903288156619e-32
230
1
0
CIRCLE
5
154
100
AcDbEntity
8
0
100
AcDbCircle
10
-10.352069465818595
20
40.931171067664465
30
0
40
1.0000000000000009
210
0
220
-2.4651903288156619e-32
230
1
0
CIRCLE
5
155
100
AcDbEntity
8
0
100
AcDbCircle
10
12.819895175261831
20
40.020742097338477
30
0
40
1.0000000000000009
210
0
220
-2.4651903288156619e-32
230
1
0
CIRCLE
5
156
100
AcDbEntity
8
0
100
AcDbCircle
10
33.396731177709846
20
11.699157043068681
30
0
40
0.99999999999999978
210
0
220
-2.4651903288156619e-32
230
1
0
CIRCLE
5
157
100
AcDbEntity
8
0
100
AcDbCircle
10
23.688077522729198
20
32.758854819749168
30
0
40
1.0000000000000009
210
0
220
-2.4651903288156619e-32
230
1
0
CIRCLE
5
158
100
AcDbEntity
8
0
100
AcDbCircle
10
30.949964800318511
20
21.890672472281793
30
0
40
1.0000000000000009
210
0
220
-2.4651903288156619e-32
230
1
0
CIRCLE
5
159
100
AcDbEntity
8
0
100
AcDbCircle
10
-29.848719005090892
20
24.279459264921798
30
0
40
1.0000000000000009
210
0
220
-2.4651903288156619e-32
230
1
0
CIRCLE
5
160
100
AcDbEntity
8
0
100
AcDbCircle
10
-10.352069465818584
20
-22.789616473624537
30
0
40
1.0000000000000009
210
0
220
-2.4651903288156619e-32
230
1
0
CIRCLE
5
161
100
AcDbEntity
8
0
100
AcDbCircle
10
-25.473600227187241
20
-12.685732646238465
30
0
40
1.0000000000000009
210
0
220
-2.4651903288156619e-32
230
1
0
CIRCLE
5
162
100
AcDbEntity
8
0
100
AcDbCircle
10
-27.102069715413037
20
-10.620028948193767
30
0
40
1.0000000000000009
210
0
220
-2.4651903288156619e-32
230
1
0
CIRCLE
5
163
100
AcDbEntity
8
0
100
AcDbCircle
10
28.563445931490591
20
26.574479475829737
30
0
40
1.0000000000000009
210
0
220
-2.4651903288156619e-32
230
1
0
CIRCLE
5
164
100
AcDbEntity
8
0
100
AcDbCircle
10
-27.102069715413041
20
28.761583542233687
30
0
40
1.0000000000000009
210
0
220
-2.4651903288156619e-32
230
1
0
CIRCLE
5
165
100
AcDbEntity
8
0
100
AcDbCircle
10
-28.563445931490602
20
-8.4329248817898055
30
0
40
1.0000000000000009
210
0
220
-2.4651903288156619e-32
230
1
0
CIRCLE
5
166
100
AcDbEntity
8
0
100
AcDbCircle
10
-23.688077522729198
20
32.75885481974916
30
0
40
1.0000000000000009
210
0
220
-2.4651903288156619e-32
230
1
0
CIRCLE
5
167
100
AcDbEntity
8
0
100
AcDbCircle
10
-5.240554656938075
20
-24.016782605960213
30
0
40
1.0000000000000009
210
0
220
-2.4651903288156619e-32
230
1
0
CIRCLE
5
168
100
AcDbEntity
8
0
100
AcDbCircle
10
2.6283797460487262
20
-24.32595388068988
30
0
40
1.0000000000000009
210
0
220
-2.4651903288156619e-32
230
1
0
CIRCLE
5
169
100
AcDbEntity
8
0
100
AcDbCircle
10
-21.756509943258408
20
34.544377524207221
30
0
40
1.0000000000000009
210
0
220
-2.4651903288156619e-32
230
1
0
CIRCLE
5
170
100
AcDbEntity
8
0
100
AcDbCircle
10
31.860393770644503
20
19.422846762838557
30
0
40
1.0000000000000009
210
0
220
-2.4651903288156619e-32
230
1
0
CIRCLE
5
171
100
AcDbEntity
8
0
100
AcDbCircle
10
-2.6283797460487222
20
42.467508474729811
30
0
40
1.0000000000000009
210
0
220
-2.4651903288156619e-32
230
1
0
CIRCLE
5
172
100
AcDbEntity
8
0
100
AcDbCircle
10
19.690806245213718
20
36.172847012433003
30
0
40
1.0000000000000009
210
0
220
-2.4651903288156619e-32
230
1
0
CIRCLE
5
173
100
AcDbEntity
8
0
100
AcDbCircle
10
32.574392818718437
20
1.2503574913138
30
0
40
0.99999999999999978
210
0
220
-2.4651903288156619e-32
230
1
0
CIRCLE
5
174
100
AcDbEntity
8
0
100
AcDbCircle
10
25.473600227187259
20
-12.685732646238444
30
0
40
1.0000000000000009
210
0
220
-2.4651903288156619e-32
230
1
0
CIRCLE
5
175
100
AcDbEntity
8
0
100
AcDbCircle
10
21.756509943258429
20
-16.402822930167279
30
0
40
1.0000000000000009
210
0
220
-2.4651903288156619e-32
230
1
0
CIRCLE
5
176
100
AcDbEntity
8
0
100
AcDbCircle
10
-33.396731177709853
20
6.442397550971223
30
0
40
1
210
0
220
-0
230
1
0
CIRCLE
5
177
100
AcDbEntity
8
0
100
AcDbCircle
10
-33.087559902980168
20
3.8302226400818702
30
0
40
0.99999999999999978
210
0
220
-2.4651903288156619e-32
230
1
0
CIRCLE
5
178
100
AcDbEntity
8
0
100
AcDbCircle
10
-31.8603937706445
20
19.422846762838553
30
0
40
1.0000000000000009
210
0
220
-2.4651903288156619e-32
230
1
0
CIRCLE
5
179
100
AcDbEntity
8
0
100
AcDbCircle
10
7.8204198057061696
20
41.645170115738395
30
0
40
1.0000000000000009
210
0
220
-2.4651903288156619e-32
230
1
0
CIRCLE
5
180
100
AcDbEntity
8
0
100
AcDbCircle
10
1.2325951644078309e-31
20
9.0707772970199603
30
0
40
35.000000000000007
210
0
220
-0
230
1
0
LWPOLYLINE
5
181
100
AcDbEntity
8
0
100
AcDbPolyline
90
4
70
1
43
0.0
10
-9.9999998956918734
20
12.000000178813934
10
-9.9999998956918734
20
6.0000000894069672
10
-6.9999998509883898
20
6.0000000894069672
10
-6.9999998509883898
20
12.000000178813934
0
LWPOLYLINE
5
182
100
AcDbEntity
8
0
100
AcDbPolyline
90
4
70
1
43
0.0
10
3.0000000000000018
20
-0.9292227029800415
10
3.0000000000000018
20
2.0707772970199567
10
-2.9999999999999991
20
2.0707772970199567
10
-2.9999999999999991
20
-0.92922270298004161
0
LWPOLYLINE
5
183
100
AcDbEntity
8
0
100
AcDbPolyline
90
4
70
1
43
0.0
10
-2.9999999999999991
20
16.070777297019958
10
3.0000000000000018
20
16.070777297019958
10
3.0000000000000018
20
19.070777297019958
10
-2.9999999999999991
20
19.070777297019958
0
LWPOLYLINE
5
184
100
AcDbEntity
8
0
100
AcDbPolyline
90
4
70
1
43
0.0
10
10.000000149011612
20
6.0000000894069672
10
10.000000149011612
20
12.000000178813934
10
7.0000001043081284
20
12.000000178813934
10
7.0000001043081284
20
6.0000000894069672
0
LWPOLYLINE
5
185
100
AcDbEntity
8
0
100
AcDbPolyline
90
6
70
1
43
0.0
10
-6.6613381477509392e-15
20
13.618802287627467
10
-4.0000000000000036
20
11.309401210868959
10
-3.9999999999999982
20
6.6905990573519496
10
7.7715611723760958e-15
20
4.3811979805934529
10
4.0000000000000044
20
6.6905990573519638
10
3.9999999999999969
20
11.30940121086897
0
ENDSEC
0
SECTION
2
OBJECTS
0
DICTIONARY
5
C
100
AcDbDictionary
3
ACAD_GROUP
350
D
3
ACAD_MLINESTYLE
350
17
0
DICTIONARY
5
D
100
AcDbDictionary
0
DICTIONARY
5
1A
330
C
100
AcDbDictionary
0
DICTIONARY
5
17
100
AcDbDictionary
0
ENDSEC
0
EOF
