<?xml version="1.0" encoding="UTF-8" standalone="no"?>
<!-- Created with Inkscape (http://www.inkscape.org/) -->

<svg
   width="70.26458mm"
   height="70.264549mm"
   viewBox="0 0 70.26458 70.264549"
   version="1.1"
   id="svg561"
   inkscape:version="1.1.2 (b8e25be833, 2022-02-05)"
   sodipodi:docname="rotatorLeft.svg"
   xmlns:inkscape="http://www.inkscape.org/namespaces/inkscape"
   xmlns:sodipodi="http://sodipodi.sourceforge.net/DTD/sodipodi-0.dtd"
   xmlns="http://www.w3.org/2000/svg"
   xmlns:svg="http://www.w3.org/2000/svg">
  <sodipodi:namedview
     id="namedview563"
     pagecolor="#ffffff"
     bordercolor="#666666"
     borderopacity="1.0"
     inkscape:pageshadow="2"
     inkscape:pageopacity="0.0"
     inkscape:pagecheckerboard="0"
     inkscape:document-units="mm"
     showgrid="false"
     fit-margin-top="0"
     fit-margin-left="0"
     fit-margin-right="0"
     fit-margin-bottom="0"
     inkscape:zoom="1.4805976"
     inkscape:cx="82.73686"
     inkscape:cy="98.608829"
     inkscape:window-width="1920"
     inkscape:window-height="1017"
     inkscape:window-x="-8"
     inkscape:window-y="-8"
     inkscape:window-maximized="1"
     inkscape:current-layer="layer1" />
  <defs
     id="defs558">
    <marker
       id="DistanceX"
       orient="auto"
       refX="0"
       refY="0"
       style="overflow:visible">
      <path
         d="M 3,-3 -3,3 M 0,-5 V 5"
         style="stroke:#000000;stroke-width:0.5"
         id="path567" />
    </marker>
    <pattern
       id="Hatch"
       patternUnits="userSpaceOnUse"
       width="8"
       height="8"
       x="0"
       y="0">
      <path
         d="M8 4 l-4,4"
         stroke="#000000"
         stroke-width="0.25"
         linecap="square"
         id="path570" />
      <path
         d="M6 2 l-4,4"
         stroke="#000000"
         stroke-width="0.25"
         linecap="square"
         id="path572" />
      <path
         d="M4 0 l-4,4"
         stroke="#000000"
         stroke-width="0.25"
         linecap="square"
         id="path574" />
    </pattern>
    <symbol
       id="*MODEL_SPACE" />
    <symbol
       id="*PAPER_SPACE" />
  </defs>
  <g
     inkscape:label="Layer 1"
     inkscape:groupmode="layer"
     id="layer1"
     transform="translate(-21.337024,-120.33704)">
    <g
       inkscape:label="0"
       id="g755"
       transform="matrix(0.26458333,0,0,0.26458333,56.469314,-132.4599)"
       style="stroke:#ff0000">
      <path
         d="m 13.228346,1188.6614 a 13.228346,13.228346 0 1 0 -26.456692,0 13.228346,13.228346 0 1 0 26.456692,0 z"
         style="fill:none;stroke:#ff0000"
         id="path581" />
      <path
         d="m 7.558275,1094.1743 v -11.3407 a 9.448819,9.448819 0 1 0 0,11.3407 z"
         style="fill:none;stroke:#ff0000"
         id="path583" />
      <path
         d="m 128.83487,1068.4296 a 3.779528,3.779528 0 1 0 -7.55905,0 3.779528,3.779528 0 1 0 7.55905,0 z"
         style="fill:none;stroke:#ff0000"
         id="path585" />
      <path
         d="m 126.89534,1058.6789 a 3.779528,3.779528 0 1 0 -7.55905,0 3.779528,3.779528 0 1 0 7.55905,0 z"
         style="fill:none;stroke:#ff0000"
         id="path587" />
      <path
         d="m -35.346404,967.8192 a 3.779528,3.779528 0 1 0 -7.559055,0 3.779528,3.779528 0 1 0 7.559055,0 z"
         style="fill:none;stroke:#ff0000"
         id="path589" />
      <path
         d="m -16.027293,963.18109 a 3.779528,3.779528 0 1 0 -7.559055,0 3.779528,3.779528 0 1 0 7.559055,0 z"
         style="fill:none;stroke:#ff0000"
         id="path591" />
      <path
         d="m -109.03453,1145.7181 a 3.779528,3.779528 0 1 0 -7.55905,0 3.779528,3.779528 0 1 0 7.55905,0 z"
         style="fill:none;stroke:#ff0000"
         id="path593" />
      <path
         d="m -98.653492,1162.6584 a 3.779529,3.779529 0 1 0 -7.559058,0 3.779529,3.779529 0 1 0 7.559058,0 z"
         style="fill:none;stroke:#ff0000"
         id="path595" />
      <path
         d="m -116.63771,1127.3624 a 3.779528,3.779528 0 1 0 -7.55905,0 3.779528,3.779528 0 1 0 7.55905,0 z"
         style="fill:none;stroke:#ff0000"
         id="path597" />
      <path
         d="m -44.67362,1205.2127 a 3.779528,3.779528 0 1 0 -7.559055,0 3.779528,3.779528 0 1 0 7.559055,0 z"
         style="fill:none;stroke:#ff0000"
         id="path599" />
      <path
         d="m 111.73586,1022.0807 a 3.77953,3.77953 0 1 0 -7.55906,0 3.77953,3.77953 0 1 0 7.55906,0 z"
         style="fill:none;stroke:#ff0000"
         id="path601" />
      <path
         d="m 78.201472,1190.6695 a 3.779528,3.779528 0 1 0 -7.559055,0 3.779528,3.779528 0 1 0 7.559055,0 z"
         style="fill:none;stroke:#ff0000"
         id="path603" />
      <path
         d="m -16.027293,1213.2918 a 3.779528,3.779528 0 1 0 -7.559055,0 3.779528,3.779528 0 1 0 7.559055,0 z"
         style="fill:none;stroke:#ff0000"
         id="path605" />
      <path
         d="m 86.008856,1184.5146 a 3.779528,3.779528 0 1 0 -7.559055,0 3.779528,3.779528 0 1 0 7.559055,0 z"
         style="fill:none;stroke:#ff0000"
         id="path607" />
      <path
         d="m 52.232675,971.26019 a 3.779528,3.779528 0 1 0 -7.559055,0 3.779528,3.779528 0 1 0 7.559055,0 z"
         style="fill:none;stroke:#ff0000"
         id="path609" />
      <path
         d="m 100.0577,1006.0071 a 3.779528,3.779528 0 1 0 -7.559053,0 3.779528,3.779528 0 1 0 7.559053,0 z"
         style="fill:none;stroke:#ff0000"
         id="path611" />
      <path
         d="m 23.586348,963.18109 a 3.779528,3.779528 0 1 0 -7.559055,0 3.779528,3.779528 0 1 0 7.559055,0 z"
         style="fill:none;stroke:#ff0000"
         id="path613" />
      <path
         d="m -62.376197,980.2801 a 3.779528,3.779528 0 1 0 -7.559055,0 3.779528,3.779528 0 1 0 7.559055,0 z"
         style="fill:none;stroke:#ff0000"
         id="path615" />
      <path
         d="m 78.201472,985.80341 a 3.779528,3.779528 0 1 0 -7.559055,0 3.779528,3.779528 0 1 0 7.559055,0 z"
         style="fill:none;stroke:#ff0000"
         id="path617" />
      <path
         d="m 69.935252,1196.1928 a 3.779528,3.779528 0 1 0 -7.559055,0 3.779528,3.779528 0 1 0 7.559055,0 z"
         style="fill:none;stroke:#ff0000"
         id="path619" />
      <path
         d="m -78.449801,991.95826 a 3.779528,3.779528 0 1 0 -7.559055,0 3.779528,3.779528 0 1 0 7.559055,0 z"
         style="fill:none;stroke:#ff0000"
         id="path621" />
      <path
         d="m 116.59358,1145.7181 a 3.779528,3.779528 0 1 0 -7.55905,0 3.779528,3.779528 0 1 0 7.55905,0 z"
         style="fill:none;stroke:#ff0000"
         id="path623" />
      <path
         d="m -62.376197,1196.1928 a 3.779528,3.779528 0 1 0 -7.559055,0 3.779528,3.779528 0 1 0 7.559055,0 z"
         style="fill:none;stroke:#ff0000"
         id="path625" />
      <path
         d="m 3.779528,1214.8506 a 3.779528,3.779528 0 1 0 -7.559056,0 3.779528,3.779528 0 1 0 7.559056,0 z"
         style="fill:none;stroke:#ff0000"
         id="path627" />
      <path
         d="m -70.642417,1190.6695 a 3.779528,3.779528 0 1 0 -7.559055,0 3.779528,3.779528 0 1 0 7.559055,0 z"
         style="fill:none;stroke:#ff0000"
         id="path629" />
      <path
         d="m 61.26116,1201.0505 a 3.779528,3.779528 0 1 0 -7.559055,0 3.779528,3.779528 0 1 0 7.559055,0 z"
         style="fill:none;stroke:#ff0000"
         id="path631" />
      <path
         d="m -53.702105,975.42238 a 3.779528,3.779528 0 1 0 -7.559055,0 3.779528,3.779528 0 1 0 7.559055,0 z"
         style="fill:none;stroke:#ff0000"
         id="path633" />
      <path
         d="m 69.935252,980.2801 a 3.779528,3.779528 0 1 0 -7.559055,0 3.779528,3.779528 0 1 0 7.559055,0 z"
         style="fill:none;stroke:#ff0000"
         id="path635" />
      <path
         d="m -109.03453,1030.7548 a 3.779528,3.779528 0 1 0 -7.55905,0 3.779528,3.779528 0 1 0 7.55905,0 z"
         style="fill:none;stroke:#ff0000"
         id="path637" />
      <path
         d="m 33.33702,1211.3522 a 3.779528,3.779528 0 1 0 -7.559055,0 3.779528,3.779528 0 1 0 7.559055,0 z"
         style="fill:none;stroke:#ff0000"
         id="path639" />
      <path
         d="m -121.27582,1068.4296 a 3.779528,3.779528 0 1 0 -7.55905,0 3.779528,3.779528 0 1 0 7.55905,0 z"
         style="fill:none;stroke:#ff0000"
         id="path641" />
      <path
         d="m 93.309269,1177.7662 a 3.779528,3.779528 0 1 0 -7.559055,0 3.779528,3.779528 0 1 0 7.559055,0 z"
         style="fill:none;stroke:#ff0000"
         id="path643" />
      <path
         d="m 33.33702,965.12062 a 3.779528,3.779528 0 1 0 -7.559055,0 3.779528,3.779528 0 1 0 7.559055,0 z"
         style="fill:none;stroke:#ff0000"
         id="path645" />
      <path
         d="m 52.232675,1205.2127 a 3.779528,3.779528 0 1 0 -7.559055,0 3.779528,3.779528 0 1 0 7.559055,0 z"
         style="fill:none;stroke:#ff0000"
         id="path647" />
      <path
         d="m -53.702105,1201.0505 a 3.779528,3.779528 0 1 0 -7.559055,0 3.779528,3.779528 0 1 0 7.559055,0 z"
         style="fill:none;stroke:#ff0000"
         id="path649" />
      <path
         d="m -85.750214,1177.7662 a 3.779528,3.779528 0 1 0 -7.559055,0 3.779528,3.779528 0 1 0 7.559055,0 z"
         style="fill:none;stroke:#ff0000"
         id="path651" />
      <path
         d="m -122.44434,1098.1705 a 3.779528,3.779528 0 1 0 -7.55905,0 3.779528,3.779528 0 1 0 7.55905,0 z"
         style="fill:none;stroke:#ff0000"
         id="path653" />
      <path
         d="m -113.19672,1136.6896 a 3.779528,3.779528 0 1 0 -7.55905,0 3.779528,3.779528 0 1 0 7.55905,0 z"
         style="fill:none;stroke:#ff0000"
         id="path655" />
      <path
         d="m 120.75577,1039.7833 a 3.779528,3.779528 0 1 0 -7.55905,0 3.779528,3.779528 0 1 0 7.55905,0 z"
         style="fill:none;stroke:#ff0000"
         id="path657" />
      <path
         d="m 3.779528,961.62226 a 3.779528,3.779528 0 1 0 -7.559056,0 3.779528,3.779528 0 1 0 7.559056,0 z"
         style="fill:none;stroke:#ff0000"
         id="path659" />
      <path
         d="m 126.89534,1117.7939 a 3.779528,3.779528 0 1 0 -7.55905,0 3.779528,3.779528 0 1 0 7.55905,0 z"
         style="fill:none;stroke:#ff0000"
         id="path661" />
      <path
         d="m 130.3937,1088.2364 a 3.779528,3.779528 0 1 0 -7.55905,0 3.779528,3.779528 0 1 0 7.55905,0 z"
         style="fill:none;stroke:#ff0000"
         id="path663" />
      <path
         d="m 120.75577,1136.6896 a 3.779528,3.779528 0 1 0 -7.55905,0 3.779528,3.779528 0 1 0 7.55905,0 z"
         style="fill:none;stroke:#ff0000"
         id="path665" />
      <path
         d="m -6.154506,962.01257 a 3.779528,3.779528 0 1 0 -7.559055,0 3.779528,3.779528 0 1 0 7.559055,0 z"
         style="fill:none;stroke:#ff0000"
         id="path667" />
      <path
         d="m 124.19676,1127.3624 a 3.779528,3.779528 0 1 0 -7.55905,0 3.779528,3.779528 0 1 0 7.55905,0 z"
         style="fill:none;stroke:#ff0000"
         id="path669" />
      <path
         d="m 130.00339,1078.3024 a 3.779528,3.779528 0 1 0 -7.55905,0 3.779528,3.779528 0 1 0 7.55905,0 z"
         style="fill:none;stroke:#ff0000"
         id="path671" />
      <path
         d="m -104.1768,1154.3922 a 3.77953,3.77953 0 1 0 -7.55906,0 3.77953,3.77953 0 1 0 7.55906,0 z"
         style="fill:none;stroke:#ff0000"
         id="path673" />
      <path
         d="m -121.27582,1108.0433 a 3.779528,3.779528 0 1 0 -7.55905,0 3.779528,3.779528 0 1 0 7.55905,0 z"
         style="fill:none;stroke:#ff0000"
         id="path675" />
      <path
         d="m -119.33629,1058.6789 a 3.779528,3.779528 0 1 0 -7.55905,0 3.779528,3.779528 0 1 0 7.55905,0 z"
         style="fill:none;stroke:#ff0000"
         id="path677" />
      <path
         d="m -35.346404,1208.6537 a 3.779528,3.779528 0 1 0 -7.559055,0 3.779528,3.779528 0 1 0 7.559055,0 z"
         style="fill:none;stroke:#ff0000"
         id="path679" />
      <path
         d="m -25.777965,1211.3522 a 3.779528,3.779528 0 1 0 -7.559055,0 3.779528,3.779528 0 1 0 7.559055,0 z"
         style="fill:none;stroke:#ff0000"
         id="path681" />
      <path
         d="m -98.653492,1013.8145 a 3.779529,3.779529 0 1 0 -7.559058,0 3.779529,3.779529 0 1 0 7.559058,0 z"
         style="fill:none;stroke:#ff0000"
         id="path683" />
      <path
         d="m -122.83465,1088.2364 a 3.779528,3.779528 0 1 0 -7.55905,0 3.779528,3.779528 0 1 0 7.55905,0 z"
         style="fill:none;stroke:#ff0000"
         id="path685" />
      <path
         d="m 13.713561,1214.4603 a 3.779528,3.779528 0 1 0 -7.559055,0 3.779528,3.779528 0 1 0 7.559055,0 z"
         style="fill:none;stroke:#ff0000"
         id="path687" />
      <path
         d="m -92.498647,1006.0071 a 3.779528,3.779528 0 1 0 -7.559053,0 3.779528,3.779528 0 1 0 7.559053,0 z"
         style="fill:none;stroke:#ff0000"
         id="path689" />
      <path
         d="m 61.26116,975.42238 a 3.779528,3.779528 0 1 0 -7.559055,0 3.779528,3.779528 0 1 0 7.559055,0 z"
         style="fill:none;stroke:#ff0000"
         id="path691" />
      <path
         d="m 42.905459,967.8192 a 3.779528,3.779528 0 1 0 -7.559055,0 3.779528,3.779528 0 1 0 7.559055,0 z"
         style="fill:none;stroke:#ff0000"
         id="path693" />
      <path
         d="m -44.67362,971.26019 a 3.779528,3.779528 0 1 0 -7.559055,0 3.779528,3.779528 0 1 0 7.559055,0 z"
         style="fill:none;stroke:#ff0000"
         id="path695" />
      <path
         d="m -122.44434,1078.3024 a 3.779528,3.779528 0 1 0 -7.55905,0 3.779528,3.779528 0 1 0 7.55905,0 z"
         style="fill:none;stroke:#ff0000"
         id="path697" />
      <path
         d="m -85.750214,998.70669 a 3.779528,3.779528 0 1 0 -7.559055,0 3.779528,3.779528 0 1 0 7.559055,0 z"
         style="fill:none;stroke:#ff0000"
         id="path699" />
      <path
         d="m -113.19672,1039.7833 a 3.779528,3.779528 0 1 0 -7.55905,0 3.779528,3.779528 0 1 0 7.55905,0 z"
         style="fill:none;stroke:#ff0000"
         id="path701" />
      <path
         d="m 116.59358,1030.7548 a 3.779528,3.779528 0 1 0 -7.55905,0 3.779528,3.779528 0 1 0 7.55905,0 z"
         style="fill:none;stroke:#ff0000"
         id="path703" />
      <path
         d="m 42.905459,1208.6537 a 3.779528,3.779528 0 1 0 -7.559055,0 3.779528,3.779528 0 1 0 7.559055,0 z"
         style="fill:none;stroke:#ff0000"
         id="path705" />
      <path
         d="m 100.0577,1170.4658 a 3.779528,3.779528 0 1 0 -7.559053,0 3.779528,3.779528 0 1 0 7.559053,0 z"
         style="fill:none;stroke:#ff0000"
         id="path707" />
      <path
         d="m 106.21255,1162.6584 a 3.779529,3.779529 0 1 0 -7.559058,0 3.779529,3.779529 0 1 0 7.559058,0 z"
         style="fill:none;stroke:#ff0000"
         id="path709" />
      <path
         d="m -104.1768,1022.0807 a 3.77953,3.77953 0 1 0 -7.55906,0 3.77953,3.77953 0 1 0 7.55906,0 z"
         style="fill:none;stroke:#ff0000"
         id="path711" />
      <path
         d="m 106.21255,1013.8145 a 3.779529,3.779529 0 1 0 -7.559058,0 3.779529,3.779529 0 1 0 7.559058,0 z"
         style="fill:none;stroke:#ff0000"
         id="path713" />
      <path
         d="m 111.73586,1154.3922 a 3.77953,3.77953 0 1 0 -7.55906,0 3.77953,3.77953 0 1 0 7.55906,0 z"
         style="fill:none;stroke:#ff0000"
         id="path715" />
      <path
         d="m 93.309269,998.70669 a 3.779528,3.779528 0 1 0 -7.559055,0 3.779528,3.779528 0 1 0 7.559055,0 z"
         style="fill:none;stroke:#ff0000"
         id="path717" />
      <path
         d="m 23.586348,1213.2918 a 3.779528,3.779528 0 1 0 -7.559055,0 3.779528,3.779528 0 1 0 7.559055,0 z"
         style="fill:none;stroke:#ff0000"
         id="path719" />
      <path
         d="m -6.154506,1214.4603 a 3.779528,3.779528 0 1 0 -7.559055,0 3.779528,3.779528 0 1 0 7.559055,0 z"
         style="fill:none;stroke:#ff0000"
         id="path721" />
      <path
         d="m 86.008856,991.95826 a 3.779528,3.779528 0 1 0 -7.559055,0 3.779528,3.779528 0 1 0 7.559055,0 z"
         style="fill:none;stroke:#ff0000"
         id="path723" />
      <path
         d="m -116.63771,1049.1105 a 3.779528,3.779528 0 1 0 -7.55905,0 3.779528,3.779528 0 1 0 7.55905,0 z"
         style="fill:none;stroke:#ff0000"
         id="path725" />
      <path
         d="m 13.713561,962.01257 a 3.779528,3.779528 0 1 0 -7.559055,0 3.779528,3.779528 0 1 0 7.559055,0 z"
         style="fill:none;stroke:#ff0000"
         id="path727" />
      <path
         d="m -70.642417,985.80341 a 3.779528,3.779528 0 1 0 -7.559055,0 3.779528,3.779528 0 1 0 7.559055,0 z"
         style="fill:none;stroke:#ff0000"
         id="path729" />
      <path
         d="m -119.33629,1117.7939 a 3.779528,3.779528 0 1 0 -7.55905,0 3.779528,3.779528 0 1 0 7.55905,0 z"
         style="fill:none;stroke:#ff0000"
         id="path731" />
      <path
         d="m -92.498647,1170.4658 a 3.779528,3.779528 0 1 0 -7.559053,0 3.779528,3.779528 0 1 0 7.559053,0 z"
         style="fill:none;stroke:#ff0000"
         id="path733" />
      <path
         d="m -78.449801,1184.5146 a 3.779528,3.779528 0 1 0 -7.559055,0 3.779528,3.779528 0 1 0 7.559055,0 z"
         style="fill:none;stroke:#ff0000"
         id="path735" />
      <path
         d="m 130.00339,1098.1705 a 3.779528,3.779528 0 1 0 -7.55905,0 3.779528,3.779528 0 1 0 7.55905,0 z"
         style="fill:none;stroke:#ff0000"
         id="path737" />
      <path
         d="m 128.83487,1108.0433 a 3.779528,3.779528 0 1 0 -7.55905,0 3.779528,3.779528 0 1 0 7.55905,0 z"
         style="fill:none;stroke:#ff0000"
         id="path739" />
      <path
         d="m 124.19676,1049.1105 a 3.779528,3.779528 0 1 0 -7.55905,0 3.779528,3.779528 0 1 0 7.55905,0 z"
         style="fill:none;stroke:#ff0000"
         id="path741" />
      <path
         d="m -25.777965,965.12062 a 3.779528,3.779528 0 1 0 -7.559055,0 3.779528,3.779528 0 1 0 7.559055,0 z"
         style="fill:none;stroke:#ff0000"
         id="path743" />
      <path
         d="m 132.28346,1088.2364 a 132.28346,132.28346 0 1 0 -264.56692,0 132.28346,132.28346 0 1 0 264.56692,0 z"
         style="fill:none;stroke:#ff0000"
         id="path745" />
      <path
         d="m 37.795275,1099.8425 v -22.6771 H 26.456692 v 22.6771 z"
         style="fill:none;stroke:#ff0000"
         id="path747" />
      <path
         d="m -11.338583,1114.6931 v 11.3386 h 22.677166 v -11.3386 z"
         style="fill:none;stroke:#ff0000"
         id="path749" />
      <path
         d="m -11.338583,1061.7797 h 22.677166 v -11.3385 h -22.677166 z"
         style="fill:none;stroke:#ff0000"
         id="path751" />
      <path
         d="m -37.795276,1077.1654 v 22.6771 h 11.338583 v -22.6771 z"
         style="fill:none;stroke:#ff0000"
         id="path753" />
    </g>
  </g>
</svg>
