G04 #@! TF.GenerationSoftware,KiCad,Pcbnew,(5.1.9)-1*
G04 #@! TF.CreationDate,2022-06-25T15:55:54-04:00*
G04 #@! TF.ProjectId,TarotMachine,5461726f-744d-4616-9368-696e652e6b69,rev?*
G04 #@! TF.SameCoordinates,Original*
G04 #@! TF.FileFunction,Copper,L1,Top*
G04 #@! TF.FilePolarity,Positive*
%FSLAX46Y46*%
G04 Gerber Fmt 4.6, Leading zero omitted, Abs format (unit mm)*
G04 Created by KiCad (PCBNEW (5.1.9)-1) date 2022-06-25 15:55:54*
%MOMM*%
%LPD*%
G01*
G04 APERTURE LIST*
G04 #@! TA.AperFunction,ComponentPad*
%ADD10O,1.700000X1.700000*%
G04 #@! TD*
G04 #@! TA.AperFunction,ComponentPad*
%ADD11R,1.700000X1.700000*%
G04 #@! TD*
G04 #@! TA.AperFunction,ComponentPad*
%ADD12R,1.600000X1.600000*%
G04 #@! TD*
G04 #@! TA.AperFunction,ComponentPad*
%ADD13O,1.600000X1.600000*%
G04 #@! TD*
G04 #@! TA.AperFunction,ViaPad*
%ADD14C,1.500000*%
G04 #@! TD*
G04 #@! TA.AperFunction,Conductor*
%ADD15C,0.500000*%
G04 #@! TD*
G04 #@! TA.AperFunction,Conductor*
%ADD16C,1.000000*%
G04 #@! TD*
G04 APERTURE END LIST*
D10*
X92450000Y-48390000D03*
X89910000Y-48390000D03*
X87370000Y-48390000D03*
X84830000Y-48390000D03*
X82290000Y-48390000D03*
X79750000Y-48390000D03*
X77210000Y-48390000D03*
X74670000Y-48390000D03*
X72130000Y-48390000D03*
X69590000Y-48390000D03*
X67050000Y-48390000D03*
X64510000Y-48390000D03*
X61970000Y-48390000D03*
X59430000Y-48390000D03*
X56890000Y-48390000D03*
D11*
X54350000Y-48390000D03*
D10*
X64510000Y-28070000D03*
X67050000Y-28070000D03*
X69590000Y-28070000D03*
X72130000Y-28070000D03*
X74670000Y-28070000D03*
X77210000Y-28070000D03*
X79750000Y-28070000D03*
X82290000Y-28070000D03*
X84830000Y-28070000D03*
X87370000Y-28070000D03*
X89910000Y-28070000D03*
D11*
X92450000Y-28070000D03*
D12*
X28500000Y-4500000D03*
D13*
X41200000Y-22280000D03*
X28500000Y-7040000D03*
X41200000Y-19740000D03*
X28500000Y-9580000D03*
X41200000Y-17200000D03*
X28500000Y-12120000D03*
X41200000Y-14660000D03*
X28500000Y-14660000D03*
X41200000Y-12120000D03*
X28500000Y-17200000D03*
X41200000Y-9580000D03*
X28500000Y-19740000D03*
X41200000Y-7040000D03*
X28500000Y-22280000D03*
X41200000Y-4500000D03*
G04 #@! TA.AperFunction,SMDPad,CuDef*
G36*
G01*
X29050000Y-44050000D02*
X27950000Y-44050000D01*
G75*
G02*
X27700000Y-43800000I0J250000D01*
G01*
X27700000Y-40800000D01*
G75*
G02*
X27950000Y-40550000I250000J0D01*
G01*
X29050000Y-40550000D01*
G75*
G02*
X29300000Y-40800000I0J-250000D01*
G01*
X29300000Y-43800000D01*
G75*
G02*
X29050000Y-44050000I-250000J0D01*
G01*
G37*
G04 #@! TD.AperFunction*
G04 #@! TA.AperFunction,SMDPad,CuDef*
G36*
G01*
X29050000Y-38450000D02*
X27950000Y-38450000D01*
G75*
G02*
X27700000Y-38200000I0J250000D01*
G01*
X27700000Y-35200000D01*
G75*
G02*
X27950000Y-34950000I250000J0D01*
G01*
X29050000Y-34950000D01*
G75*
G02*
X29300000Y-35200000I0J-250000D01*
G01*
X29300000Y-38200000D01*
G75*
G02*
X29050000Y-38450000I-250000J0D01*
G01*
G37*
G04 #@! TD.AperFunction*
G04 #@! TA.AperFunction,SMDPad,CuDef*
G36*
G01*
X68100000Y-62000000D02*
X68100000Y-59500000D01*
G75*
G02*
X68350000Y-59250000I250000J0D01*
G01*
X69450000Y-59250000D01*
G75*
G02*
X69700000Y-59500000I0J-250000D01*
G01*
X69700000Y-62000000D01*
G75*
G02*
X69450000Y-62250000I-250000J0D01*
G01*
X68350000Y-62250000D01*
G75*
G02*
X68100000Y-62000000I0J250000D01*
G01*
G37*
G04 #@! TD.AperFunction*
G04 #@! TA.AperFunction,SMDPad,CuDef*
G36*
G01*
X59300000Y-62000000D02*
X59300000Y-59500000D01*
G75*
G02*
X59550000Y-59250000I250000J0D01*
G01*
X60650000Y-59250000D01*
G75*
G02*
X60900000Y-59500000I0J-250000D01*
G01*
X60900000Y-62000000D01*
G75*
G02*
X60650000Y-62250000I-250000J0D01*
G01*
X59550000Y-62250000D01*
G75*
G02*
X59300000Y-62000000I0J250000D01*
G01*
G37*
G04 #@! TD.AperFunction*
G04 #@! TA.AperFunction,SMDPad,CuDef*
G36*
G01*
X66000000Y-65500000D02*
X66000000Y-60500000D01*
G75*
G02*
X66250000Y-60250000I250000J0D01*
G01*
X66750000Y-60250000D01*
G75*
G02*
X67000000Y-60500000I0J-250000D01*
G01*
X67000000Y-65500000D01*
G75*
G02*
X66750000Y-65750000I-250000J0D01*
G01*
X66250000Y-65750000D01*
G75*
G02*
X66000000Y-65500000I0J250000D01*
G01*
G37*
G04 #@! TD.AperFunction*
G04 #@! TA.AperFunction,SMDPad,CuDef*
G36*
G01*
X64000000Y-65500000D02*
X64000000Y-60500000D01*
G75*
G02*
X64250000Y-60250000I250000J0D01*
G01*
X64750000Y-60250000D01*
G75*
G02*
X65000000Y-60500000I0J-250000D01*
G01*
X65000000Y-65500000D01*
G75*
G02*
X64750000Y-65750000I-250000J0D01*
G01*
X64250000Y-65750000D01*
G75*
G02*
X64000000Y-65500000I0J250000D01*
G01*
G37*
G04 #@! TD.AperFunction*
G04 #@! TA.AperFunction,SMDPad,CuDef*
G36*
G01*
X62000000Y-65500000D02*
X62000000Y-60500000D01*
G75*
G02*
X62250000Y-60250000I250000J0D01*
G01*
X62750000Y-60250000D01*
G75*
G02*
X63000000Y-60500000I0J-250000D01*
G01*
X63000000Y-65500000D01*
G75*
G02*
X62750000Y-65750000I-250000J0D01*
G01*
X62250000Y-65750000D01*
G75*
G02*
X62000000Y-65500000I0J250000D01*
G01*
G37*
G04 #@! TD.AperFunction*
G04 #@! TA.AperFunction,SMDPad,CuDef*
G36*
G01*
X66000000Y-13500000D02*
X66000000Y-8500000D01*
G75*
G02*
X66250000Y-8250000I250000J0D01*
G01*
X66750000Y-8250000D01*
G75*
G02*
X67000000Y-8500000I0J-250000D01*
G01*
X67000000Y-13500000D01*
G75*
G02*
X66750000Y-13750000I-250000J0D01*
G01*
X66250000Y-13750000D01*
G75*
G02*
X66000000Y-13500000I0J250000D01*
G01*
G37*
G04 #@! TD.AperFunction*
G04 #@! TA.AperFunction,SMDPad,CuDef*
G36*
G01*
X68000000Y-13500000D02*
X68000000Y-8500000D01*
G75*
G02*
X68250000Y-8250000I250000J0D01*
G01*
X68750000Y-8250000D01*
G75*
G02*
X69000000Y-8500000I0J-250000D01*
G01*
X69000000Y-13500000D01*
G75*
G02*
X68750000Y-13750000I-250000J0D01*
G01*
X68250000Y-13750000D01*
G75*
G02*
X68000000Y-13500000I0J250000D01*
G01*
G37*
G04 #@! TD.AperFunction*
G04 #@! TA.AperFunction,SMDPad,CuDef*
G36*
G01*
X70000000Y-13500000D02*
X70000000Y-8500000D01*
G75*
G02*
X70250000Y-8250000I250000J0D01*
G01*
X70750000Y-8250000D01*
G75*
G02*
X71000000Y-8500000I0J-250000D01*
G01*
X71000000Y-13500000D01*
G75*
G02*
X70750000Y-13750000I-250000J0D01*
G01*
X70250000Y-13750000D01*
G75*
G02*
X70000000Y-13500000I0J250000D01*
G01*
G37*
G04 #@! TD.AperFunction*
G04 #@! TA.AperFunction,SMDPad,CuDef*
G36*
G01*
X63300000Y-10000000D02*
X63300000Y-7500000D01*
G75*
G02*
X63550000Y-7250000I250000J0D01*
G01*
X64650000Y-7250000D01*
G75*
G02*
X64900000Y-7500000I0J-250000D01*
G01*
X64900000Y-10000000D01*
G75*
G02*
X64650000Y-10250000I-250000J0D01*
G01*
X63550000Y-10250000D01*
G75*
G02*
X63300000Y-10000000I0J250000D01*
G01*
G37*
G04 #@! TD.AperFunction*
G04 #@! TA.AperFunction,SMDPad,CuDef*
G36*
G01*
X72100000Y-10000000D02*
X72100000Y-7500000D01*
G75*
G02*
X72350000Y-7250000I250000J0D01*
G01*
X73450000Y-7250000D01*
G75*
G02*
X73700000Y-7500000I0J-250000D01*
G01*
X73700000Y-10000000D01*
G75*
G02*
X73450000Y-10250000I-250000J0D01*
G01*
X72350000Y-10250000D01*
G75*
G02*
X72100000Y-10000000I0J250000D01*
G01*
G37*
G04 #@! TD.AperFunction*
G04 #@! TA.AperFunction,SMDPad,CuDef*
G36*
G01*
X16500000Y-35900000D02*
X14000000Y-35900000D01*
G75*
G02*
X13750000Y-35650000I0J250000D01*
G01*
X13750000Y-34550000D01*
G75*
G02*
X14000000Y-34300000I250000J0D01*
G01*
X16500000Y-34300000D01*
G75*
G02*
X16750000Y-34550000I0J-250000D01*
G01*
X16750000Y-35650000D01*
G75*
G02*
X16500000Y-35900000I-250000J0D01*
G01*
G37*
G04 #@! TD.AperFunction*
G04 #@! TA.AperFunction,SMDPad,CuDef*
G36*
G01*
X16500000Y-44700000D02*
X14000000Y-44700000D01*
G75*
G02*
X13750000Y-44450000I0J250000D01*
G01*
X13750000Y-43350000D01*
G75*
G02*
X14000000Y-43100000I250000J0D01*
G01*
X16500000Y-43100000D01*
G75*
G02*
X16750000Y-43350000I0J-250000D01*
G01*
X16750000Y-44450000D01*
G75*
G02*
X16500000Y-44700000I-250000J0D01*
G01*
G37*
G04 #@! TD.AperFunction*
G04 #@! TA.AperFunction,SMDPad,CuDef*
G36*
G01*
X20000000Y-38000000D02*
X15000000Y-38000000D01*
G75*
G02*
X14750000Y-37750000I0J250000D01*
G01*
X14750000Y-37250000D01*
G75*
G02*
X15000000Y-37000000I250000J0D01*
G01*
X20000000Y-37000000D01*
G75*
G02*
X20250000Y-37250000I0J-250000D01*
G01*
X20250000Y-37750000D01*
G75*
G02*
X20000000Y-38000000I-250000J0D01*
G01*
G37*
G04 #@! TD.AperFunction*
G04 #@! TA.AperFunction,SMDPad,CuDef*
G36*
G01*
X20000000Y-40000000D02*
X15000000Y-40000000D01*
G75*
G02*
X14750000Y-39750000I0J250000D01*
G01*
X14750000Y-39250000D01*
G75*
G02*
X15000000Y-39000000I250000J0D01*
G01*
X20000000Y-39000000D01*
G75*
G02*
X20250000Y-39250000I0J-250000D01*
G01*
X20250000Y-39750000D01*
G75*
G02*
X20000000Y-40000000I-250000J0D01*
G01*
G37*
G04 #@! TD.AperFunction*
G04 #@! TA.AperFunction,SMDPad,CuDef*
G36*
G01*
X20000000Y-42000000D02*
X15000000Y-42000000D01*
G75*
G02*
X14750000Y-41750000I0J250000D01*
G01*
X14750000Y-41250000D01*
G75*
G02*
X15000000Y-41000000I250000J0D01*
G01*
X20000000Y-41000000D01*
G75*
G02*
X20250000Y-41250000I0J-250000D01*
G01*
X20250000Y-41750000D01*
G75*
G02*
X20000000Y-42000000I-250000J0D01*
G01*
G37*
G04 #@! TD.AperFunction*
G04 #@! TA.AperFunction,SMDPad,CuDef*
G36*
G01*
X77500000Y-65500000D02*
X77500000Y-60500000D01*
G75*
G02*
X77750000Y-60250000I250000J0D01*
G01*
X78250000Y-60250000D01*
G75*
G02*
X78500000Y-60500000I0J-250000D01*
G01*
X78500000Y-65500000D01*
G75*
G02*
X78250000Y-65750000I-250000J0D01*
G01*
X77750000Y-65750000D01*
G75*
G02*
X77500000Y-65500000I0J250000D01*
G01*
G37*
G04 #@! TD.AperFunction*
G04 #@! TA.AperFunction,SMDPad,CuDef*
G36*
G01*
X79500000Y-65500000D02*
X79500000Y-60500000D01*
G75*
G02*
X79750000Y-60250000I250000J0D01*
G01*
X80250000Y-60250000D01*
G75*
G02*
X80500000Y-60500000I0J-250000D01*
G01*
X80500000Y-65500000D01*
G75*
G02*
X80250000Y-65750000I-250000J0D01*
G01*
X79750000Y-65750000D01*
G75*
G02*
X79500000Y-65500000I0J250000D01*
G01*
G37*
G04 #@! TD.AperFunction*
G04 #@! TA.AperFunction,SMDPad,CuDef*
G36*
G01*
X81500000Y-65500000D02*
X81500000Y-60500000D01*
G75*
G02*
X81750000Y-60250000I250000J0D01*
G01*
X82250000Y-60250000D01*
G75*
G02*
X82500000Y-60500000I0J-250000D01*
G01*
X82500000Y-65500000D01*
G75*
G02*
X82250000Y-65750000I-250000J0D01*
G01*
X81750000Y-65750000D01*
G75*
G02*
X81500000Y-65500000I0J250000D01*
G01*
G37*
G04 #@! TD.AperFunction*
G04 #@! TA.AperFunction,SMDPad,CuDef*
G36*
G01*
X83500000Y-65500000D02*
X83500000Y-60500000D01*
G75*
G02*
X83750000Y-60250000I250000J0D01*
G01*
X84250000Y-60250000D01*
G75*
G02*
X84500000Y-60500000I0J-250000D01*
G01*
X84500000Y-65500000D01*
G75*
G02*
X84250000Y-65750000I-250000J0D01*
G01*
X83750000Y-65750000D01*
G75*
G02*
X83500000Y-65500000I0J250000D01*
G01*
G37*
G04 #@! TD.AperFunction*
G04 #@! TA.AperFunction,SMDPad,CuDef*
G36*
G01*
X85500000Y-65500000D02*
X85500000Y-60500000D01*
G75*
G02*
X85750000Y-60250000I250000J0D01*
G01*
X86250000Y-60250000D01*
G75*
G02*
X86500000Y-60500000I0J-250000D01*
G01*
X86500000Y-65500000D01*
G75*
G02*
X86250000Y-65750000I-250000J0D01*
G01*
X85750000Y-65750000D01*
G75*
G02*
X85500000Y-65500000I0J250000D01*
G01*
G37*
G04 #@! TD.AperFunction*
G04 #@! TA.AperFunction,SMDPad,CuDef*
G36*
G01*
X87500000Y-65500000D02*
X87500000Y-60500000D01*
G75*
G02*
X87750000Y-60250000I250000J0D01*
G01*
X88250000Y-60250000D01*
G75*
G02*
X88500000Y-60500000I0J-250000D01*
G01*
X88500000Y-65500000D01*
G75*
G02*
X88250000Y-65750000I-250000J0D01*
G01*
X87750000Y-65750000D01*
G75*
G02*
X87500000Y-65500000I0J250000D01*
G01*
G37*
G04 #@! TD.AperFunction*
G04 #@! TA.AperFunction,SMDPad,CuDef*
G36*
G01*
X74800000Y-62000000D02*
X74800000Y-59500000D01*
G75*
G02*
X75050000Y-59250000I250000J0D01*
G01*
X76150000Y-59250000D01*
G75*
G02*
X76400000Y-59500000I0J-250000D01*
G01*
X76400000Y-62000000D01*
G75*
G02*
X76150000Y-62250000I-250000J0D01*
G01*
X75050000Y-62250000D01*
G75*
G02*
X74800000Y-62000000I0J250000D01*
G01*
G37*
G04 #@! TD.AperFunction*
G04 #@! TA.AperFunction,SMDPad,CuDef*
G36*
G01*
X89600000Y-62000000D02*
X89600000Y-59500000D01*
G75*
G02*
X89850000Y-59250000I250000J0D01*
G01*
X90950000Y-59250000D01*
G75*
G02*
X91200000Y-59500000I0J-250000D01*
G01*
X91200000Y-62000000D01*
G75*
G02*
X90950000Y-62250000I-250000J0D01*
G01*
X89850000Y-62250000D01*
G75*
G02*
X89600000Y-62000000I0J250000D01*
G01*
G37*
G04 #@! TD.AperFunction*
G04 #@! TA.AperFunction,SMDPad,CuDef*
G36*
G01*
X14500000Y-9500000D02*
X19500000Y-9500000D01*
G75*
G02*
X19750000Y-9750000I0J-250000D01*
G01*
X19750000Y-10250000D01*
G75*
G02*
X19500000Y-10500000I-250000J0D01*
G01*
X14500000Y-10500000D01*
G75*
G02*
X14250000Y-10250000I0J250000D01*
G01*
X14250000Y-9750000D01*
G75*
G02*
X14500000Y-9500000I250000J0D01*
G01*
G37*
G04 #@! TD.AperFunction*
G04 #@! TA.AperFunction,SMDPad,CuDef*
G36*
G01*
X14500000Y-11500000D02*
X19500000Y-11500000D01*
G75*
G02*
X19750000Y-11750000I0J-250000D01*
G01*
X19750000Y-12250000D01*
G75*
G02*
X19500000Y-12500000I-250000J0D01*
G01*
X14500000Y-12500000D01*
G75*
G02*
X14250000Y-12250000I0J250000D01*
G01*
X14250000Y-11750000D01*
G75*
G02*
X14500000Y-11500000I250000J0D01*
G01*
G37*
G04 #@! TD.AperFunction*
G04 #@! TA.AperFunction,SMDPad,CuDef*
G36*
G01*
X14500000Y-13500000D02*
X19500000Y-13500000D01*
G75*
G02*
X19750000Y-13750000I0J-250000D01*
G01*
X19750000Y-14250000D01*
G75*
G02*
X19500000Y-14500000I-250000J0D01*
G01*
X14500000Y-14500000D01*
G75*
G02*
X14250000Y-14250000I0J250000D01*
G01*
X14250000Y-13750000D01*
G75*
G02*
X14500000Y-13500000I250000J0D01*
G01*
G37*
G04 #@! TD.AperFunction*
G04 #@! TA.AperFunction,SMDPad,CuDef*
G36*
G01*
X14500000Y-15500000D02*
X19500000Y-15500000D01*
G75*
G02*
X19750000Y-15750000I0J-250000D01*
G01*
X19750000Y-16250000D01*
G75*
G02*
X19500000Y-16500000I-250000J0D01*
G01*
X14500000Y-16500000D01*
G75*
G02*
X14250000Y-16250000I0J250000D01*
G01*
X14250000Y-15750000D01*
G75*
G02*
X14500000Y-15500000I250000J0D01*
G01*
G37*
G04 #@! TD.AperFunction*
G04 #@! TA.AperFunction,SMDPad,CuDef*
G36*
G01*
X18000000Y-6800000D02*
X20500000Y-6800000D01*
G75*
G02*
X20750000Y-7050000I0J-250000D01*
G01*
X20750000Y-8150000D01*
G75*
G02*
X20500000Y-8400000I-250000J0D01*
G01*
X18000000Y-8400000D01*
G75*
G02*
X17750000Y-8150000I0J250000D01*
G01*
X17750000Y-7050000D01*
G75*
G02*
X18000000Y-6800000I250000J0D01*
G01*
G37*
G04 #@! TD.AperFunction*
G04 #@! TA.AperFunction,SMDPad,CuDef*
G36*
G01*
X18000000Y-17600000D02*
X20500000Y-17600000D01*
G75*
G02*
X20750000Y-17850000I0J-250000D01*
G01*
X20750000Y-18950000D01*
G75*
G02*
X20500000Y-19200000I-250000J0D01*
G01*
X18000000Y-19200000D01*
G75*
G02*
X17750000Y-18950000I0J250000D01*
G01*
X17750000Y-17850000D01*
G75*
G02*
X18000000Y-17600000I250000J0D01*
G01*
G37*
G04 #@! TD.AperFunction*
G04 #@! TA.AperFunction,SMDPad,CuDef*
G36*
G01*
X32500000Y-61500000D02*
X32500000Y-56500000D01*
G75*
G02*
X32750000Y-56250000I250000J0D01*
G01*
X33250000Y-56250000D01*
G75*
G02*
X33500000Y-56500000I0J-250000D01*
G01*
X33500000Y-61500000D01*
G75*
G02*
X33250000Y-61750000I-250000J0D01*
G01*
X32750000Y-61750000D01*
G75*
G02*
X32500000Y-61500000I0J250000D01*
G01*
G37*
G04 #@! TD.AperFunction*
G04 #@! TA.AperFunction,SMDPad,CuDef*
G36*
G01*
X34500000Y-61500000D02*
X34500000Y-56500000D01*
G75*
G02*
X34750000Y-56250000I250000J0D01*
G01*
X35250000Y-56250000D01*
G75*
G02*
X35500000Y-56500000I0J-250000D01*
G01*
X35500000Y-61500000D01*
G75*
G02*
X35250000Y-61750000I-250000J0D01*
G01*
X34750000Y-61750000D01*
G75*
G02*
X34500000Y-61500000I0J250000D01*
G01*
G37*
G04 #@! TD.AperFunction*
G04 #@! TA.AperFunction,SMDPad,CuDef*
G36*
G01*
X36500000Y-61500000D02*
X36500000Y-56500000D01*
G75*
G02*
X36750000Y-56250000I250000J0D01*
G01*
X37250000Y-56250000D01*
G75*
G02*
X37500000Y-56500000I0J-250000D01*
G01*
X37500000Y-61500000D01*
G75*
G02*
X37250000Y-61750000I-250000J0D01*
G01*
X36750000Y-61750000D01*
G75*
G02*
X36500000Y-61500000I0J250000D01*
G01*
G37*
G04 #@! TD.AperFunction*
G04 #@! TA.AperFunction,SMDPad,CuDef*
G36*
G01*
X38500000Y-61500000D02*
X38500000Y-56500000D01*
G75*
G02*
X38750000Y-56250000I250000J0D01*
G01*
X39250000Y-56250000D01*
G75*
G02*
X39500000Y-56500000I0J-250000D01*
G01*
X39500000Y-61500000D01*
G75*
G02*
X39250000Y-61750000I-250000J0D01*
G01*
X38750000Y-61750000D01*
G75*
G02*
X38500000Y-61500000I0J250000D01*
G01*
G37*
G04 #@! TD.AperFunction*
G04 #@! TA.AperFunction,SMDPad,CuDef*
G36*
G01*
X40500000Y-61500000D02*
X40500000Y-56500000D01*
G75*
G02*
X40750000Y-56250000I250000J0D01*
G01*
X41250000Y-56250000D01*
G75*
G02*
X41500000Y-56500000I0J-250000D01*
G01*
X41500000Y-61500000D01*
G75*
G02*
X41250000Y-61750000I-250000J0D01*
G01*
X40750000Y-61750000D01*
G75*
G02*
X40500000Y-61500000I0J250000D01*
G01*
G37*
G04 #@! TD.AperFunction*
G04 #@! TA.AperFunction,SMDPad,CuDef*
G36*
G01*
X29800000Y-58000000D02*
X29800000Y-55500000D01*
G75*
G02*
X30050000Y-55250000I250000J0D01*
G01*
X31150000Y-55250000D01*
G75*
G02*
X31400000Y-55500000I0J-250000D01*
G01*
X31400000Y-58000000D01*
G75*
G02*
X31150000Y-58250000I-250000J0D01*
G01*
X30050000Y-58250000D01*
G75*
G02*
X29800000Y-58000000I0J250000D01*
G01*
G37*
G04 #@! TD.AperFunction*
G04 #@! TA.AperFunction,SMDPad,CuDef*
G36*
G01*
X42600000Y-58000000D02*
X42600000Y-55500000D01*
G75*
G02*
X42850000Y-55250000I250000J0D01*
G01*
X43950000Y-55250000D01*
G75*
G02*
X44200000Y-55500000I0J-250000D01*
G01*
X44200000Y-58000000D01*
G75*
G02*
X43950000Y-58250000I-250000J0D01*
G01*
X42850000Y-58250000D01*
G75*
G02*
X42600000Y-58000000I0J250000D01*
G01*
G37*
G04 #@! TD.AperFunction*
D14*
X63500000Y-20000000D03*
X65000000Y-52500000D03*
X88000000Y-55500000D03*
X33000000Y-4500000D03*
X45000000Y-15000000D03*
X55500000Y-56500000D03*
X35000000Y-28000000D03*
X47000000Y-22500000D03*
X85000000Y-23500000D03*
X37000000Y-49000000D03*
X41000000Y-66000000D03*
D15*
X64500000Y-63000000D02*
X64500000Y-56000000D01*
X61970000Y-53470000D02*
X61970000Y-48390000D01*
X66500000Y-11000000D02*
X66500000Y-14000000D01*
X66500000Y-14000000D02*
X63840000Y-16660000D01*
X63840000Y-19660000D02*
X63500000Y-20000000D01*
X63840000Y-16660000D02*
X63840000Y-19660000D01*
X63250000Y-54250000D02*
X63250000Y-54750000D01*
X65000000Y-52500000D02*
X63250000Y-54250000D01*
X63250000Y-54750000D02*
X61970000Y-53470000D01*
X64500000Y-56000000D02*
X63250000Y-54750000D01*
X88000000Y-55500000D02*
X88000000Y-63000000D01*
X33000000Y-4500000D02*
X28500000Y-4500000D01*
X41540000Y-15000000D02*
X41200000Y-14660000D01*
X45000000Y-15000000D02*
X41540000Y-15000000D01*
X62500000Y-63000000D02*
X62500000Y-58500000D01*
X62500000Y-58500000D02*
X58500000Y-54500000D01*
X58500000Y-54500000D02*
X57500000Y-54500000D01*
X56890000Y-53890000D02*
X56890000Y-48390000D01*
X57500000Y-54500000D02*
X56890000Y-53890000D01*
X57500000Y-54500000D02*
X55500000Y-56500000D01*
X35000000Y-28000000D02*
X35000000Y-21000000D01*
X36260000Y-19740000D02*
X41200000Y-19740000D01*
X35000000Y-21000000D02*
X36260000Y-19740000D01*
X36420000Y-9580000D02*
X41200000Y-9580000D01*
X35000000Y-11000000D02*
X36420000Y-9580000D01*
X36880000Y-12120000D02*
X35000000Y-14000000D01*
X41200000Y-12120000D02*
X36880000Y-12120000D01*
X35000000Y-14000000D02*
X35000000Y-11000000D01*
X36300000Y-17200000D02*
X35000000Y-18500000D01*
X41200000Y-17200000D02*
X36300000Y-17200000D01*
X35000000Y-18500000D02*
X35000000Y-14000000D01*
X35000000Y-21000000D02*
X35000000Y-18500000D01*
X85000000Y-28240000D02*
X84830000Y-28070000D01*
X41200000Y-22280000D02*
X45280000Y-22280000D01*
X46780000Y-22280000D02*
X47000000Y-22500000D01*
X45280000Y-22280000D02*
X46780000Y-22280000D01*
X85000000Y-27900000D02*
X84830000Y-28070000D01*
X85000000Y-23500000D02*
X85000000Y-27900000D01*
X28380000Y-12000000D02*
X28500000Y-12120000D01*
X17000000Y-12000000D02*
X28380000Y-12000000D01*
X28080000Y-10000000D02*
X28500000Y-9580000D01*
X17000000Y-10000000D02*
X28080000Y-10000000D01*
X17000000Y-14000000D02*
X24500000Y-14000000D01*
X25160000Y-14660000D02*
X28500000Y-14660000D01*
X24500000Y-14000000D02*
X25160000Y-14660000D01*
X17000000Y-16000000D02*
X24000000Y-16000000D01*
X25200000Y-17200000D02*
X28500000Y-17200000D01*
X24000000Y-16000000D02*
X25200000Y-17200000D01*
D16*
X8500000Y-33500000D02*
X14500000Y-27500000D01*
X8500000Y-45500000D02*
X8500000Y-33500000D01*
X13000000Y-50000000D02*
X8500000Y-45500000D01*
X33000000Y-56006480D02*
X26993520Y-50000000D01*
X26993520Y-50000000D02*
X13000000Y-50000000D01*
X33000000Y-59000000D02*
X33000000Y-56006480D01*
X25700000Y-39500000D02*
X28500000Y-36700000D01*
X17500000Y-39500000D02*
X25700000Y-39500000D01*
X28500000Y-36700000D02*
X28500000Y-33000000D01*
X28500000Y-33000000D02*
X28000000Y-33000000D01*
X28000000Y-33000000D02*
X25500000Y-30500000D01*
X17500000Y-30500000D02*
X14500000Y-27500000D01*
X25500000Y-30500000D02*
X17500000Y-30500000D01*
X26260000Y-19740000D02*
X28500000Y-19740000D01*
X24000000Y-22000000D02*
X26260000Y-19740000D01*
X20000000Y-22000000D02*
X24000000Y-22000000D01*
X14500000Y-27500000D02*
X20000000Y-22000000D01*
D15*
X87370000Y-13370000D02*
X87370000Y-28070000D01*
X75500000Y-1500000D02*
X87370000Y-13370000D01*
X41200000Y-7040000D02*
X39040000Y-7040000D01*
X39040000Y-7040000D02*
X38000000Y-6000000D01*
X38000000Y-6000000D02*
X38000000Y-3500000D01*
X38000000Y-3500000D02*
X40000000Y-1500000D01*
X40000000Y-1500000D02*
X54000000Y-1500000D01*
X54000000Y-1500000D02*
X75500000Y-1500000D01*
X52500000Y-1500000D02*
X54000000Y-1500000D01*
D16*
X28500000Y-42300000D02*
X23300000Y-42300000D01*
X22500000Y-41500000D02*
X17500000Y-41500000D01*
X23300000Y-42300000D02*
X22500000Y-41500000D01*
X28500000Y-42300000D02*
X32700000Y-46500000D01*
X32700000Y-46500000D02*
X35000000Y-46500000D01*
X35000000Y-46500000D02*
X37000000Y-44500000D01*
X35000000Y-47000000D02*
X37000000Y-49000000D01*
X35000000Y-46500000D02*
X35000000Y-47000000D01*
X41000000Y-66000000D02*
X41000000Y-59000000D01*
X28500000Y-22280000D02*
X28500000Y-28500000D01*
X37000000Y-37000000D02*
X37000000Y-37500000D01*
X28500000Y-28500000D02*
X37000000Y-37000000D01*
X37000000Y-44500000D02*
X37000000Y-37500000D01*
D15*
X60000000Y-3500000D02*
X75000000Y-3500000D01*
X77210000Y-5710000D02*
X77210000Y-28070000D01*
X75000000Y-3500000D02*
X77210000Y-5710000D01*
X41200000Y-4500000D02*
X59000000Y-4500000D01*
X59000000Y-4500000D02*
X60000000Y-3500000D01*
X77520000Y-36000000D02*
X69590000Y-28070000D01*
X96000000Y-64000000D02*
X96000000Y-42500000D01*
X92500000Y-67500000D02*
X96000000Y-64000000D01*
X87750000Y-67500000D02*
X92500000Y-67500000D01*
X89500000Y-36000000D02*
X77520000Y-36000000D01*
X86000000Y-65750000D02*
X87750000Y-67500000D01*
X96000000Y-42500000D02*
X89500000Y-36000000D01*
X86000000Y-63000000D02*
X86000000Y-65750000D01*
X68500000Y-11000000D02*
X68500000Y-16500000D01*
X74670000Y-22670000D02*
X74670000Y-28070000D01*
X68500000Y-16500000D02*
X74670000Y-22670000D01*
X78000000Y-63000000D02*
X78000000Y-67000000D01*
X78000000Y-67000000D02*
X80000000Y-69000000D01*
X80000000Y-69000000D02*
X93500000Y-69000000D01*
X93500000Y-69000000D02*
X98000000Y-64500000D01*
X98000000Y-64500000D02*
X98000000Y-42000000D01*
X98000000Y-42000000D02*
X89500000Y-33500000D01*
X89500000Y-33500000D02*
X81000000Y-33500000D01*
X79750000Y-32250000D02*
X79750000Y-28070000D01*
X81000000Y-33500000D02*
X79750000Y-32250000D01*
X35000000Y-59000000D02*
X35000000Y-55000000D01*
X35000000Y-55000000D02*
X49500000Y-40500000D01*
X49500000Y-40500000D02*
X86000000Y-40500000D01*
X89910000Y-44410000D02*
X89910000Y-48390000D01*
X86000000Y-40500000D02*
X89910000Y-44410000D01*
X37000000Y-59000000D02*
X37000000Y-55500000D01*
X37000000Y-55500000D02*
X50000000Y-42500000D01*
X50000000Y-42500000D02*
X84500000Y-42500000D01*
X87370000Y-45370000D02*
X87370000Y-48390000D01*
X84500000Y-42500000D02*
X87370000Y-45370000D01*
X84830000Y-48390000D02*
X84830000Y-55170000D01*
X84000000Y-56000000D02*
X84000000Y-63000000D01*
X84830000Y-55170000D02*
X84000000Y-56000000D01*
X82290000Y-48390000D02*
X82290000Y-54710000D01*
X82000000Y-55000000D02*
X82000000Y-63000000D01*
X82290000Y-54710000D02*
X82000000Y-55000000D01*
X79750000Y-48390000D02*
X79750000Y-54750000D01*
X80000000Y-55000000D02*
X80000000Y-63000000D01*
X79750000Y-54750000D02*
X80000000Y-55000000D01*
X39000000Y-56250000D02*
X51250000Y-44000000D01*
X39000000Y-59000000D02*
X39000000Y-56250000D01*
X51250000Y-44000000D02*
X73000000Y-44000000D01*
X74670000Y-45670000D02*
X74670000Y-48390000D01*
X73000000Y-44000000D02*
X74670000Y-45670000D01*
X66500000Y-63000000D02*
X66500000Y-56500000D01*
X69590000Y-53410000D02*
X69590000Y-48390000D01*
X66500000Y-56500000D02*
X69590000Y-53410000D01*
M02*
