M48
; DRILL file {KiCad (5.1.9)-1} date 06/25/22 15:55:59
; FORMAT={-:-/ absolute / metric / decimal}
; #@! TF.CreationDate,2022-06-25T15:55:59-04:00
; #@! TF.GenerationSoftware,Kicad,Pcbnew,(5.1.9)-1
; #@! TF.FileFunction,Plated,1,2,PTH
FMAT,2
METRIC
T1C0.800
T2C0.900
T3C1.000
%
G90
G05
T1
X28.5Y-4.5
X28.5Y-7.04
X28.5Y-9.58
X28.5Y-12.12
X28.5Y-14.66
X28.5Y-17.2
X28.5Y-19.74
X28.5Y-22.28
X41.2Y-4.5
X41.2Y-7.04
X41.2Y-9.58
X41.2Y-12.12
X41.2Y-14.66
X41.2Y-17.2
X41.2Y-19.74
X41.2Y-22.28
T2
X33.0Y-4.5
X35.0Y-28.0
X37.0Y-49.0
X41.0Y-66.0
X45.0Y-15.0
X47.0Y-22.5
X55.5Y-56.5
X63.5Y-20.0
X65.0Y-52.5
X85.0Y-23.5
X88.0Y-55.5
T3
X54.35Y-48.39
X56.89Y-48.39
X59.43Y-48.39
X61.97Y-48.39
X64.51Y-28.07
X64.51Y-48.39
X67.05Y-28.07
X67.05Y-48.39
X69.59Y-28.07
X69.59Y-48.39
X72.13Y-28.07
X72.13Y-48.39
X74.67Y-28.07
X74.67Y-48.39
X77.21Y-28.07
X77.21Y-48.39
X79.75Y-28.07
X79.75Y-48.39
X82.29Y-28.07
X82.29Y-48.39
X84.83Y-28.07
X84.83Y-48.39
X87.37Y-28.07
X87.37Y-48.39
X89.91Y-28.07
X89.91Y-48.39
X92.45Y-28.07
X92.45Y-48.39
T0
M30
