G04 #@! TF.GenerationSoftware,KiCad,Pcbnew,(5.1.9)-1*
G04 #@! TF.CreationDate,2022-06-25T15:55:54-04:00*
G04 #@! TF.ProjectId,TarotMachine,5461726f-744d-4616-9368-696e652e6b69,rev?*
G04 #@! TF.SameCoordinates,Original*
G04 #@! TF.FileFunction,Legend,Top*
G04 #@! TF.FilePolarity,Positive*
%FSLAX46Y46*%
G04 Gerber Fmt 4.6, Leading zero omitted, Abs format (unit mm)*
G04 Created by KiCad (PCBNEW (5.1.9)-1) date 2022-06-25 15:55:54*
%MOMM*%
%LPD*%
G01*
G04 APERTURE LIST*
%ADD10C,0.120000*%
%ADD11C,0.150000*%
G04 APERTURE END LIST*
D10*
X53020000Y-49720000D02*
X53020000Y-48390000D01*
X54350000Y-49720000D02*
X53020000Y-49720000D01*
X55620000Y-49720000D02*
X55620000Y-47060000D01*
X55620000Y-47060000D02*
X93780000Y-47060000D01*
X55620000Y-49720000D02*
X93780000Y-49720000D01*
X93780000Y-49720000D02*
X93780000Y-47060000D01*
X93780000Y-26740000D02*
X93780000Y-28070000D01*
X92450000Y-26740000D02*
X93780000Y-26740000D01*
X91180000Y-26740000D02*
X91180000Y-29400000D01*
X91180000Y-29400000D02*
X63180000Y-29400000D01*
X91180000Y-26740000D02*
X63180000Y-26740000D01*
X63180000Y-26740000D02*
X63180000Y-29400000D01*
X39930000Y-3100000D02*
X39930000Y-23680000D01*
X29770000Y-5770000D02*
X29770000Y-23680000D01*
X28500000Y-3100000D02*
X27100000Y-3100000D01*
X27100000Y-3100000D02*
X27100000Y-4500000D01*
X29770000Y-3100000D02*
X29770000Y-5770000D01*
X29770000Y-5770000D02*
X27100000Y-5770000D01*
X27100000Y-5770000D02*
X27100000Y-23680000D01*
X27100000Y-23680000D02*
X42600000Y-23680000D01*
X42600000Y-23680000D02*
X42600000Y-3100000D01*
X42600000Y-3100000D02*
X29770000Y-3100000D01*
X31910000Y-36090000D02*
X29560000Y-36090000D01*
X25090000Y-36090000D02*
X27440000Y-36090000D01*
X25090000Y-41845563D02*
X25090000Y-36090000D01*
X31910000Y-41845563D02*
X31910000Y-36090000D01*
X30845563Y-42910000D02*
X29560000Y-42910000D01*
X26154437Y-42910000D02*
X27440000Y-42910000D01*
X26154437Y-42910000D02*
X25090000Y-41845563D01*
X30845563Y-42910000D02*
X31910000Y-41845563D01*
X26652500Y-43937500D02*
X26652500Y-43150000D01*
X26258750Y-43543750D02*
X27046250Y-43543750D01*
X69585000Y-58140000D02*
X69585000Y-58990000D01*
X59415000Y-58140000D02*
X69585000Y-58140000D01*
X59415000Y-58990000D02*
X59415000Y-58140000D01*
X69585000Y-63360000D02*
X67260000Y-63360000D01*
X69585000Y-62510000D02*
X69585000Y-63360000D01*
X61740000Y-63360000D02*
X61740000Y-65750000D01*
X59415000Y-63360000D02*
X61740000Y-63360000D01*
X59415000Y-62510000D02*
X59415000Y-63360000D01*
X63415000Y-10510000D02*
X63415000Y-11360000D01*
X63415000Y-11360000D02*
X65740000Y-11360000D01*
X65740000Y-11360000D02*
X65740000Y-13750000D01*
X73585000Y-10510000D02*
X73585000Y-11360000D01*
X73585000Y-11360000D02*
X71260000Y-11360000D01*
X63415000Y-6990000D02*
X63415000Y-6140000D01*
X63415000Y-6140000D02*
X73585000Y-6140000D01*
X73585000Y-6140000D02*
X73585000Y-6990000D01*
X12640000Y-34415000D02*
X13490000Y-34415000D01*
X12640000Y-44585000D02*
X12640000Y-34415000D01*
X13490000Y-44585000D02*
X12640000Y-44585000D01*
X17860000Y-34415000D02*
X17860000Y-36740000D01*
X17010000Y-34415000D02*
X17860000Y-34415000D01*
X17860000Y-42260000D02*
X20250000Y-42260000D01*
X17860000Y-44585000D02*
X17860000Y-42260000D01*
X17010000Y-44585000D02*
X17860000Y-44585000D01*
X74915000Y-62510000D02*
X74915000Y-63360000D01*
X74915000Y-63360000D02*
X77240000Y-63360000D01*
X77240000Y-63360000D02*
X77240000Y-65750000D01*
X91085000Y-62510000D02*
X91085000Y-63360000D01*
X91085000Y-63360000D02*
X88760000Y-63360000D01*
X74915000Y-58990000D02*
X74915000Y-58140000D01*
X74915000Y-58140000D02*
X91085000Y-58140000D01*
X91085000Y-58140000D02*
X91085000Y-58990000D01*
X17490000Y-6915000D02*
X16640000Y-6915000D01*
X16640000Y-6915000D02*
X16640000Y-9240000D01*
X16640000Y-9240000D02*
X14250000Y-9240000D01*
X17490000Y-19085000D02*
X16640000Y-19085000D01*
X16640000Y-19085000D02*
X16640000Y-16760000D01*
X21010000Y-6915000D02*
X21860000Y-6915000D01*
X21860000Y-6915000D02*
X21860000Y-19085000D01*
X21860000Y-19085000D02*
X21010000Y-19085000D01*
X29915000Y-58510000D02*
X29915000Y-59360000D01*
X29915000Y-59360000D02*
X32240000Y-59360000D01*
X32240000Y-59360000D02*
X32240000Y-61750000D01*
X44085000Y-58510000D02*
X44085000Y-59360000D01*
X44085000Y-59360000D02*
X41760000Y-59360000D01*
X29915000Y-54990000D02*
X29915000Y-54140000D01*
X29915000Y-54140000D02*
X44085000Y-54140000D01*
X44085000Y-54140000D02*
X44085000Y-54990000D01*
D11*
X54016666Y-45302380D02*
X54016666Y-46016666D01*
X53969047Y-46159523D01*
X53873809Y-46254761D01*
X53730952Y-46302380D01*
X53635714Y-46302380D01*
X54445238Y-45397619D02*
X54492857Y-45350000D01*
X54588095Y-45302380D01*
X54826190Y-45302380D01*
X54921428Y-45350000D01*
X54969047Y-45397619D01*
X55016666Y-45492857D01*
X55016666Y-45588095D01*
X54969047Y-45730952D01*
X54397619Y-46302380D01*
X55016666Y-46302380D01*
X92116666Y-24982380D02*
X92116666Y-25696666D01*
X92069047Y-25839523D01*
X91973809Y-25934761D01*
X91830952Y-25982380D01*
X91735714Y-25982380D01*
X93116666Y-25982380D02*
X92545238Y-25982380D01*
X92830952Y-25982380D02*
X92830952Y-24982380D01*
X92735714Y-25125238D01*
X92640476Y-25220476D01*
X92545238Y-25268095D01*
X34135714Y-2126666D02*
X34611904Y-2126666D01*
X34040476Y-2412380D02*
X34373809Y-1412380D01*
X34707142Y-2412380D01*
X35564285Y-2412380D02*
X34992857Y-2412380D01*
X35278571Y-2412380D02*
X35278571Y-1412380D01*
X35183333Y-1555238D01*
X35088095Y-1650476D01*
X34992857Y-1698095D01*
X24507142Y-39666666D02*
X24554761Y-39714285D01*
X24602380Y-39857142D01*
X24602380Y-39952380D01*
X24554761Y-40095238D01*
X24459523Y-40190476D01*
X24364285Y-40238095D01*
X24173809Y-40285714D01*
X24030952Y-40285714D01*
X23840476Y-40238095D01*
X23745238Y-40190476D01*
X23650000Y-40095238D01*
X23602380Y-39952380D01*
X23602380Y-39857142D01*
X23650000Y-39714285D01*
X23697619Y-39666666D01*
X24602380Y-38714285D02*
X24602380Y-39285714D01*
X24602380Y-39000000D02*
X23602380Y-39000000D01*
X23745238Y-39095238D01*
X23840476Y-39190476D01*
X23888095Y-39285714D01*
X64166666Y-56502380D02*
X64166666Y-57216666D01*
X64119047Y-57359523D01*
X64023809Y-57454761D01*
X63880952Y-57502380D01*
X63785714Y-57502380D01*
X64547619Y-56502380D02*
X65166666Y-56502380D01*
X64833333Y-56883333D01*
X64976190Y-56883333D01*
X65071428Y-56930952D01*
X65119047Y-56978571D01*
X65166666Y-57073809D01*
X65166666Y-57311904D01*
X65119047Y-57407142D01*
X65071428Y-57454761D01*
X64976190Y-57502380D01*
X64690476Y-57502380D01*
X64595238Y-57454761D01*
X64547619Y-57407142D01*
X68166666Y-4502380D02*
X68166666Y-5216666D01*
X68119047Y-5359523D01*
X68023809Y-5454761D01*
X67880952Y-5502380D01*
X67785714Y-5502380D01*
X69071428Y-4502380D02*
X68880952Y-4502380D01*
X68785714Y-4550000D01*
X68738095Y-4597619D01*
X68642857Y-4740476D01*
X68595238Y-4930952D01*
X68595238Y-5311904D01*
X68642857Y-5407142D01*
X68690476Y-5454761D01*
X68785714Y-5502380D01*
X68976190Y-5502380D01*
X69071428Y-5454761D01*
X69119047Y-5407142D01*
X69166666Y-5311904D01*
X69166666Y-5073809D01*
X69119047Y-4978571D01*
X69071428Y-4930952D01*
X68976190Y-4883333D01*
X68785714Y-4883333D01*
X68690476Y-4930952D01*
X68642857Y-4978571D01*
X68595238Y-5073809D01*
X11002380Y-39833333D02*
X11716666Y-39833333D01*
X11859523Y-39880952D01*
X11954761Y-39976190D01*
X12002380Y-40119047D01*
X12002380Y-40214285D01*
X11002380Y-39452380D02*
X11002380Y-38785714D01*
X12002380Y-39214285D01*
X82666666Y-56502380D02*
X82666666Y-57216666D01*
X82619047Y-57359523D01*
X82523809Y-57454761D01*
X82380952Y-57502380D01*
X82285714Y-57502380D01*
X83285714Y-56930952D02*
X83190476Y-56883333D01*
X83142857Y-56835714D01*
X83095238Y-56740476D01*
X83095238Y-56692857D01*
X83142857Y-56597619D01*
X83190476Y-56550000D01*
X83285714Y-56502380D01*
X83476190Y-56502380D01*
X83571428Y-56550000D01*
X83619047Y-56597619D01*
X83666666Y-56692857D01*
X83666666Y-56740476D01*
X83619047Y-56835714D01*
X83571428Y-56883333D01*
X83476190Y-56930952D01*
X83285714Y-56930952D01*
X83190476Y-56978571D01*
X83142857Y-57026190D01*
X83095238Y-57121428D01*
X83095238Y-57311904D01*
X83142857Y-57407142D01*
X83190476Y-57454761D01*
X83285714Y-57502380D01*
X83476190Y-57502380D01*
X83571428Y-57454761D01*
X83619047Y-57407142D01*
X83666666Y-57311904D01*
X83666666Y-57121428D01*
X83619047Y-57026190D01*
X83571428Y-56978571D01*
X83476190Y-56930952D01*
X22402380Y-13333333D02*
X23116666Y-13333333D01*
X23259523Y-13380952D01*
X23354761Y-13476190D01*
X23402380Y-13619047D01*
X23402380Y-13714285D01*
X22735714Y-12428571D02*
X23402380Y-12428571D01*
X22354761Y-12666666D02*
X23069047Y-12904761D01*
X23069047Y-12285714D01*
X36666666Y-52502380D02*
X36666666Y-53216666D01*
X36619047Y-53359523D01*
X36523809Y-53454761D01*
X36380952Y-53502380D01*
X36285714Y-53502380D01*
X37619047Y-52502380D02*
X37142857Y-52502380D01*
X37095238Y-52978571D01*
X37142857Y-52930952D01*
X37238095Y-52883333D01*
X37476190Y-52883333D01*
X37571428Y-52930952D01*
X37619047Y-52978571D01*
X37666666Y-53073809D01*
X37666666Y-53311904D01*
X37619047Y-53407142D01*
X37571428Y-53454761D01*
X37476190Y-53502380D01*
X37238095Y-53502380D01*
X37142857Y-53454761D01*
X37095238Y-53407142D01*
M02*
