G04 #@! TF.GenerationSoftware,KiCad,Pcbnew,(5.1.9)-1*
G04 #@! TF.CreationDate,2022-06-25T15:55:54-04:00*
G04 #@! TF.ProjectId,TarotMachine,5461726f-744d-4616-9368-696e652e6b69,rev?*
G04 #@! TF.SameCoordinates,Original*
G04 #@! TF.FileFunction,Copper,L2,Bot*
G04 #@! TF.FilePolarity,Positive*
%FSLAX46Y46*%
G04 Gerber Fmt 4.6, Leading zero omitted, Abs format (unit mm)*
G04 Created by KiCad (PCBNEW (5.1.9)-1) date 2022-06-25 15:55:54*
%MOMM*%
%LPD*%
G01*
G04 APERTURE LIST*
G04 #@! TA.AperFunction,ComponentPad*
%ADD10O,1.700000X1.700000*%
G04 #@! TD*
G04 #@! TA.AperFunction,ComponentPad*
%ADD11R,1.700000X1.700000*%
G04 #@! TD*
G04 #@! TA.AperFunction,ComponentPad*
%ADD12R,1.600000X1.600000*%
G04 #@! TD*
G04 #@! TA.AperFunction,ComponentPad*
%ADD13O,1.600000X1.600000*%
G04 #@! TD*
G04 #@! TA.AperFunction,ViaPad*
%ADD14C,1.500000*%
G04 #@! TD*
G04 #@! TA.AperFunction,Conductor*
%ADD15C,0.500000*%
G04 #@! TD*
G04 #@! TA.AperFunction,Conductor*
%ADD16C,1.000000*%
G04 #@! TD*
G04 APERTURE END LIST*
D10*
X92450000Y-48390000D03*
X89910000Y-48390000D03*
X87370000Y-48390000D03*
X84830000Y-48390000D03*
X82290000Y-48390000D03*
X79750000Y-48390000D03*
X77210000Y-48390000D03*
X74670000Y-48390000D03*
X72130000Y-48390000D03*
X69590000Y-48390000D03*
X67050000Y-48390000D03*
X64510000Y-48390000D03*
X61970000Y-48390000D03*
X59430000Y-48390000D03*
X56890000Y-48390000D03*
D11*
X54350000Y-48390000D03*
D10*
X64510000Y-28070000D03*
X67050000Y-28070000D03*
X69590000Y-28070000D03*
X72130000Y-28070000D03*
X74670000Y-28070000D03*
X77210000Y-28070000D03*
X79750000Y-28070000D03*
X82290000Y-28070000D03*
X84830000Y-28070000D03*
X87370000Y-28070000D03*
X89910000Y-28070000D03*
D11*
X92450000Y-28070000D03*
D12*
X28500000Y-4500000D03*
D13*
X41200000Y-22280000D03*
X28500000Y-7040000D03*
X41200000Y-19740000D03*
X28500000Y-9580000D03*
X41200000Y-17200000D03*
X28500000Y-12120000D03*
X41200000Y-14660000D03*
X28500000Y-14660000D03*
X41200000Y-12120000D03*
X28500000Y-17200000D03*
X41200000Y-9580000D03*
X28500000Y-19740000D03*
X41200000Y-7040000D03*
X28500000Y-22280000D03*
X41200000Y-4500000D03*
D14*
X63500000Y-20000000D03*
X65000000Y-52500000D03*
X88000000Y-55500000D03*
X33000000Y-4500000D03*
X45000000Y-15000000D03*
X55500000Y-56500000D03*
X35000000Y-28000000D03*
X47000000Y-22500000D03*
X85000000Y-23500000D03*
X37000000Y-49000000D03*
X41000000Y-66000000D03*
D15*
X60945998Y-20000000D02*
X50500000Y-30445998D01*
X63500000Y-20000000D02*
X60945998Y-20000000D01*
X50500000Y-30445998D02*
X50500000Y-47050002D01*
X50500000Y-47050002D02*
X50500000Y-51500000D01*
X51500000Y-52500000D02*
X65000000Y-52500000D01*
X50500000Y-51500000D02*
X51500000Y-52500000D01*
X65000000Y-52500000D02*
X85000000Y-52500000D01*
X85000000Y-52500000D02*
X88000000Y-55500000D01*
X50500000Y-30445998D02*
X46054002Y-26000000D01*
X39500000Y-26000000D02*
X33000000Y-19500000D01*
X33000000Y-19500000D02*
X33000000Y-4500000D01*
X45000000Y-26000000D02*
X45000000Y-15000000D01*
X46054002Y-26000000D02*
X45000000Y-26000000D01*
X45000000Y-26000000D02*
X39500000Y-26000000D01*
X54510037Y-56500000D02*
X53510037Y-55500000D01*
X55500000Y-56500000D02*
X54510037Y-56500000D01*
X53510037Y-55500000D02*
X51500000Y-55500000D01*
X51500000Y-55500000D02*
X46500000Y-50500000D01*
X46500000Y-50500000D02*
X46500000Y-32000000D01*
X46500000Y-32000000D02*
X46500000Y-31000000D01*
X46500000Y-31000000D02*
X43500000Y-28000000D01*
X43500000Y-28000000D02*
X35000000Y-28000000D01*
X47000000Y-22500000D02*
X52000000Y-17500000D01*
X52000000Y-17500000D02*
X79000000Y-17500000D01*
X79000000Y-17500000D02*
X85000000Y-23500000D01*
D16*
X37000000Y-49000000D02*
X46500000Y-58500000D01*
X46500000Y-58500000D02*
X46500000Y-63000000D01*
X43500000Y-66000000D02*
X41000000Y-66000000D01*
X46500000Y-63000000D02*
X43500000Y-66000000D01*
M02*
