G04 #@! TF.GenerationSoftware,KiCad,Pcbnew,(5.1.9)-1*
G04 #@! TF.CreationDate,2022-06-25T15:55:54-04:00*
G04 #@! TF.ProjectId,TarotMachine,5461726f-744d-4616-9368-696e652e6b69,rev?*
G04 #@! TF.SameCoordinates,Original*
G04 #@! TF.FileFunction,Soldermask,Top*
G04 #@! TF.FilePolarity,Negative*
%FSLAX46Y46*%
G04 Gerber Fmt 4.6, Leading zero omitted, Abs format (unit mm)*
G04 Created by KiCad (PCBNEW (5.1.9)-1) date 2022-06-25 15:55:54*
%MOMM*%
%LPD*%
G01*
G04 APERTURE LIST*
%ADD10O,1.802000X1.802000*%
%ADD11O,1.702000X1.702000*%
G04 APERTURE END LIST*
D10*
X92450000Y-48390000D03*
X89910000Y-48390000D03*
X87370000Y-48390000D03*
X84830000Y-48390000D03*
X82290000Y-48390000D03*
X79750000Y-48390000D03*
X77210000Y-48390000D03*
X74670000Y-48390000D03*
X72130000Y-48390000D03*
X69590000Y-48390000D03*
X67050000Y-48390000D03*
X64510000Y-48390000D03*
X61970000Y-48390000D03*
X59430000Y-48390000D03*
X56890000Y-48390000D03*
G36*
G01*
X55200000Y-49291000D02*
X53500000Y-49291000D01*
G75*
G02*
X53449000Y-49240000I0J51000D01*
G01*
X53449000Y-47540000D01*
G75*
G02*
X53500000Y-47489000I51000J0D01*
G01*
X55200000Y-47489000D01*
G75*
G02*
X55251000Y-47540000I0J-51000D01*
G01*
X55251000Y-49240000D01*
G75*
G02*
X55200000Y-49291000I-51000J0D01*
G01*
G37*
X64510000Y-28070000D03*
X67050000Y-28070000D03*
X69590000Y-28070000D03*
X72130000Y-28070000D03*
X74670000Y-28070000D03*
X77210000Y-28070000D03*
X79750000Y-28070000D03*
X82290000Y-28070000D03*
X84830000Y-28070000D03*
X87370000Y-28070000D03*
X89910000Y-28070000D03*
G36*
G01*
X91600000Y-27169000D02*
X93300000Y-27169000D01*
G75*
G02*
X93351000Y-27220000I0J-51000D01*
G01*
X93351000Y-28920000D01*
G75*
G02*
X93300000Y-28971000I-51000J0D01*
G01*
X91600000Y-28971000D01*
G75*
G02*
X91549000Y-28920000I0J51000D01*
G01*
X91549000Y-27220000D01*
G75*
G02*
X91600000Y-27169000I51000J0D01*
G01*
G37*
G36*
G01*
X27649000Y-5300000D02*
X27649000Y-3700000D01*
G75*
G02*
X27700000Y-3649000I51000J0D01*
G01*
X29300000Y-3649000D01*
G75*
G02*
X29351000Y-3700000I0J-51000D01*
G01*
X29351000Y-5300000D01*
G75*
G02*
X29300000Y-5351000I-51000J0D01*
G01*
X27700000Y-5351000D01*
G75*
G02*
X27649000Y-5300000I0J51000D01*
G01*
G37*
D11*
X41200000Y-22280000D03*
X28500000Y-7040000D03*
X41200000Y-19740000D03*
X28500000Y-9580000D03*
X41200000Y-17200000D03*
X28500000Y-12120000D03*
X41200000Y-14660000D03*
X28500000Y-14660000D03*
X41200000Y-12120000D03*
X28500000Y-17200000D03*
X41200000Y-9580000D03*
X28500000Y-19740000D03*
X41200000Y-7040000D03*
X28500000Y-22280000D03*
X41200000Y-4500000D03*
G36*
G01*
X29085063Y-44101000D02*
X27914937Y-44101000D01*
G75*
G02*
X27649000Y-43835063I0J265937D01*
G01*
X27649000Y-40764937D01*
G75*
G02*
X27914937Y-40499000I265937J0D01*
G01*
X29085063Y-40499000D01*
G75*
G02*
X29351000Y-40764937I0J-265937D01*
G01*
X29351000Y-43835063D01*
G75*
G02*
X29085063Y-44101000I-265937J0D01*
G01*
G37*
G36*
G01*
X29085063Y-38501000D02*
X27914937Y-38501000D01*
G75*
G02*
X27649000Y-38235063I0J265937D01*
G01*
X27649000Y-35164937D01*
G75*
G02*
X27914937Y-34899000I265937J0D01*
G01*
X29085063Y-34899000D01*
G75*
G02*
X29351000Y-35164937I0J-265937D01*
G01*
X29351000Y-38235063D01*
G75*
G02*
X29085063Y-38501000I-265937J0D01*
G01*
G37*
G36*
G01*
X68049000Y-62035063D02*
X68049000Y-59464937D01*
G75*
G02*
X68314937Y-59199000I265937J0D01*
G01*
X69485063Y-59199000D01*
G75*
G02*
X69751000Y-59464937I0J-265937D01*
G01*
X69751000Y-62035063D01*
G75*
G02*
X69485063Y-62301000I-265937J0D01*
G01*
X68314937Y-62301000D01*
G75*
G02*
X68049000Y-62035063I0J265937D01*
G01*
G37*
G36*
G01*
X59249000Y-62035063D02*
X59249000Y-59464937D01*
G75*
G02*
X59514937Y-59199000I265937J0D01*
G01*
X60685063Y-59199000D01*
G75*
G02*
X60951000Y-59464937I0J-265937D01*
G01*
X60951000Y-62035063D01*
G75*
G02*
X60685063Y-62301000I-265937J0D01*
G01*
X59514937Y-62301000D01*
G75*
G02*
X59249000Y-62035063I0J265937D01*
G01*
G37*
G36*
G01*
X65949000Y-65525500D02*
X65949000Y-60474500D01*
G75*
G02*
X66224500Y-60199000I275500J0D01*
G01*
X66775500Y-60199000D01*
G75*
G02*
X67051000Y-60474500I0J-275500D01*
G01*
X67051000Y-65525500D01*
G75*
G02*
X66775500Y-65801000I-275500J0D01*
G01*
X66224500Y-65801000D01*
G75*
G02*
X65949000Y-65525500I0J275500D01*
G01*
G37*
G36*
G01*
X63949000Y-65525500D02*
X63949000Y-60474500D01*
G75*
G02*
X64224500Y-60199000I275500J0D01*
G01*
X64775500Y-60199000D01*
G75*
G02*
X65051000Y-60474500I0J-275500D01*
G01*
X65051000Y-65525500D01*
G75*
G02*
X64775500Y-65801000I-275500J0D01*
G01*
X64224500Y-65801000D01*
G75*
G02*
X63949000Y-65525500I0J275500D01*
G01*
G37*
G36*
G01*
X61949000Y-65525500D02*
X61949000Y-60474500D01*
G75*
G02*
X62224500Y-60199000I275500J0D01*
G01*
X62775500Y-60199000D01*
G75*
G02*
X63051000Y-60474500I0J-275500D01*
G01*
X63051000Y-65525500D01*
G75*
G02*
X62775500Y-65801000I-275500J0D01*
G01*
X62224500Y-65801000D01*
G75*
G02*
X61949000Y-65525500I0J275500D01*
G01*
G37*
G36*
G01*
X65949000Y-13525500D02*
X65949000Y-8474500D01*
G75*
G02*
X66224500Y-8199000I275500J0D01*
G01*
X66775500Y-8199000D01*
G75*
G02*
X67051000Y-8474500I0J-275500D01*
G01*
X67051000Y-13525500D01*
G75*
G02*
X66775500Y-13801000I-275500J0D01*
G01*
X66224500Y-13801000D01*
G75*
G02*
X65949000Y-13525500I0J275500D01*
G01*
G37*
G36*
G01*
X67949000Y-13525500D02*
X67949000Y-8474500D01*
G75*
G02*
X68224500Y-8199000I275500J0D01*
G01*
X68775500Y-8199000D01*
G75*
G02*
X69051000Y-8474500I0J-275500D01*
G01*
X69051000Y-13525500D01*
G75*
G02*
X68775500Y-13801000I-275500J0D01*
G01*
X68224500Y-13801000D01*
G75*
G02*
X67949000Y-13525500I0J275500D01*
G01*
G37*
G36*
G01*
X69949000Y-13525500D02*
X69949000Y-8474500D01*
G75*
G02*
X70224500Y-8199000I275500J0D01*
G01*
X70775500Y-8199000D01*
G75*
G02*
X71051000Y-8474500I0J-275500D01*
G01*
X71051000Y-13525500D01*
G75*
G02*
X70775500Y-13801000I-275500J0D01*
G01*
X70224500Y-13801000D01*
G75*
G02*
X69949000Y-13525500I0J275500D01*
G01*
G37*
G36*
G01*
X63249000Y-10035063D02*
X63249000Y-7464937D01*
G75*
G02*
X63514937Y-7199000I265937J0D01*
G01*
X64685063Y-7199000D01*
G75*
G02*
X64951000Y-7464937I0J-265937D01*
G01*
X64951000Y-10035063D01*
G75*
G02*
X64685063Y-10301000I-265937J0D01*
G01*
X63514937Y-10301000D01*
G75*
G02*
X63249000Y-10035063I0J265937D01*
G01*
G37*
G36*
G01*
X72049000Y-10035063D02*
X72049000Y-7464937D01*
G75*
G02*
X72314937Y-7199000I265937J0D01*
G01*
X73485063Y-7199000D01*
G75*
G02*
X73751000Y-7464937I0J-265937D01*
G01*
X73751000Y-10035063D01*
G75*
G02*
X73485063Y-10301000I-265937J0D01*
G01*
X72314937Y-10301000D01*
G75*
G02*
X72049000Y-10035063I0J265937D01*
G01*
G37*
G36*
G01*
X16535063Y-35951000D02*
X13964937Y-35951000D01*
G75*
G02*
X13699000Y-35685063I0J265937D01*
G01*
X13699000Y-34514937D01*
G75*
G02*
X13964937Y-34249000I265937J0D01*
G01*
X16535063Y-34249000D01*
G75*
G02*
X16801000Y-34514937I0J-265937D01*
G01*
X16801000Y-35685063D01*
G75*
G02*
X16535063Y-35951000I-265937J0D01*
G01*
G37*
G36*
G01*
X16535063Y-44751000D02*
X13964937Y-44751000D01*
G75*
G02*
X13699000Y-44485063I0J265937D01*
G01*
X13699000Y-43314937D01*
G75*
G02*
X13964937Y-43049000I265937J0D01*
G01*
X16535063Y-43049000D01*
G75*
G02*
X16801000Y-43314937I0J-265937D01*
G01*
X16801000Y-44485063D01*
G75*
G02*
X16535063Y-44751000I-265937J0D01*
G01*
G37*
G36*
G01*
X20025500Y-38051000D02*
X14974500Y-38051000D01*
G75*
G02*
X14699000Y-37775500I0J275500D01*
G01*
X14699000Y-37224500D01*
G75*
G02*
X14974500Y-36949000I275500J0D01*
G01*
X20025500Y-36949000D01*
G75*
G02*
X20301000Y-37224500I0J-275500D01*
G01*
X20301000Y-37775500D01*
G75*
G02*
X20025500Y-38051000I-275500J0D01*
G01*
G37*
G36*
G01*
X20025500Y-40051000D02*
X14974500Y-40051000D01*
G75*
G02*
X14699000Y-39775500I0J275500D01*
G01*
X14699000Y-39224500D01*
G75*
G02*
X14974500Y-38949000I275500J0D01*
G01*
X20025500Y-38949000D01*
G75*
G02*
X20301000Y-39224500I0J-275500D01*
G01*
X20301000Y-39775500D01*
G75*
G02*
X20025500Y-40051000I-275500J0D01*
G01*
G37*
G36*
G01*
X20025500Y-42051000D02*
X14974500Y-42051000D01*
G75*
G02*
X14699000Y-41775500I0J275500D01*
G01*
X14699000Y-41224500D01*
G75*
G02*
X14974500Y-40949000I275500J0D01*
G01*
X20025500Y-40949000D01*
G75*
G02*
X20301000Y-41224500I0J-275500D01*
G01*
X20301000Y-41775500D01*
G75*
G02*
X20025500Y-42051000I-275500J0D01*
G01*
G37*
G36*
G01*
X77449000Y-65525500D02*
X77449000Y-60474500D01*
G75*
G02*
X77724500Y-60199000I275500J0D01*
G01*
X78275500Y-60199000D01*
G75*
G02*
X78551000Y-60474500I0J-275500D01*
G01*
X78551000Y-65525500D01*
G75*
G02*
X78275500Y-65801000I-275500J0D01*
G01*
X77724500Y-65801000D01*
G75*
G02*
X77449000Y-65525500I0J275500D01*
G01*
G37*
G36*
G01*
X79449000Y-65525500D02*
X79449000Y-60474500D01*
G75*
G02*
X79724500Y-60199000I275500J0D01*
G01*
X80275500Y-60199000D01*
G75*
G02*
X80551000Y-60474500I0J-275500D01*
G01*
X80551000Y-65525500D01*
G75*
G02*
X80275500Y-65801000I-275500J0D01*
G01*
X79724500Y-65801000D01*
G75*
G02*
X79449000Y-65525500I0J275500D01*
G01*
G37*
G36*
G01*
X81449000Y-65525500D02*
X81449000Y-60474500D01*
G75*
G02*
X81724500Y-60199000I275500J0D01*
G01*
X82275500Y-60199000D01*
G75*
G02*
X82551000Y-60474500I0J-275500D01*
G01*
X82551000Y-65525500D01*
G75*
G02*
X82275500Y-65801000I-275500J0D01*
G01*
X81724500Y-65801000D01*
G75*
G02*
X81449000Y-65525500I0J275500D01*
G01*
G37*
G36*
G01*
X83449000Y-65525500D02*
X83449000Y-60474500D01*
G75*
G02*
X83724500Y-60199000I275500J0D01*
G01*
X84275500Y-60199000D01*
G75*
G02*
X84551000Y-60474500I0J-275500D01*
G01*
X84551000Y-65525500D01*
G75*
G02*
X84275500Y-65801000I-275500J0D01*
G01*
X83724500Y-65801000D01*
G75*
G02*
X83449000Y-65525500I0J275500D01*
G01*
G37*
G36*
G01*
X85449000Y-65525500D02*
X85449000Y-60474500D01*
G75*
G02*
X85724500Y-60199000I275500J0D01*
G01*
X86275500Y-60199000D01*
G75*
G02*
X86551000Y-60474500I0J-275500D01*
G01*
X86551000Y-65525500D01*
G75*
G02*
X86275500Y-65801000I-275500J0D01*
G01*
X85724500Y-65801000D01*
G75*
G02*
X85449000Y-65525500I0J275500D01*
G01*
G37*
G36*
G01*
X87449000Y-65525500D02*
X87449000Y-60474500D01*
G75*
G02*
X87724500Y-60199000I275500J0D01*
G01*
X88275500Y-60199000D01*
G75*
G02*
X88551000Y-60474500I0J-275500D01*
G01*
X88551000Y-65525500D01*
G75*
G02*
X88275500Y-65801000I-275500J0D01*
G01*
X87724500Y-65801000D01*
G75*
G02*
X87449000Y-65525500I0J275500D01*
G01*
G37*
G36*
G01*
X74749000Y-62035063D02*
X74749000Y-59464937D01*
G75*
G02*
X75014937Y-59199000I265937J0D01*
G01*
X76185063Y-59199000D01*
G75*
G02*
X76451000Y-59464937I0J-265937D01*
G01*
X76451000Y-62035063D01*
G75*
G02*
X76185063Y-62301000I-265937J0D01*
G01*
X75014937Y-62301000D01*
G75*
G02*
X74749000Y-62035063I0J265937D01*
G01*
G37*
G36*
G01*
X89549000Y-62035063D02*
X89549000Y-59464937D01*
G75*
G02*
X89814937Y-59199000I265937J0D01*
G01*
X90985063Y-59199000D01*
G75*
G02*
X91251000Y-59464937I0J-265937D01*
G01*
X91251000Y-62035063D01*
G75*
G02*
X90985063Y-62301000I-265937J0D01*
G01*
X89814937Y-62301000D01*
G75*
G02*
X89549000Y-62035063I0J265937D01*
G01*
G37*
G36*
G01*
X14474500Y-9449000D02*
X19525500Y-9449000D01*
G75*
G02*
X19801000Y-9724500I0J-275500D01*
G01*
X19801000Y-10275500D01*
G75*
G02*
X19525500Y-10551000I-275500J0D01*
G01*
X14474500Y-10551000D01*
G75*
G02*
X14199000Y-10275500I0J275500D01*
G01*
X14199000Y-9724500D01*
G75*
G02*
X14474500Y-9449000I275500J0D01*
G01*
G37*
G36*
G01*
X14474500Y-11449000D02*
X19525500Y-11449000D01*
G75*
G02*
X19801000Y-11724500I0J-275500D01*
G01*
X19801000Y-12275500D01*
G75*
G02*
X19525500Y-12551000I-275500J0D01*
G01*
X14474500Y-12551000D01*
G75*
G02*
X14199000Y-12275500I0J275500D01*
G01*
X14199000Y-11724500D01*
G75*
G02*
X14474500Y-11449000I275500J0D01*
G01*
G37*
G36*
G01*
X14474500Y-13449000D02*
X19525500Y-13449000D01*
G75*
G02*
X19801000Y-13724500I0J-275500D01*
G01*
X19801000Y-14275500D01*
G75*
G02*
X19525500Y-14551000I-275500J0D01*
G01*
X14474500Y-14551000D01*
G75*
G02*
X14199000Y-14275500I0J275500D01*
G01*
X14199000Y-13724500D01*
G75*
G02*
X14474500Y-13449000I275500J0D01*
G01*
G37*
G36*
G01*
X14474500Y-15449000D02*
X19525500Y-15449000D01*
G75*
G02*
X19801000Y-15724500I0J-275500D01*
G01*
X19801000Y-16275500D01*
G75*
G02*
X19525500Y-16551000I-275500J0D01*
G01*
X14474500Y-16551000D01*
G75*
G02*
X14199000Y-16275500I0J275500D01*
G01*
X14199000Y-15724500D01*
G75*
G02*
X14474500Y-15449000I275500J0D01*
G01*
G37*
G36*
G01*
X17964937Y-6749000D02*
X20535063Y-6749000D01*
G75*
G02*
X20801000Y-7014937I0J-265937D01*
G01*
X20801000Y-8185063D01*
G75*
G02*
X20535063Y-8451000I-265937J0D01*
G01*
X17964937Y-8451000D01*
G75*
G02*
X17699000Y-8185063I0J265937D01*
G01*
X17699000Y-7014937D01*
G75*
G02*
X17964937Y-6749000I265937J0D01*
G01*
G37*
G36*
G01*
X17964937Y-17549000D02*
X20535063Y-17549000D01*
G75*
G02*
X20801000Y-17814937I0J-265937D01*
G01*
X20801000Y-18985063D01*
G75*
G02*
X20535063Y-19251000I-265937J0D01*
G01*
X17964937Y-19251000D01*
G75*
G02*
X17699000Y-18985063I0J265937D01*
G01*
X17699000Y-17814937D01*
G75*
G02*
X17964937Y-17549000I265937J0D01*
G01*
G37*
G36*
G01*
X32449000Y-61525500D02*
X32449000Y-56474500D01*
G75*
G02*
X32724500Y-56199000I275500J0D01*
G01*
X33275500Y-56199000D01*
G75*
G02*
X33551000Y-56474500I0J-275500D01*
G01*
X33551000Y-61525500D01*
G75*
G02*
X33275500Y-61801000I-275500J0D01*
G01*
X32724500Y-61801000D01*
G75*
G02*
X32449000Y-61525500I0J275500D01*
G01*
G37*
G36*
G01*
X34449000Y-61525500D02*
X34449000Y-56474500D01*
G75*
G02*
X34724500Y-56199000I275500J0D01*
G01*
X35275500Y-56199000D01*
G75*
G02*
X35551000Y-56474500I0J-275500D01*
G01*
X35551000Y-61525500D01*
G75*
G02*
X35275500Y-61801000I-275500J0D01*
G01*
X34724500Y-61801000D01*
G75*
G02*
X34449000Y-61525500I0J275500D01*
G01*
G37*
G36*
G01*
X36449000Y-61525500D02*
X36449000Y-56474500D01*
G75*
G02*
X36724500Y-56199000I275500J0D01*
G01*
X37275500Y-56199000D01*
G75*
G02*
X37551000Y-56474500I0J-275500D01*
G01*
X37551000Y-61525500D01*
G75*
G02*
X37275500Y-61801000I-275500J0D01*
G01*
X36724500Y-61801000D01*
G75*
G02*
X36449000Y-61525500I0J275500D01*
G01*
G37*
G36*
G01*
X38449000Y-61525500D02*
X38449000Y-56474500D01*
G75*
G02*
X38724500Y-56199000I275500J0D01*
G01*
X39275500Y-56199000D01*
G75*
G02*
X39551000Y-56474500I0J-275500D01*
G01*
X39551000Y-61525500D01*
G75*
G02*
X39275500Y-61801000I-275500J0D01*
G01*
X38724500Y-61801000D01*
G75*
G02*
X38449000Y-61525500I0J275500D01*
G01*
G37*
G36*
G01*
X40449000Y-61525500D02*
X40449000Y-56474500D01*
G75*
G02*
X40724500Y-56199000I275500J0D01*
G01*
X41275500Y-56199000D01*
G75*
G02*
X41551000Y-56474500I0J-275500D01*
G01*
X41551000Y-61525500D01*
G75*
G02*
X41275500Y-61801000I-275500J0D01*
G01*
X40724500Y-61801000D01*
G75*
G02*
X40449000Y-61525500I0J275500D01*
G01*
G37*
G36*
G01*
X29749000Y-58035063D02*
X29749000Y-55464937D01*
G75*
G02*
X30014937Y-55199000I265937J0D01*
G01*
X31185063Y-55199000D01*
G75*
G02*
X31451000Y-55464937I0J-265937D01*
G01*
X31451000Y-58035063D01*
G75*
G02*
X31185063Y-58301000I-265937J0D01*
G01*
X30014937Y-58301000D01*
G75*
G02*
X29749000Y-58035063I0J265937D01*
G01*
G37*
G36*
G01*
X42549000Y-58035063D02*
X42549000Y-55464937D01*
G75*
G02*
X42814937Y-55199000I265937J0D01*
G01*
X43985063Y-55199000D01*
G75*
G02*
X44251000Y-55464937I0J-265937D01*
G01*
X44251000Y-58035063D01*
G75*
G02*
X43985063Y-58301000I-265937J0D01*
G01*
X42814937Y-58301000D01*
G75*
G02*
X42549000Y-58035063I0J265937D01*
G01*
G37*
M02*
