G04 #@! TF.GenerationSoftware,KiCad,Pcbnew,(5.1.9)-1*
G04 #@! TF.CreationDate,2022-06-25T15:55:54-04:00*
G04 #@! TF.ProjectId,TarotMachine,5461726f-744d-4616-9368-696e652e6b69,rev?*
G04 #@! TF.SameCoordinates,Original*
G04 #@! TF.FileFunction,Paste,Top*
G04 #@! TF.FilePolarity,Positive*
%FSLAX46Y46*%
G04 Gerber Fmt 4.6, Leading zero omitted, Abs format (unit mm)*
G04 Created by KiCad (PCBNEW (5.1.9)-1) date 2022-06-25 15:55:54*
%MOMM*%
%LPD*%
G01*
G04 APERTURE LIST*
G04 APERTURE END LIST*
G36*
G01*
X29050000Y-44050000D02*
X27950000Y-44050000D01*
G75*
G02*
X27700000Y-43800000I0J250000D01*
G01*
X27700000Y-40800000D01*
G75*
G02*
X27950000Y-40550000I250000J0D01*
G01*
X29050000Y-40550000D01*
G75*
G02*
X29300000Y-40800000I0J-250000D01*
G01*
X29300000Y-43800000D01*
G75*
G02*
X29050000Y-44050000I-250000J0D01*
G01*
G37*
G36*
G01*
X29050000Y-38450000D02*
X27950000Y-38450000D01*
G75*
G02*
X27700000Y-38200000I0J250000D01*
G01*
X27700000Y-35200000D01*
G75*
G02*
X27950000Y-34950000I250000J0D01*
G01*
X29050000Y-34950000D01*
G75*
G02*
X29300000Y-35200000I0J-250000D01*
G01*
X29300000Y-38200000D01*
G75*
G02*
X29050000Y-38450000I-250000J0D01*
G01*
G37*
G36*
G01*
X68100000Y-62000000D02*
X68100000Y-59500000D01*
G75*
G02*
X68350000Y-59250000I250000J0D01*
G01*
X69450000Y-59250000D01*
G75*
G02*
X69700000Y-59500000I0J-250000D01*
G01*
X69700000Y-62000000D01*
G75*
G02*
X69450000Y-62250000I-250000J0D01*
G01*
X68350000Y-62250000D01*
G75*
G02*
X68100000Y-62000000I0J250000D01*
G01*
G37*
G36*
G01*
X59300000Y-62000000D02*
X59300000Y-59500000D01*
G75*
G02*
X59550000Y-59250000I250000J0D01*
G01*
X60650000Y-59250000D01*
G75*
G02*
X60900000Y-59500000I0J-250000D01*
G01*
X60900000Y-62000000D01*
G75*
G02*
X60650000Y-62250000I-250000J0D01*
G01*
X59550000Y-62250000D01*
G75*
G02*
X59300000Y-62000000I0J250000D01*
G01*
G37*
G36*
G01*
X66000000Y-65500000D02*
X66000000Y-60500000D01*
G75*
G02*
X66250000Y-60250000I250000J0D01*
G01*
X66750000Y-60250000D01*
G75*
G02*
X67000000Y-60500000I0J-250000D01*
G01*
X67000000Y-65500000D01*
G75*
G02*
X66750000Y-65750000I-250000J0D01*
G01*
X66250000Y-65750000D01*
G75*
G02*
X66000000Y-65500000I0J250000D01*
G01*
G37*
G36*
G01*
X64000000Y-65500000D02*
X64000000Y-60500000D01*
G75*
G02*
X64250000Y-60250000I250000J0D01*
G01*
X64750000Y-60250000D01*
G75*
G02*
X65000000Y-60500000I0J-250000D01*
G01*
X65000000Y-65500000D01*
G75*
G02*
X64750000Y-65750000I-250000J0D01*
G01*
X64250000Y-65750000D01*
G75*
G02*
X64000000Y-65500000I0J250000D01*
G01*
G37*
G36*
G01*
X62000000Y-65500000D02*
X62000000Y-60500000D01*
G75*
G02*
X62250000Y-60250000I250000J0D01*
G01*
X62750000Y-60250000D01*
G75*
G02*
X63000000Y-60500000I0J-250000D01*
G01*
X63000000Y-65500000D01*
G75*
G02*
X62750000Y-65750000I-250000J0D01*
G01*
X62250000Y-65750000D01*
G75*
G02*
X62000000Y-65500000I0J250000D01*
G01*
G37*
G36*
G01*
X66000000Y-13500000D02*
X66000000Y-8500000D01*
G75*
G02*
X66250000Y-8250000I250000J0D01*
G01*
X66750000Y-8250000D01*
G75*
G02*
X67000000Y-8500000I0J-250000D01*
G01*
X67000000Y-13500000D01*
G75*
G02*
X66750000Y-13750000I-250000J0D01*
G01*
X66250000Y-13750000D01*
G75*
G02*
X66000000Y-13500000I0J250000D01*
G01*
G37*
G36*
G01*
X68000000Y-13500000D02*
X68000000Y-8500000D01*
G75*
G02*
X68250000Y-8250000I250000J0D01*
G01*
X68750000Y-8250000D01*
G75*
G02*
X69000000Y-8500000I0J-250000D01*
G01*
X69000000Y-13500000D01*
G75*
G02*
X68750000Y-13750000I-250000J0D01*
G01*
X68250000Y-13750000D01*
G75*
G02*
X68000000Y-13500000I0J250000D01*
G01*
G37*
G36*
G01*
X70000000Y-13500000D02*
X70000000Y-8500000D01*
G75*
G02*
X70250000Y-8250000I250000J0D01*
G01*
X70750000Y-8250000D01*
G75*
G02*
X71000000Y-8500000I0J-250000D01*
G01*
X71000000Y-13500000D01*
G75*
G02*
X70750000Y-13750000I-250000J0D01*
G01*
X70250000Y-13750000D01*
G75*
G02*
X70000000Y-13500000I0J250000D01*
G01*
G37*
G36*
G01*
X63300000Y-10000000D02*
X63300000Y-7500000D01*
G75*
G02*
X63550000Y-7250000I250000J0D01*
G01*
X64650000Y-7250000D01*
G75*
G02*
X64900000Y-7500000I0J-250000D01*
G01*
X64900000Y-10000000D01*
G75*
G02*
X64650000Y-10250000I-250000J0D01*
G01*
X63550000Y-10250000D01*
G75*
G02*
X63300000Y-10000000I0J250000D01*
G01*
G37*
G36*
G01*
X72100000Y-10000000D02*
X72100000Y-7500000D01*
G75*
G02*
X72350000Y-7250000I250000J0D01*
G01*
X73450000Y-7250000D01*
G75*
G02*
X73700000Y-7500000I0J-250000D01*
G01*
X73700000Y-10000000D01*
G75*
G02*
X73450000Y-10250000I-250000J0D01*
G01*
X72350000Y-10250000D01*
G75*
G02*
X72100000Y-10000000I0J250000D01*
G01*
G37*
G36*
G01*
X16500000Y-35900000D02*
X14000000Y-35900000D01*
G75*
G02*
X13750000Y-35650000I0J250000D01*
G01*
X13750000Y-34550000D01*
G75*
G02*
X14000000Y-34300000I250000J0D01*
G01*
X16500000Y-34300000D01*
G75*
G02*
X16750000Y-34550000I0J-250000D01*
G01*
X16750000Y-35650000D01*
G75*
G02*
X16500000Y-35900000I-250000J0D01*
G01*
G37*
G36*
G01*
X16500000Y-44700000D02*
X14000000Y-44700000D01*
G75*
G02*
X13750000Y-44450000I0J250000D01*
G01*
X13750000Y-43350000D01*
G75*
G02*
X14000000Y-43100000I250000J0D01*
G01*
X16500000Y-43100000D01*
G75*
G02*
X16750000Y-43350000I0J-250000D01*
G01*
X16750000Y-44450000D01*
G75*
G02*
X16500000Y-44700000I-250000J0D01*
G01*
G37*
G36*
G01*
X20000000Y-38000000D02*
X15000000Y-38000000D01*
G75*
G02*
X14750000Y-37750000I0J250000D01*
G01*
X14750000Y-37250000D01*
G75*
G02*
X15000000Y-37000000I250000J0D01*
G01*
X20000000Y-37000000D01*
G75*
G02*
X20250000Y-37250000I0J-250000D01*
G01*
X20250000Y-37750000D01*
G75*
G02*
X20000000Y-38000000I-250000J0D01*
G01*
G37*
G36*
G01*
X20000000Y-40000000D02*
X15000000Y-40000000D01*
G75*
G02*
X14750000Y-39750000I0J250000D01*
G01*
X14750000Y-39250000D01*
G75*
G02*
X15000000Y-39000000I250000J0D01*
G01*
X20000000Y-39000000D01*
G75*
G02*
X20250000Y-39250000I0J-250000D01*
G01*
X20250000Y-39750000D01*
G75*
G02*
X20000000Y-40000000I-250000J0D01*
G01*
G37*
G36*
G01*
X20000000Y-42000000D02*
X15000000Y-42000000D01*
G75*
G02*
X14750000Y-41750000I0J250000D01*
G01*
X14750000Y-41250000D01*
G75*
G02*
X15000000Y-41000000I250000J0D01*
G01*
X20000000Y-41000000D01*
G75*
G02*
X20250000Y-41250000I0J-250000D01*
G01*
X20250000Y-41750000D01*
G75*
G02*
X20000000Y-42000000I-250000J0D01*
G01*
G37*
G36*
G01*
X77500000Y-65500000D02*
X77500000Y-60500000D01*
G75*
G02*
X77750000Y-60250000I250000J0D01*
G01*
X78250000Y-60250000D01*
G75*
G02*
X78500000Y-60500000I0J-250000D01*
G01*
X78500000Y-65500000D01*
G75*
G02*
X78250000Y-65750000I-250000J0D01*
G01*
X77750000Y-65750000D01*
G75*
G02*
X77500000Y-65500000I0J250000D01*
G01*
G37*
G36*
G01*
X79500000Y-65500000D02*
X79500000Y-60500000D01*
G75*
G02*
X79750000Y-60250000I250000J0D01*
G01*
X80250000Y-60250000D01*
G75*
G02*
X80500000Y-60500000I0J-250000D01*
G01*
X80500000Y-65500000D01*
G75*
G02*
X80250000Y-65750000I-250000J0D01*
G01*
X79750000Y-65750000D01*
G75*
G02*
X79500000Y-65500000I0J250000D01*
G01*
G37*
G36*
G01*
X81500000Y-65500000D02*
X81500000Y-60500000D01*
G75*
G02*
X81750000Y-60250000I250000J0D01*
G01*
X82250000Y-60250000D01*
G75*
G02*
X82500000Y-60500000I0J-250000D01*
G01*
X82500000Y-65500000D01*
G75*
G02*
X82250000Y-65750000I-250000J0D01*
G01*
X81750000Y-65750000D01*
G75*
G02*
X81500000Y-65500000I0J250000D01*
G01*
G37*
G36*
G01*
X83500000Y-65500000D02*
X83500000Y-60500000D01*
G75*
G02*
X83750000Y-60250000I250000J0D01*
G01*
X84250000Y-60250000D01*
G75*
G02*
X84500000Y-60500000I0J-250000D01*
G01*
X84500000Y-65500000D01*
G75*
G02*
X84250000Y-65750000I-250000J0D01*
G01*
X83750000Y-65750000D01*
G75*
G02*
X83500000Y-65500000I0J250000D01*
G01*
G37*
G36*
G01*
X85500000Y-65500000D02*
X85500000Y-60500000D01*
G75*
G02*
X85750000Y-60250000I250000J0D01*
G01*
X86250000Y-60250000D01*
G75*
G02*
X86500000Y-60500000I0J-250000D01*
G01*
X86500000Y-65500000D01*
G75*
G02*
X86250000Y-65750000I-250000J0D01*
G01*
X85750000Y-65750000D01*
G75*
G02*
X85500000Y-65500000I0J250000D01*
G01*
G37*
G36*
G01*
X87500000Y-65500000D02*
X87500000Y-60500000D01*
G75*
G02*
X87750000Y-60250000I250000J0D01*
G01*
X88250000Y-60250000D01*
G75*
G02*
X88500000Y-60500000I0J-250000D01*
G01*
X88500000Y-65500000D01*
G75*
G02*
X88250000Y-65750000I-250000J0D01*
G01*
X87750000Y-65750000D01*
G75*
G02*
X87500000Y-65500000I0J250000D01*
G01*
G37*
G36*
G01*
X74800000Y-62000000D02*
X74800000Y-59500000D01*
G75*
G02*
X75050000Y-59250000I250000J0D01*
G01*
X76150000Y-59250000D01*
G75*
G02*
X76400000Y-59500000I0J-250000D01*
G01*
X76400000Y-62000000D01*
G75*
G02*
X76150000Y-62250000I-250000J0D01*
G01*
X75050000Y-62250000D01*
G75*
G02*
X74800000Y-62000000I0J250000D01*
G01*
G37*
G36*
G01*
X89600000Y-62000000D02*
X89600000Y-59500000D01*
G75*
G02*
X89850000Y-59250000I250000J0D01*
G01*
X90950000Y-59250000D01*
G75*
G02*
X91200000Y-59500000I0J-250000D01*
G01*
X91200000Y-62000000D01*
G75*
G02*
X90950000Y-62250000I-250000J0D01*
G01*
X89850000Y-62250000D01*
G75*
G02*
X89600000Y-62000000I0J250000D01*
G01*
G37*
G36*
G01*
X14500000Y-9500000D02*
X19500000Y-9500000D01*
G75*
G02*
X19750000Y-9750000I0J-250000D01*
G01*
X19750000Y-10250000D01*
G75*
G02*
X19500000Y-10500000I-250000J0D01*
G01*
X14500000Y-10500000D01*
G75*
G02*
X14250000Y-10250000I0J250000D01*
G01*
X14250000Y-9750000D01*
G75*
G02*
X14500000Y-9500000I250000J0D01*
G01*
G37*
G36*
G01*
X14500000Y-11500000D02*
X19500000Y-11500000D01*
G75*
G02*
X19750000Y-11750000I0J-250000D01*
G01*
X19750000Y-12250000D01*
G75*
G02*
X19500000Y-12500000I-250000J0D01*
G01*
X14500000Y-12500000D01*
G75*
G02*
X14250000Y-12250000I0J250000D01*
G01*
X14250000Y-11750000D01*
G75*
G02*
X14500000Y-11500000I250000J0D01*
G01*
G37*
G36*
G01*
X14500000Y-13500000D02*
X19500000Y-13500000D01*
G75*
G02*
X19750000Y-13750000I0J-250000D01*
G01*
X19750000Y-14250000D01*
G75*
G02*
X19500000Y-14500000I-250000J0D01*
G01*
X14500000Y-14500000D01*
G75*
G02*
X14250000Y-14250000I0J250000D01*
G01*
X14250000Y-13750000D01*
G75*
G02*
X14500000Y-13500000I250000J0D01*
G01*
G37*
G36*
G01*
X14500000Y-15500000D02*
X19500000Y-15500000D01*
G75*
G02*
X19750000Y-15750000I0J-250000D01*
G01*
X19750000Y-16250000D01*
G75*
G02*
X19500000Y-16500000I-250000J0D01*
G01*
X14500000Y-16500000D01*
G75*
G02*
X14250000Y-16250000I0J250000D01*
G01*
X14250000Y-15750000D01*
G75*
G02*
X14500000Y-15500000I250000J0D01*
G01*
G37*
G36*
G01*
X18000000Y-6800000D02*
X20500000Y-6800000D01*
G75*
G02*
X20750000Y-7050000I0J-250000D01*
G01*
X20750000Y-8150000D01*
G75*
G02*
X20500000Y-8400000I-250000J0D01*
G01*
X18000000Y-8400000D01*
G75*
G02*
X17750000Y-8150000I0J250000D01*
G01*
X17750000Y-7050000D01*
G75*
G02*
X18000000Y-6800000I250000J0D01*
G01*
G37*
G36*
G01*
X18000000Y-17600000D02*
X20500000Y-17600000D01*
G75*
G02*
X20750000Y-17850000I0J-250000D01*
G01*
X20750000Y-18950000D01*
G75*
G02*
X20500000Y-19200000I-250000J0D01*
G01*
X18000000Y-19200000D01*
G75*
G02*
X17750000Y-18950000I0J250000D01*
G01*
X17750000Y-17850000D01*
G75*
G02*
X18000000Y-17600000I250000J0D01*
G01*
G37*
G36*
G01*
X32500000Y-61500000D02*
X32500000Y-56500000D01*
G75*
G02*
X32750000Y-56250000I250000J0D01*
G01*
X33250000Y-56250000D01*
G75*
G02*
X33500000Y-56500000I0J-250000D01*
G01*
X33500000Y-61500000D01*
G75*
G02*
X33250000Y-61750000I-250000J0D01*
G01*
X32750000Y-61750000D01*
G75*
G02*
X32500000Y-61500000I0J250000D01*
G01*
G37*
G36*
G01*
X34500000Y-61500000D02*
X34500000Y-56500000D01*
G75*
G02*
X34750000Y-56250000I250000J0D01*
G01*
X35250000Y-56250000D01*
G75*
G02*
X35500000Y-56500000I0J-250000D01*
G01*
X35500000Y-61500000D01*
G75*
G02*
X35250000Y-61750000I-250000J0D01*
G01*
X34750000Y-61750000D01*
G75*
G02*
X34500000Y-61500000I0J250000D01*
G01*
G37*
G36*
G01*
X36500000Y-61500000D02*
X36500000Y-56500000D01*
G75*
G02*
X36750000Y-56250000I250000J0D01*
G01*
X37250000Y-56250000D01*
G75*
G02*
X37500000Y-56500000I0J-250000D01*
G01*
X37500000Y-61500000D01*
G75*
G02*
X37250000Y-61750000I-250000J0D01*
G01*
X36750000Y-61750000D01*
G75*
G02*
X36500000Y-61500000I0J250000D01*
G01*
G37*
G36*
G01*
X38500000Y-61500000D02*
X38500000Y-56500000D01*
G75*
G02*
X38750000Y-56250000I250000J0D01*
G01*
X39250000Y-56250000D01*
G75*
G02*
X39500000Y-56500000I0J-250000D01*
G01*
X39500000Y-61500000D01*
G75*
G02*
X39250000Y-61750000I-250000J0D01*
G01*
X38750000Y-61750000D01*
G75*
G02*
X38500000Y-61500000I0J250000D01*
G01*
G37*
G36*
G01*
X40500000Y-61500000D02*
X40500000Y-56500000D01*
G75*
G02*
X40750000Y-56250000I250000J0D01*
G01*
X41250000Y-56250000D01*
G75*
G02*
X41500000Y-56500000I0J-250000D01*
G01*
X41500000Y-61500000D01*
G75*
G02*
X41250000Y-61750000I-250000J0D01*
G01*
X40750000Y-61750000D01*
G75*
G02*
X40500000Y-61500000I0J250000D01*
G01*
G37*
G36*
G01*
X29800000Y-58000000D02*
X29800000Y-55500000D01*
G75*
G02*
X30050000Y-55250000I250000J0D01*
G01*
X31150000Y-55250000D01*
G75*
G02*
X31400000Y-55500000I0J-250000D01*
G01*
X31400000Y-58000000D01*
G75*
G02*
X31150000Y-58250000I-250000J0D01*
G01*
X30050000Y-58250000D01*
G75*
G02*
X29800000Y-58000000I0J250000D01*
G01*
G37*
G36*
G01*
X42600000Y-58000000D02*
X42600000Y-55500000D01*
G75*
G02*
X42850000Y-55250000I250000J0D01*
G01*
X43950000Y-55250000D01*
G75*
G02*
X44200000Y-55500000I0J-250000D01*
G01*
X44200000Y-58000000D01*
G75*
G02*
X43950000Y-58250000I-250000J0D01*
G01*
X42850000Y-58250000D01*
G75*
G02*
X42600000Y-58000000I0J250000D01*
G01*
G37*
M02*
